<svg class="arcana-svg" viewBox="0 0 210 363" xmlns="http://www.w3.org/2000/svg" role="img" aria-label="FIVE OF CUPS">
  <rect x="1" y="1" width="208" height="361" rx="12" fill="#0B0908" stroke="#2E5BFF" stroke-opacity="0.35"/>
  <path d="M61.55,134.2 L90.45,134.2 A14.45,14.45 0 0 1 61.55,134.2 Z" fill="#2E5BFF"/><path d="M119.55,134.2 L148.45,134.2 A14.45,14.45 0 0 1 119.55,134.2 Z" fill="#2E5BFF"/><path d="M90.55,184.2 L119.45,184.2 A14.45,14.45 0 0 1 90.55,184.2 Z" fill="#2E5BFF"/><path d="M61.55,234.2 L90.45,234.2 A14.45,14.45 0 0 1 61.55,234.2 Z" fill="#2E5BFF"/><path d="M119.55,234.2 L148.45,234.2 A14.45,14.45 0 0 1 119.55,234.2 Z" fill="#2E5BFF"/>
  <text x="105" y="334" text-anchor="middle" font-family="system-ui, Helvetica, sans-serif" font-size="9.5" letter-spacing="3.5" fill="#8E877B">FIVE OF CUPS</text>
</svg>
