<svg class="arcana-svg" viewBox="0 0 210 363" xmlns="http://www.w3.org/2000/svg" role="img" aria-label="JUSTICE">
  <defs>
    <clipPath id="band-11" clipPathUnits="userSpaceOnUse">
      <path d="M1,1 h208 v361 h-208 z M11,11 h188 v341 h-188 z" clip-rule="evenodd" fill-rule="evenodd"/>
    </clipPath>
  </defs>
  <!-- ground -->
  <rect x="1" y="1" width="208" height="361" rx="12" fill="#0B0908" stroke="#26211D"/>
  <!-- border band (clipped) -->
  <g clip-path="url(#band-11)">
    <rect x="5.12" y="1.00" width="4.12" height="12.10" fill="#A9B2BD"/><rect x="17.50" y="1.00" width="4.12" height="12.10" fill="#A9B2BD"/><rect x="29.88" y="1.00" width="4.12" height="12.10" fill="#A9B2BD"/><rect x="42.25" y="1.00" width="4.12" height="12.10" fill="#A9B2BD"/><rect x="54.62" y="1.00" width="4.12" height="12.10" fill="#A9B2BD"/><rect x="67.00" y="1.00" width="4.12" height="12.10" fill="#A9B2BD"/><rect x="79.38" y="1.00" width="4.12" height="12.10" fill="#A9B2BD"/><rect x="91.75" y="1.00" width="4.12" height="12.10" fill="#A9B2BD"/><rect x="104.12" y="1.00" width="4.12" height="12.10" fill="#A9B2BD"/><rect x="116.50" y="1.00" width="4.12" height="12.10" fill="#A9B2BD"/><rect x="128.88" y="1.00" width="4.12" height="12.10" fill="#A9B2BD"/><rect x="141.25" y="1.00" width="4.12" height="12.10" fill="#A9B2BD"/><rect x="153.62" y="1.00" width="4.12" height="12.10" fill="#A9B2BD"/><rect x="166.00" y="1.00" width="4.12" height="12.10" fill="#A9B2BD"/><rect x="178.38" y="1.00" width="4.12" height="12.10" fill="#A9B2BD"/><rect x="190.75" y="1.00" width="4.12" height="12.10" fill="#A9B2BD"/><rect x="203.12" y="1.00" width="4.12" height="12.10" fill="#A9B2BD"/><rect x="5.12" y="13.10" width="4.12" height="12.10" fill="#A9B2BD"/><rect x="17.50" y="13.10" width="4.12" height="12.10" fill="#A9B2BD"/><rect x="29.88" y="13.10" width="4.12" height="12.10" fill="#A9B2BD"/><rect x="42.25" y="13.10" width="4.12" height="12.10" fill="#A9B2BD"/><rect x="54.62" y="13.10" width="4.12" height="12.10" fill="#A9B2BD"/><rect x="67.00" y="13.10" width="4.12" height="12.10" fill="#A9B2BD"/><rect x="79.38" y="13.10" width="4.12" height="12.10" fill="#A9B2BD"/><rect x="91.75" y="13.10" width="4.12" height="12.10" fill="#A9B2BD"/><rect x="104.12" y="13.10" width="4.12" height="12.10" fill="#A9B2BD"/><rect x="116.50" y="13.10" width="4.12" height="12.10" fill="#A9B2BD"/><rect x="128.88" y="13.10" width="4.12" height="12.10" fill="#A9B2BD"/><rect x="141.25" y="13.10" width="4.12" height="12.10" fill="#A9B2BD"/><rect x="153.62" y="13.10" width="4.12" height="12.10" fill="#A9B2BD"/><rect x="166.00" y="13.10" width="4.12" height="12.10" fill="#A9B2BD"/><rect x="178.38" y="13.10" width="4.12" height="12.10" fill="#A9B2BD"/><rect x="190.75" y="13.10" width="4.12" height="12.10" fill="#A9B2BD"/><rect x="203.12" y="13.10" width="4.12" height="12.10" fill="#A9B2BD"/><rect x="5.12" y="25.21" width="4.12" height="12.10" fill="#A9B2BD"/><rect x="17.50" y="25.21" width="4.12" height="12.10" fill="#A9B2BD"/><rect x="29.88" y="25.21" width="4.12" height="12.10" fill="#A9B2BD"/><rect x="42.25" y="25.21" width="4.12" height="12.10" fill="#A9B2BD"/><rect x="54.62" y="25.21" width="4.12" height="12.10" fill="#A9B2BD"/><rect x="67.00" y="25.21" width="4.12" height="12.10" fill="#A9B2BD"/><rect x="79.38" y="25.21" width="4.12" height="12.10" fill="#A9B2BD"/><rect x="91.75" y="25.21" width="4.12" height="12.10" fill="#A9B2BD"/><rect x="104.12" y="25.21" width="4.12" height="12.10" fill="#A9B2BD"/><rect x="116.50" y="25.21" width="4.12" height="12.10" fill="#A9B2BD"/><rect x="128.88" y="25.21" width="4.12" height="12.10" fill="#A9B2BD"/><rect x="141.25" y="25.21" width="4.12" height="12.10" fill="#A9B2BD"/><rect x="153.62" y="25.21" width="4.12" height="12.10" fill="#A9B2BD"/><rect x="166.00" y="25.21" width="4.12" height="12.10" fill="#A9B2BD"/><rect x="178.38" y="25.21" width="4.12" height="12.10" fill="#A9B2BD"/><rect x="190.75" y="25.21" width="4.12" height="12.10" fill="#A9B2BD"/><rect x="203.12" y="25.21" width="4.12" height="12.10" fill="#A9B2BD"/><rect x="5.12" y="37.31" width="4.12" height="12.10" fill="#A9B2BD"/><rect x="17.50" y="37.31" width="4.12" height="12.10" fill="#A9B2BD"/><rect x="29.88" y="37.31" width="4.12" height="12.10" fill="#A9B2BD"/><rect x="42.25" y="37.31" width="4.12" height="12.10" fill="#A9B2BD"/><rect x="54.62" y="37.31" width="4.12" height="12.10" fill="#A9B2BD"/><rect x="67.00" y="37.31" width="4.12" height="12.10" fill="#A9B2BD"/><rect x="79.38" y="37.31" width="4.12" height="12.10" fill="#A9B2BD"/><rect x="91.75" y="37.31" width="4.12" height="12.10" fill="#A9B2BD"/><rect x="104.12" y="37.31" width="4.12" height="12.10" fill="#A9B2BD"/><rect x="116.50" y="37.31" width="4.12" height="12.10" fill="#A9B2BD"/><rect x="128.88" y="37.31" width="4.12" height="12.10" fill="#A9B2BD"/><rect x="141.25" y="37.31" width="4.12" height="12.10" fill="#A9B2BD"/><rect x="153.62" y="37.31" width="4.12" height="12.10" fill="#A9B2BD"/><rect x="166.00" y="37.31" width="4.12" height="12.10" fill="#A9B2BD"/><rect x="178.38" y="37.31" width="4.12" height="12.10" fill="#A9B2BD"/><rect x="190.75" y="37.31" width="4.12" height="12.10" fill="#A9B2BD"/><rect x="203.12" y="37.31" width="4.12" height="12.10" fill="#A9B2BD"/><rect x="5.12" y="49.41" width="4.12" height="12.10" fill="#A9B2BD"/><rect x="17.50" y="49.41" width="4.12" height="12.10" fill="#A9B2BD"/><rect x="29.88" y="49.41" width="4.12" height="12.10" fill="#A9B2BD"/><rect x="42.25" y="49.41" width="4.12" height="12.10" fill="#A9B2BD"/><rect x="54.62" y="49.41" width="4.12" height="12.10" fill="#A9B2BD"/><rect x="67.00" y="49.41" width="4.12" height="12.10" fill="#A9B2BD"/><rect x="79.38" y="49.41" width="4.12" height="12.10" fill="#A9B2BD"/><rect x="91.75" y="49.41" width="4.12" height="12.10" fill="#A9B2BD"/><rect x="104.12" y="49.41" width="4.12" height="12.10" fill="#A9B2BD"/><rect x="116.50" y="49.41" width="4.12" height="12.10" fill="#A9B2BD"/><rect x="128.88" y="49.41" width="4.12" height="12.10" fill="#A9B2BD"/><rect x="141.25" y="49.41" width="4.12" height="12.10" fill="#A9B2BD"/><rect x="153.62" y="49.41" width="4.12" height="12.10" fill="#A9B2BD"/><rect x="166.00" y="49.41" width="4.12" height="12.10" fill="#A9B2BD"/><rect x="178.38" y="49.41" width="4.12" height="12.10" fill="#A9B2BD"/><rect x="190.75" y="49.41" width="4.12" height="12.10" fill="#A9B2BD"/><rect x="203.12" y="49.41" width="4.12" height="12.10" fill="#A9B2BD"/><rect x="5.12" y="61.52" width="4.12" height="12.10" fill="#A9B2BD"/><rect x="17.50" y="61.52" width="4.12" height="12.10" fill="#A9B2BD"/><rect x="29.88" y="61.52" width="4.12" height="12.10" fill="#A9B2BD"/><rect x="42.25" y="61.52" width="4.12" height="12.10" fill="#A9B2BD"/><rect x="54.62" y="61.52" width="4.12" height="12.10" fill="#A9B2BD"/><rect x="67.00" y="61.52" width="4.12" height="12.10" fill="#A9B2BD"/><rect x="79.38" y="61.52" width="4.12" height="12.10" fill="#A9B2BD"/><rect x="91.75" y="61.52" width="4.12" height="12.10" fill="#A9B2BD"/><rect x="104.12" y="61.52" width="4.12" height="12.10" fill="#A9B2BD"/><rect x="116.50" y="61.52" width="4.12" height="12.10" fill="#A9B2BD"/><rect x="128.88" y="61.52" width="4.12" height="12.10" fill="#A9B2BD"/><rect x="141.25" y="61.52" width="4.12" height="12.10" fill="#A9B2BD"/><rect x="153.62" y="61.52" width="4.12" height="12.10" fill="#A9B2BD"/><rect x="166.00" y="61.52" width="4.12" height="12.10" fill="#A9B2BD"/><rect x="178.38" y="61.52" width="4.12" height="12.10" fill="#A9B2BD"/><rect x="190.75" y="61.52" width="4.12" height="12.10" fill="#A9B2BD"/><rect x="203.12" y="61.52" width="4.12" height="12.10" fill="#A9B2BD"/><rect x="5.12" y="73.62" width="4.12" height="12.10" fill="#A9B2BD"/><rect x="17.50" y="73.62" width="4.12" height="12.10" fill="#A9B2BD"/><rect x="29.88" y="73.62" width="4.12" height="12.10" fill="#A9B2BD"/><rect x="42.25" y="73.62" width="4.12" height="12.10" fill="#A9B2BD"/><rect x="54.62" y="73.62" width="4.12" height="12.10" fill="#A9B2BD"/><rect x="67.00" y="73.62" width="4.12" height="12.10" fill="#A9B2BD"/><rect x="79.38" y="73.62" width="4.12" height="12.10" fill="#A9B2BD"/><rect x="91.75" y="73.62" width="4.12" height="12.10" fill="#A9B2BD"/><rect x="104.12" y="73.62" width="4.12" height="12.10" fill="#A9B2BD"/><rect x="116.50" y="73.62" width="4.12" height="12.10" fill="#A9B2BD"/><rect x="128.88" y="73.62" width="4.12" height="12.10" fill="#A9B2BD"/><rect x="141.25" y="73.62" width="4.12" height="12.10" fill="#A9B2BD"/><rect x="153.62" y="73.62" width="4.12" height="12.10" fill="#A9B2BD"/><rect x="166.00" y="73.62" width="4.12" height="12.10" fill="#A9B2BD"/><rect x="178.38" y="73.62" width="4.12" height="12.10" fill="#A9B2BD"/><rect x="190.75" y="73.62" width="4.12" height="12.10" fill="#A9B2BD"/><rect x="203.12" y="73.62" width="4.12" height="12.10" fill="#A9B2BD"/><rect x="5.12" y="85.72" width="4.12" height="12.10" fill="#A9B2BD"/><rect x="17.50" y="85.72" width="4.12" height="12.10" fill="#A9B2BD"/><rect x="29.88" y="85.72" width="4.12" height="12.10" fill="#A9B2BD"/><rect x="42.25" y="85.72" width="4.12" height="12.10" fill="#A9B2BD"/><rect x="54.62" y="85.72" width="4.12" height="12.10" fill="#A9B2BD"/><rect x="67.00" y="85.72" width="4.12" height="12.10" fill="#A9B2BD"/><rect x="79.38" y="85.72" width="4.12" height="12.10" fill="#A9B2BD"/><rect x="91.75" y="85.72" width="4.12" height="12.10" fill="#A9B2BD"/><rect x="104.12" y="85.72" width="4.12" height="12.10" fill="#A9B2BD"/><rect x="116.50" y="85.72" width="4.12" height="12.10" fill="#A9B2BD"/><rect x="128.88" y="85.72" width="4.12" height="12.10" fill="#A9B2BD"/><rect x="141.25" y="85.72" width="4.12" height="12.10" fill="#A9B2BD"/><rect x="153.62" y="85.72" width="4.12" height="12.10" fill="#A9B2BD"/><rect x="166.00" y="85.72" width="4.12" height="12.10" fill="#A9B2BD"/><rect x="178.38" y="85.72" width="4.12" height="12.10" fill="#A9B2BD"/><rect x="190.75" y="85.72" width="4.12" height="12.10" fill="#A9B2BD"/><rect x="203.12" y="85.72" width="4.12" height="12.10" fill="#A9B2BD"/><rect x="5.12" y="97.83" width="4.12" height="12.10" fill="#A9B2BD"/><rect x="17.50" y="97.83" width="4.12" height="12.10" fill="#A9B2BD"/><rect x="29.88" y="97.83" width="4.12" height="12.10" fill="#A9B2BD"/><rect x="42.25" y="97.83" width="4.12" height="12.10" fill="#A9B2BD"/><rect x="54.62" y="97.83" width="4.12" height="12.10" fill="#A9B2BD"/><rect x="67.00" y="97.83" width="4.12" height="12.10" fill="#A9B2BD"/><rect x="79.38" y="97.83" width="4.12" height="12.10" fill="#A9B2BD"/><rect x="91.75" y="97.83" width="4.12" height="12.10" fill="#A9B2BD"/><rect x="104.12" y="97.83" width="4.12" height="12.10" fill="#A9B2BD"/><rect x="116.50" y="97.83" width="4.12" height="12.10" fill="#A9B2BD"/><rect x="128.88" y="97.83" width="4.12" height="12.10" fill="#A9B2BD"/><rect x="141.25" y="97.83" width="4.12" height="12.10" fill="#A9B2BD"/><rect x="153.62" y="97.83" width="4.12" height="12.10" fill="#A9B2BD"/><rect x="166.00" y="97.83" width="4.12" height="12.10" fill="#A9B2BD"/><rect x="178.38" y="97.83" width="4.12" height="12.10" fill="#A9B2BD"/><rect x="190.75" y="97.83" width="4.12" height="12.10" fill="#A9B2BD"/><rect x="203.12" y="97.83" width="4.12" height="12.10" fill="#A9B2BD"/><rect x="5.12" y="109.93" width="4.12" height="12.10" fill="#A9B2BD"/><rect x="17.50" y="109.93" width="4.12" height="12.10" fill="#A9B2BD"/><rect x="29.88" y="109.93" width="4.12" height="12.10" fill="#A9B2BD"/><rect x="42.25" y="109.93" width="4.12" height="12.10" fill="#A9B2BD"/><rect x="54.62" y="109.93" width="4.12" height="12.10" fill="#A9B2BD"/><rect x="67.00" y="109.93" width="4.12" height="12.10" fill="#A9B2BD"/><rect x="79.38" y="109.93" width="4.12" height="12.10" fill="#A9B2BD"/><rect x="91.75" y="109.93" width="4.12" height="12.10" fill="#A9B2BD"/><rect x="104.12" y="109.93" width="4.12" height="12.10" fill="#A9B2BD"/><rect x="116.50" y="109.93" width="4.12" height="12.10" fill="#A9B2BD"/><rect x="128.88" y="109.93" width="4.12" height="12.10" fill="#A9B2BD"/><rect x="141.25" y="109.93" width="4.12" height="12.10" fill="#A9B2BD"/><rect x="153.62" y="109.93" width="4.12" height="12.10" fill="#A9B2BD"/><rect x="166.00" y="109.93" width="4.12" height="12.10" fill="#A9B2BD"/><rect x="178.38" y="109.93" width="4.12" height="12.10" fill="#A9B2BD"/><rect x="190.75" y="109.93" width="4.12" height="12.10" fill="#A9B2BD"/><rect x="203.12" y="109.93" width="4.12" height="12.10" fill="#A9B2BD"/><rect x="5.12" y="122.03" width="4.12" height="12.10" fill="#A9B2BD"/><rect x="17.50" y="122.03" width="4.12" height="12.10" fill="#A9B2BD"/><rect x="29.88" y="122.03" width="4.12" height="12.10" fill="#A9B2BD"/><rect x="42.25" y="122.03" width="4.12" height="12.10" fill="#A9B2BD"/><rect x="54.62" y="122.03" width="4.12" height="12.10" fill="#A9B2BD"/><rect x="67.00" y="122.03" width="4.12" height="12.10" fill="#A9B2BD"/><rect x="79.38" y="122.03" width="4.12" height="12.10" fill="#A9B2BD"/><rect x="91.75" y="122.03" width="4.12" height="12.10" fill="#A9B2BD"/><rect x="104.12" y="122.03" width="4.12" height="12.10" fill="#A9B2BD"/><rect x="116.50" y="122.03" width="4.12" height="12.10" fill="#A9B2BD"/><rect x="128.88" y="122.03" width="4.12" height="12.10" fill="#A9B2BD"/><rect x="141.25" y="122.03" width="4.12" height="12.10" fill="#A9B2BD"/><rect x="153.62" y="122.03" width="4.12" height="12.10" fill="#A9B2BD"/><rect x="166.00" y="122.03" width="4.12" height="12.10" fill="#A9B2BD"/><rect x="178.38" y="122.03" width="4.12" height="12.10" fill="#A9B2BD"/><rect x="190.75" y="122.03" width="4.12" height="12.10" fill="#A9B2BD"/><rect x="203.12" y="122.03" width="4.12" height="12.10" fill="#A9B2BD"/><rect x="5.12" y="134.14" width="4.12" height="12.10" fill="#A9B2BD"/><rect x="17.50" y="134.14" width="4.12" height="12.10" fill="#A9B2BD"/><rect x="29.88" y="134.14" width="4.12" height="12.10" fill="#A9B2BD"/><rect x="42.25" y="134.14" width="4.12" height="12.10" fill="#A9B2BD"/><rect x="54.62" y="134.14" width="4.12" height="12.10" fill="#A9B2BD"/><rect x="67.00" y="134.14" width="4.12" height="12.10" fill="#A9B2BD"/><rect x="79.38" y="134.14" width="4.12" height="12.10" fill="#A9B2BD"/><rect x="91.75" y="134.14" width="4.12" height="12.10" fill="#A9B2BD"/><rect x="104.12" y="134.14" width="4.12" height="12.10" fill="#A9B2BD"/><rect x="116.50" y="134.14" width="4.12" height="12.10" fill="#A9B2BD"/><rect x="128.88" y="134.14" width="4.12" height="12.10" fill="#A9B2BD"/><rect x="141.25" y="134.14" width="4.12" height="12.10" fill="#A9B2BD"/><rect x="153.62" y="134.14" width="4.12" height="12.10" fill="#A9B2BD"/><rect x="166.00" y="134.14" width="4.12" height="12.10" fill="#A9B2BD"/><rect x="178.38" y="134.14" width="4.12" height="12.10" fill="#A9B2BD"/><rect x="190.75" y="134.14" width="4.12" height="12.10" fill="#A9B2BD"/><rect x="203.12" y="134.14" width="4.12" height="12.10" fill="#A9B2BD"/><rect x="5.12" y="146.24" width="4.12" height="12.10" fill="#A9B2BD"/><rect x="17.50" y="146.24" width="4.12" height="12.10" fill="#A9B2BD"/><rect x="29.88" y="146.24" width="4.12" height="12.10" fill="#A9B2BD"/><rect x="42.25" y="146.24" width="4.12" height="12.10" fill="#A9B2BD"/><rect x="54.62" y="146.24" width="4.12" height="12.10" fill="#A9B2BD"/><rect x="67.00" y="146.24" width="4.12" height="12.10" fill="#A9B2BD"/><rect x="79.38" y="146.24" width="4.12" height="12.10" fill="#A9B2BD"/><rect x="91.75" y="146.24" width="4.12" height="12.10" fill="#A9B2BD"/><rect x="104.12" y="146.24" width="4.12" height="12.10" fill="#A9B2BD"/><rect x="116.50" y="146.24" width="4.12" height="12.10" fill="#A9B2BD"/><rect x="128.88" y="146.24" width="4.12" height="12.10" fill="#A9B2BD"/><rect x="141.25" y="146.24" width="4.12" height="12.10" fill="#A9B2BD"/><rect x="153.62" y="146.24" width="4.12" height="12.10" fill="#A9B2BD"/><rect x="166.00" y="146.24" width="4.12" height="12.10" fill="#A9B2BD"/><rect x="178.38" y="146.24" width="4.12" height="12.10" fill="#A9B2BD"/><rect x="190.75" y="146.24" width="4.12" height="12.10" fill="#A9B2BD"/><rect x="203.12" y="146.24" width="4.12" height="12.10" fill="#A9B2BD"/><rect x="5.12" y="158.34" width="4.12" height="12.10" fill="#A9B2BD"/><rect x="17.50" y="158.34" width="4.12" height="12.10" fill="#A9B2BD"/><rect x="29.88" y="158.34" width="4.12" height="12.10" fill="#A9B2BD"/><rect x="42.25" y="158.34" width="4.12" height="12.10" fill="#A9B2BD"/><rect x="54.62" y="158.34" width="4.12" height="12.10" fill="#A9B2BD"/><rect x="67.00" y="158.34" width="4.12" height="12.10" fill="#A9B2BD"/><rect x="79.38" y="158.34" width="4.12" height="12.10" fill="#A9B2BD"/><rect x="91.75" y="158.34" width="4.12" height="12.10" fill="#A9B2BD"/><rect x="104.12" y="158.34" width="4.12" height="12.10" fill="#A9B2BD"/><rect x="116.50" y="158.34" width="4.12" height="12.10" fill="#A9B2BD"/><rect x="128.88" y="158.34" width="4.12" height="12.10" fill="#A9B2BD"/><rect x="141.25" y="158.34" width="4.12" height="12.10" fill="#A9B2BD"/><rect x="153.62" y="158.34" width="4.12" height="12.10" fill="#A9B2BD"/><rect x="166.00" y="158.34" width="4.12" height="12.10" fill="#A9B2BD"/><rect x="178.38" y="158.34" width="4.12" height="12.10" fill="#A9B2BD"/><rect x="190.75" y="158.34" width="4.12" height="12.10" fill="#A9B2BD"/><rect x="203.12" y="158.34" width="4.12" height="12.10" fill="#A9B2BD"/><rect x="5.12" y="170.45" width="4.12" height="12.10" fill="#A9B2BD"/><rect x="17.50" y="170.45" width="4.12" height="12.10" fill="#A9B2BD"/><rect x="29.88" y="170.45" width="4.12" height="12.10" fill="#A9B2BD"/><rect x="42.25" y="170.45" width="4.12" height="12.10" fill="#A9B2BD"/><rect x="54.62" y="170.45" width="4.12" height="12.10" fill="#A9B2BD"/><rect x="67.00" y="170.45" width="4.12" height="12.10" fill="#A9B2BD"/><rect x="79.38" y="170.45" width="4.12" height="12.10" fill="#A9B2BD"/><rect x="91.75" y="170.45" width="4.12" height="12.10" fill="#A9B2BD"/><rect x="104.12" y="170.45" width="4.12" height="12.10" fill="#A9B2BD"/><rect x="116.50" y="170.45" width="4.12" height="12.10" fill="#A9B2BD"/><rect x="128.88" y="170.45" width="4.12" height="12.10" fill="#A9B2BD"/><rect x="141.25" y="170.45" width="4.12" height="12.10" fill="#A9B2BD"/><rect x="153.62" y="170.45" width="4.12" height="12.10" fill="#A9B2BD"/><rect x="166.00" y="170.45" width="4.12" height="12.10" fill="#A9B2BD"/><rect x="178.38" y="170.45" width="4.12" height="12.10" fill="#A9B2BD"/><rect x="190.75" y="170.45" width="4.12" height="12.10" fill="#A9B2BD"/><rect x="203.12" y="170.45" width="4.12" height="12.10" fill="#A9B2BD"/><rect x="5.12" y="182.55" width="4.12" height="12.10" fill="#A9B2BD"/><rect x="17.50" y="182.55" width="4.12" height="12.10" fill="#A9B2BD"/><rect x="29.88" y="182.55" width="4.12" height="12.10" fill="#A9B2BD"/><rect x="42.25" y="182.55" width="4.12" height="12.10" fill="#A9B2BD"/><rect x="54.62" y="182.55" width="4.12" height="12.10" fill="#A9B2BD"/><rect x="67.00" y="182.55" width="4.12" height="12.10" fill="#A9B2BD"/><rect x="79.38" y="182.55" width="4.12" height="12.10" fill="#A9B2BD"/><rect x="91.75" y="182.55" width="4.12" height="12.10" fill="#A9B2BD"/><rect x="104.12" y="182.55" width="4.12" height="12.10" fill="#A9B2BD"/><rect x="116.50" y="182.55" width="4.12" height="12.10" fill="#A9B2BD"/><rect x="128.88" y="182.55" width="4.12" height="12.10" fill="#A9B2BD"/><rect x="141.25" y="182.55" width="4.12" height="12.10" fill="#A9B2BD"/><rect x="153.62" y="182.55" width="4.12" height="12.10" fill="#A9B2BD"/><rect x="166.00" y="182.55" width="4.12" height="12.10" fill="#A9B2BD"/><rect x="178.38" y="182.55" width="4.12" height="12.10" fill="#A9B2BD"/><rect x="190.75" y="182.55" width="4.12" height="12.10" fill="#A9B2BD"/><rect x="203.12" y="182.55" width="4.12" height="12.10" fill="#A9B2BD"/><rect x="5.12" y="194.66" width="4.12" height="12.10" fill="#A9B2BD"/><rect x="17.50" y="194.66" width="4.12" height="12.10" fill="#A9B2BD"/><rect x="29.88" y="194.66" width="4.12" height="12.10" fill="#A9B2BD"/><rect x="42.25" y="194.66" width="4.12" height="12.10" fill="#A9B2BD"/><rect x="54.62" y="194.66" width="4.12" height="12.10" fill="#A9B2BD"/><rect x="67.00" y="194.66" width="4.12" height="12.10" fill="#A9B2BD"/><rect x="79.38" y="194.66" width="4.12" height="12.10" fill="#A9B2BD"/><rect x="91.75" y="194.66" width="4.12" height="12.10" fill="#A9B2BD"/><rect x="104.12" y="194.66" width="4.12" height="12.10" fill="#A9B2BD"/><rect x="116.50" y="194.66" width="4.12" height="12.10" fill="#A9B2BD"/><rect x="128.88" y="194.66" width="4.12" height="12.10" fill="#A9B2BD"/><rect x="141.25" y="194.66" width="4.12" height="12.10" fill="#A9B2BD"/><rect x="153.62" y="194.66" width="4.12" height="12.10" fill="#A9B2BD"/><rect x="166.00" y="194.66" width="4.12" height="12.10" fill="#A9B2BD"/><rect x="178.38" y="194.66" width="4.12" height="12.10" fill="#A9B2BD"/><rect x="190.75" y="194.66" width="4.12" height="12.10" fill="#A9B2BD"/><rect x="203.12" y="194.66" width="4.12" height="12.10" fill="#A9B2BD"/><rect x="5.12" y="206.76" width="4.12" height="12.10" fill="#A9B2BD"/><rect x="17.50" y="206.76" width="4.12" height="12.10" fill="#A9B2BD"/><rect x="29.88" y="206.76" width="4.12" height="12.10" fill="#A9B2BD"/><rect x="42.25" y="206.76" width="4.12" height="12.10" fill="#A9B2BD"/><rect x="54.62" y="206.76" width="4.12" height="12.10" fill="#A9B2BD"/><rect x="67.00" y="206.76" width="4.12" height="12.10" fill="#A9B2BD"/><rect x="79.38" y="206.76" width="4.12" height="12.10" fill="#A9B2BD"/><rect x="91.75" y="206.76" width="4.12" height="12.10" fill="#A9B2BD"/><rect x="104.12" y="206.76" width="4.12" height="12.10" fill="#A9B2BD"/><rect x="116.50" y="206.76" width="4.12" height="12.10" fill="#A9B2BD"/><rect x="128.88" y="206.76" width="4.12" height="12.10" fill="#A9B2BD"/><rect x="141.25" y="206.76" width="4.12" height="12.10" fill="#A9B2BD"/><rect x="153.62" y="206.76" width="4.12" height="12.10" fill="#A9B2BD"/><rect x="166.00" y="206.76" width="4.12" height="12.10" fill="#A9B2BD"/><rect x="178.38" y="206.76" width="4.12" height="12.10" fill="#A9B2BD"/><rect x="190.75" y="206.76" width="4.12" height="12.10" fill="#A9B2BD"/><rect x="203.12" y="206.76" width="4.12" height="12.10" fill="#A9B2BD"/><rect x="5.12" y="218.86" width="4.12" height="12.10" fill="#A9B2BD"/><rect x="17.50" y="218.86" width="4.12" height="12.10" fill="#A9B2BD"/><rect x="29.88" y="218.86" width="4.12" height="12.10" fill="#A9B2BD"/><rect x="42.25" y="218.86" width="4.12" height="12.10" fill="#A9B2BD"/><rect x="54.62" y="218.86" width="4.12" height="12.10" fill="#A9B2BD"/><rect x="67.00" y="218.86" width="4.12" height="12.10" fill="#A9B2BD"/><rect x="79.38" y="218.86" width="4.12" height="12.10" fill="#A9B2BD"/><rect x="91.75" y="218.86" width="4.12" height="12.10" fill="#A9B2BD"/><rect x="104.12" y="218.86" width="4.12" height="12.10" fill="#A9B2BD"/><rect x="116.50" y="218.86" width="4.12" height="12.10" fill="#A9B2BD"/><rect x="128.88" y="218.86" width="4.12" height="12.10" fill="#A9B2BD"/><rect x="141.25" y="218.86" width="4.12" height="12.10" fill="#A9B2BD"/><rect x="153.62" y="218.86" width="4.12" height="12.10" fill="#A9B2BD"/><rect x="166.00" y="218.86" width="4.12" height="12.10" fill="#A9B2BD"/><rect x="178.38" y="218.86" width="4.12" height="12.10" fill="#A9B2BD"/><rect x="190.75" y="218.86" width="4.12" height="12.10" fill="#A9B2BD"/><rect x="203.12" y="218.86" width="4.12" height="12.10" fill="#A9B2BD"/><rect x="5.12" y="230.97" width="4.12" height="12.10" fill="#A9B2BD"/><rect x="17.50" y="230.97" width="4.12" height="12.10" fill="#A9B2BD"/><rect x="29.88" y="230.97" width="4.12" height="12.10" fill="#A9B2BD"/><rect x="42.25" y="230.97" width="4.12" height="12.10" fill="#A9B2BD"/><rect x="54.62" y="230.97" width="4.12" height="12.10" fill="#A9B2BD"/><rect x="67.00" y="230.97" width="4.12" height="12.10" fill="#A9B2BD"/><rect x="79.38" y="230.97" width="4.12" height="12.10" fill="#A9B2BD"/><rect x="91.75" y="230.97" width="4.12" height="12.10" fill="#A9B2BD"/><rect x="104.12" y="230.97" width="4.12" height="12.10" fill="#A9B2BD"/><rect x="116.50" y="230.97" width="4.12" height="12.10" fill="#A9B2BD"/><rect x="128.88" y="230.97" width="4.12" height="12.10" fill="#A9B2BD"/><rect x="141.25" y="230.97" width="4.12" height="12.10" fill="#A9B2BD"/><rect x="153.62" y="230.97" width="4.12" height="12.10" fill="#A9B2BD"/><rect x="166.00" y="230.97" width="4.12" height="12.10" fill="#A9B2BD"/><rect x="178.38" y="230.97" width="4.12" height="12.10" fill="#A9B2BD"/><rect x="190.75" y="230.97" width="4.12" height="12.10" fill="#A9B2BD"/><rect x="203.12" y="230.97" width="4.12" height="12.10" fill="#A9B2BD"/><rect x="5.12" y="243.07" width="4.12" height="12.10" fill="#A9B2BD"/><rect x="17.50" y="243.07" width="4.12" height="12.10" fill="#A9B2BD"/><rect x="29.88" y="243.07" width="4.12" height="12.10" fill="#A9B2BD"/><rect x="42.25" y="243.07" width="4.12" height="12.10" fill="#A9B2BD"/><rect x="54.62" y="243.07" width="4.12" height="12.10" fill="#A9B2BD"/><rect x="67.00" y="243.07" width="4.12" height="12.10" fill="#A9B2BD"/><rect x="79.38" y="243.07" width="4.12" height="12.10" fill="#A9B2BD"/><rect x="91.75" y="243.07" width="4.12" height="12.10" fill="#A9B2BD"/><rect x="104.12" y="243.07" width="4.12" height="12.10" fill="#A9B2BD"/><rect x="116.50" y="243.07" width="4.12" height="12.10" fill="#A9B2BD"/><rect x="128.88" y="243.07" width="4.12" height="12.10" fill="#A9B2BD"/><rect x="141.25" y="243.07" width="4.12" height="12.10" fill="#A9B2BD"/><rect x="153.62" y="243.07" width="4.12" height="12.10" fill="#A9B2BD"/><rect x="166.00" y="243.07" width="4.12" height="12.10" fill="#A9B2BD"/><rect x="178.38" y="243.07" width="4.12" height="12.10" fill="#A9B2BD"/><rect x="190.75" y="243.07" width="4.12" height="12.10" fill="#A9B2BD"/><rect x="203.12" y="243.07" width="4.12" height="12.10" fill="#A9B2BD"/><rect x="5.12" y="255.17" width="4.12" height="12.10" fill="#A9B2BD"/><rect x="17.50" y="255.17" width="4.12" height="12.10" fill="#A9B2BD"/><rect x="29.88" y="255.17" width="4.12" height="12.10" fill="#A9B2BD"/><rect x="42.25" y="255.17" width="4.12" height="12.10" fill="#A9B2BD"/><rect x="54.62" y="255.17" width="4.12" height="12.10" fill="#A9B2BD"/><rect x="67.00" y="255.17" width="4.12" height="12.10" fill="#A9B2BD"/><rect x="79.38" y="255.17" width="4.12" height="12.10" fill="#A9B2BD"/><rect x="91.75" y="255.17" width="4.12" height="12.10" fill="#A9B2BD"/><rect x="104.12" y="255.17" width="4.12" height="12.10" fill="#A9B2BD"/><rect x="116.50" y="255.17" width="4.12" height="12.10" fill="#A9B2BD"/><rect x="128.88" y="255.17" width="4.12" height="12.10" fill="#A9B2BD"/><rect x="141.25" y="255.17" width="4.12" height="12.10" fill="#A9B2BD"/><rect x="153.62" y="255.17" width="4.12" height="12.10" fill="#A9B2BD"/><rect x="166.00" y="255.17" width="4.12" height="12.10" fill="#A9B2BD"/><rect x="178.38" y="255.17" width="4.12" height="12.10" fill="#A9B2BD"/><rect x="190.75" y="255.17" width="4.12" height="12.10" fill="#A9B2BD"/><rect x="203.12" y="255.17" width="4.12" height="12.10" fill="#A9B2BD"/><rect x="5.12" y="267.28" width="4.12" height="12.10" fill="#A9B2BD"/><rect x="17.50" y="267.28" width="4.12" height="12.10" fill="#A9B2BD"/><rect x="29.88" y="267.28" width="4.12" height="12.10" fill="#A9B2BD"/><rect x="42.25" y="267.28" width="4.12" height="12.10" fill="#A9B2BD"/><rect x="54.62" y="267.28" width="4.12" height="12.10" fill="#A9B2BD"/><rect x="67.00" y="267.28" width="4.12" height="12.10" fill="#A9B2BD"/><rect x="79.38" y="267.28" width="4.12" height="12.10" fill="#A9B2BD"/><rect x="91.75" y="267.28" width="4.12" height="12.10" fill="#A9B2BD"/><rect x="104.12" y="267.28" width="4.12" height="12.10" fill="#A9B2BD"/><rect x="116.50" y="267.28" width="4.12" height="12.10" fill="#A9B2BD"/><rect x="128.88" y="267.28" width="4.12" height="12.10" fill="#A9B2BD"/><rect x="141.25" y="267.28" width="4.12" height="12.10" fill="#A9B2BD"/><rect x="153.62" y="267.28" width="4.12" height="12.10" fill="#A9B2BD"/><rect x="166.00" y="267.28" width="4.12" height="12.10" fill="#A9B2BD"/><rect x="178.38" y="267.28" width="4.12" height="12.10" fill="#A9B2BD"/><rect x="190.75" y="267.28" width="4.12" height="12.10" fill="#A9B2BD"/><rect x="203.12" y="267.28" width="4.12" height="12.10" fill="#A9B2BD"/><rect x="5.12" y="279.38" width="4.12" height="12.10" fill="#A9B2BD"/><rect x="17.50" y="279.38" width="4.12" height="12.10" fill="#A9B2BD"/><rect x="29.88" y="279.38" width="4.12" height="12.10" fill="#A9B2BD"/><rect x="42.25" y="279.38" width="4.12" height="12.10" fill="#A9B2BD"/><rect x="54.62" y="279.38" width="4.12" height="12.10" fill="#A9B2BD"/><rect x="67.00" y="279.38" width="4.12" height="12.10" fill="#A9B2BD"/><rect x="79.38" y="279.38" width="4.12" height="12.10" fill="#A9B2BD"/><rect x="91.75" y="279.38" width="4.12" height="12.10" fill="#A9B2BD"/><rect x="104.12" y="279.38" width="4.12" height="12.10" fill="#A9B2BD"/><rect x="116.50" y="279.38" width="4.12" height="12.10" fill="#A9B2BD"/><rect x="128.88" y="279.38" width="4.12" height="12.10" fill="#A9B2BD"/><rect x="141.25" y="279.38" width="4.12" height="12.10" fill="#A9B2BD"/><rect x="153.62" y="279.38" width="4.12" height="12.10" fill="#A9B2BD"/><rect x="166.00" y="279.38" width="4.12" height="12.10" fill="#A9B2BD"/><rect x="178.38" y="279.38" width="4.12" height="12.10" fill="#A9B2BD"/><rect x="190.75" y="279.38" width="4.12" height="12.10" fill="#A9B2BD"/><rect x="203.12" y="279.38" width="4.12" height="12.10" fill="#A9B2BD"/><rect x="5.12" y="291.48" width="4.12" height="12.10" fill="#A9B2BD"/><rect x="17.50" y="291.48" width="4.12" height="12.10" fill="#A9B2BD"/><rect x="29.88" y="291.48" width="4.12" height="12.10" fill="#A9B2BD"/><rect x="42.25" y="291.48" width="4.12" height="12.10" fill="#A9B2BD"/><rect x="54.62" y="291.48" width="4.12" height="12.10" fill="#A9B2BD"/><rect x="67.00" y="291.48" width="4.12" height="12.10" fill="#A9B2BD"/><rect x="79.38" y="291.48" width="4.12" height="12.10" fill="#A9B2BD"/><rect x="91.75" y="291.48" width="4.12" height="12.10" fill="#A9B2BD"/><rect x="104.12" y="291.48" width="4.12" height="12.10" fill="#A9B2BD"/><rect x="116.50" y="291.48" width="4.12" height="12.10" fill="#A9B2BD"/><rect x="128.88" y="291.48" width="4.12" height="12.10" fill="#A9B2BD"/><rect x="141.25" y="291.48" width="4.12" height="12.10" fill="#A9B2BD"/><rect x="153.62" y="291.48" width="4.12" height="12.10" fill="#A9B2BD"/><rect x="166.00" y="291.48" width="4.12" height="12.10" fill="#A9B2BD"/><rect x="178.38" y="291.48" width="4.12" height="12.10" fill="#A9B2BD"/><rect x="190.75" y="291.48" width="4.12" height="12.10" fill="#A9B2BD"/><rect x="203.12" y="291.48" width="4.12" height="12.10" fill="#A9B2BD"/><rect x="5.12" y="303.59" width="4.12" height="12.10" fill="#A9B2BD"/><rect x="17.50" y="303.59" width="4.12" height="12.10" fill="#A9B2BD"/><rect x="29.88" y="303.59" width="4.12" height="12.10" fill="#A9B2BD"/><rect x="42.25" y="303.59" width="4.12" height="12.10" fill="#A9B2BD"/><rect x="54.62" y="303.59" width="4.12" height="12.10" fill="#A9B2BD"/><rect x="67.00" y="303.59" width="4.12" height="12.10" fill="#A9B2BD"/><rect x="79.38" y="303.59" width="4.12" height="12.10" fill="#A9B2BD"/><rect x="91.75" y="303.59" width="4.12" height="12.10" fill="#A9B2BD"/><rect x="104.12" y="303.59" width="4.12" height="12.10" fill="#A9B2BD"/><rect x="116.50" y="303.59" width="4.12" height="12.10" fill="#A9B2BD"/><rect x="128.88" y="303.59" width="4.12" height="12.10" fill="#A9B2BD"/><rect x="141.25" y="303.59" width="4.12" height="12.10" fill="#A9B2BD"/><rect x="153.62" y="303.59" width="4.12" height="12.10" fill="#A9B2BD"/><rect x="166.00" y="303.59" width="4.12" height="12.10" fill="#A9B2BD"/><rect x="178.38" y="303.59" width="4.12" height="12.10" fill="#A9B2BD"/><rect x="190.75" y="303.59" width="4.12" height="12.10" fill="#A9B2BD"/><rect x="203.12" y="303.59" width="4.12" height="12.10" fill="#A9B2BD"/><rect x="5.12" y="315.69" width="4.12" height="12.10" fill="#A9B2BD"/><rect x="17.50" y="315.69" width="4.12" height="12.10" fill="#A9B2BD"/><rect x="29.88" y="315.69" width="4.12" height="12.10" fill="#A9B2BD"/><rect x="42.25" y="315.69" width="4.12" height="12.10" fill="#A9B2BD"/><rect x="54.62" y="315.69" width="4.12" height="12.10" fill="#A9B2BD"/><rect x="67.00" y="315.69" width="4.12" height="12.10" fill="#A9B2BD"/><rect x="79.38" y="315.69" width="4.12" height="12.10" fill="#A9B2BD"/><rect x="91.75" y="315.69" width="4.12" height="12.10" fill="#A9B2BD"/><rect x="104.12" y="315.69" width="4.12" height="12.10" fill="#A9B2BD"/><rect x="116.50" y="315.69" width="4.12" height="12.10" fill="#A9B2BD"/><rect x="128.88" y="315.69" width="4.12" height="12.10" fill="#A9B2BD"/><rect x="141.25" y="315.69" width="4.12" height="12.10" fill="#A9B2BD"/><rect x="153.62" y="315.69" width="4.12" height="12.10" fill="#A9B2BD"/><rect x="166.00" y="315.69" width="4.12" height="12.10" fill="#A9B2BD"/><rect x="178.38" y="315.69" width="4.12" height="12.10" fill="#A9B2BD"/><rect x="190.75" y="315.69" width="4.12" height="12.10" fill="#A9B2BD"/><rect x="203.12" y="315.69" width="4.12" height="12.10" fill="#A9B2BD"/><rect x="5.12" y="327.79" width="4.12" height="12.10" fill="#A9B2BD"/><rect x="17.50" y="327.79" width="4.12" height="12.10" fill="#A9B2BD"/><rect x="29.88" y="327.79" width="4.12" height="12.10" fill="#A9B2BD"/><rect x="42.25" y="327.79" width="4.12" height="12.10" fill="#A9B2BD"/><rect x="54.62" y="327.79" width="4.12" height="12.10" fill="#A9B2BD"/><rect x="67.00" y="327.79" width="4.12" height="12.10" fill="#A9B2BD"/><rect x="79.38" y="327.79" width="4.12" height="12.10" fill="#A9B2BD"/><rect x="91.75" y="327.79" width="4.12" height="12.10" fill="#A9B2BD"/><rect x="104.12" y="327.79" width="4.12" height="12.10" fill="#A9B2BD"/><rect x="116.50" y="327.79" width="4.12" height="12.10" fill="#A9B2BD"/><rect x="128.88" y="327.79" width="4.12" height="12.10" fill="#A9B2BD"/><rect x="141.25" y="327.79" width="4.12" height="12.10" fill="#A9B2BD"/><rect x="153.62" y="327.79" width="4.12" height="12.10" fill="#A9B2BD"/><rect x="166.00" y="327.79" width="4.12" height="12.10" fill="#A9B2BD"/><rect x="178.38" y="327.79" width="4.12" height="12.10" fill="#A9B2BD"/><rect x="190.75" y="327.79" width="4.12" height="12.10" fill="#A9B2BD"/><rect x="203.12" y="327.79" width="4.12" height="12.10" fill="#A9B2BD"/><rect x="5.12" y="339.90" width="4.12" height="12.10" fill="#A9B2BD"/><rect x="17.50" y="339.90" width="4.12" height="12.10" fill="#A9B2BD"/><rect x="29.88" y="339.90" width="4.12" height="12.10" fill="#A9B2BD"/><rect x="42.25" y="339.90" width="4.12" height="12.10" fill="#A9B2BD"/><rect x="54.62" y="339.90" width="4.12" height="12.10" fill="#A9B2BD"/><rect x="67.00" y="339.90" width="4.12" height="12.10" fill="#A9B2BD"/><rect x="79.38" y="339.90" width="4.12" height="12.10" fill="#A9B2BD"/><rect x="91.75" y="339.90" width="4.12" height="12.10" fill="#A9B2BD"/><rect x="104.12" y="339.90" width="4.12" height="12.10" fill="#A9B2BD"/><rect x="116.50" y="339.90" width="4.12" height="12.10" fill="#A9B2BD"/><rect x="128.88" y="339.90" width="4.12" height="12.10" fill="#A9B2BD"/><rect x="141.25" y="339.90" width="4.12" height="12.10" fill="#A9B2BD"/><rect x="153.62" y="339.90" width="4.12" height="12.10" fill="#A9B2BD"/><rect x="166.00" y="339.90" width="4.12" height="12.10" fill="#A9B2BD"/><rect x="178.38" y="339.90" width="4.12" height="12.10" fill="#A9B2BD"/><rect x="190.75" y="339.90" width="4.12" height="12.10" fill="#A9B2BD"/><rect x="203.12" y="339.90" width="4.12" height="12.10" fill="#A9B2BD"/><rect x="5.12" y="352.00" width="4.12" height="12.10" fill="#A9B2BD"/><rect x="17.50" y="352.00" width="4.12" height="12.10" fill="#A9B2BD"/><rect x="29.88" y="352.00" width="4.12" height="12.10" fill="#A9B2BD"/><rect x="42.25" y="352.00" width="4.12" height="12.10" fill="#A9B2BD"/><rect x="54.62" y="352.00" width="4.12" height="12.10" fill="#A9B2BD"/><rect x="67.00" y="352.00" width="4.12" height="12.10" fill="#A9B2BD"/><rect x="79.38" y="352.00" width="4.12" height="12.10" fill="#A9B2BD"/><rect x="91.75" y="352.00" width="4.12" height="12.10" fill="#A9B2BD"/><rect x="104.12" y="352.00" width="4.12" height="12.10" fill="#A9B2BD"/><rect x="116.50" y="352.00" width="4.12" height="12.10" fill="#A9B2BD"/><rect x="128.88" y="352.00" width="4.12" height="12.10" fill="#A9B2BD"/><rect x="141.25" y="352.00" width="4.12" height="12.10" fill="#A9B2BD"/><rect x="153.62" y="352.00" width="4.12" height="12.10" fill="#A9B2BD"/><rect x="166.00" y="352.00" width="4.12" height="12.10" fill="#A9B2BD"/><rect x="178.38" y="352.00" width="4.12" height="12.10" fill="#A9B2BD"/><rect x="190.75" y="352.00" width="4.12" height="12.10" fill="#A9B2BD"/><rect x="203.12" y="352.00" width="4.12" height="12.10" fill="#A9B2BD"/>
  </g>
  <!-- outer stroke on top -->
  <rect x="1" y="1" width="208" height="361" rx="12" fill="none" stroke="#26211D"/>
  <!-- inner field -->
  <rect x="11" y="11" width="188" height="341" rx="7" fill="#0B0908"/>
  <rect x="11.5" y="11.5" width="187" height="340" rx="7" fill="none" stroke="#F4EEE2" stroke-opacity="0.12"/>
  <!-- numeral (overlay top, tracking ~6) -->
  <text x="105" y="46" text-anchor="middle" font-family="Georgia, 'Times New Roman', serif" font-size="17" letter-spacing="6" fill="#F4EEE2">XI</text>
  <!-- sigil -->
  <g>
    <line x1="105" y1="118" x2="105" y2="252" stroke="#F4EEE2" stroke-width="2.5" stroke-linecap="round"/>
    <line x1="53" y1="140" x2="157" y2="140" stroke="#A9B2BD" stroke-width="3" stroke-linecap="round"/>
    <line x1="53" y1="141" x2="53" y2="154" stroke="#A9B2BD" stroke-width="1.5" stroke-linecap="round"/>
    <line x1="157" y1="141" x2="157" y2="154" stroke="#A9B2BD" stroke-width="1.5" stroke-linecap="round"/>
    <circle cx="53" cy="161" r="6" fill="none" stroke="#A9B2BD" stroke-width="2" stroke-linecap="round"/>
    <circle cx="157" cy="161" r="6" fill="none" stroke="#A9B2BD" stroke-width="2" stroke-linecap="round"/>
  </g>
  <!-- printed title EN -->
  <text x="105" y="334" text-anchor="middle" font-family="system-ui, Helvetica, sans-serif" font-size="9.5" letter-spacing="3.5" fill="#8E877B">JUSTICE</text>
</svg>
