<svg class="arcana-svg" viewBox="0 0 210 363" xmlns="http://www.w3.org/2000/svg" role="img" aria-label="SEVEN OF CUPS">
  <rect x="1" y="1" width="208" height="361" rx="12" fill="#0B0908" stroke="#2E5BFF" stroke-opacity="0.35"/>
  <path d="M74.49,135.74 L96.84,135.74 A11.17,11.17 0 0 1 74.49,135.74 Z" fill="#2E5BFF"/><path d="M113.16,135.74 L135.51,135.74 A11.17,11.17 0 0 1 113.16,135.74 Z" fill="#2E5BFF"/><path d="M55.16,185.74 L77.51,185.74 A11.17,11.17 0 0 1 55.16,185.74 Z" fill="#2E5BFF"/><path d="M93.83,185.74 L116.17,185.74 A11.17,11.17 0 0 1 93.83,185.74 Z" fill="#2E5BFF"/><path d="M132.49,185.74 L154.84,185.74 A11.17,11.17 0 0 1 132.49,185.74 Z" fill="#2E5BFF"/><path d="M74.49,235.74 L96.84,235.74 A11.17,11.17 0 0 1 74.49,235.74 Z" fill="#2E5BFF"/><path d="M113.16,235.74 L135.51,235.74 A11.17,11.17 0 0 1 113.16,235.74 Z" fill="#2E5BFF"/>
  <text x="105" y="334" text-anchor="middle" font-family="system-ui, Helvetica, sans-serif" font-size="9.5" letter-spacing="3.5" fill="#8E877B">SEVEN OF CUPS</text>
</svg>
