<svg class="arcana-svg" viewBox="0 0 210 363" xmlns="http://www.w3.org/2000/svg" role="img" aria-label="SEVEN OF SWORDS">
  <rect x="1" y="1" width="208" height="361" rx="12" fill="#0B0908" stroke="#A9B2BD" stroke-opacity="0.35"/>
  <path d="M85.67,127.85 L90.14,141.0 L85.67,154.15 L81.2,141.0 Z" fill="#A9B2BD"/><path d="M124.33,127.85 L128.8,141.0 L124.33,154.15 L119.86,141.0 Z" fill="#A9B2BD"/><path d="M66.33,177.85 L70.8,191.0 L66.33,204.15 L61.86,191.0 Z" fill="#A9B2BD"/><path d="M105.0,177.85 L109.47,191.0 L105.0,204.15 L100.53,191.0 Z" fill="#A9B2BD"/><path d="M143.67,177.85 L148.14,191.0 L143.67,204.15 L139.2,191.0 Z" fill="#A9B2BD"/><path d="M85.67,227.85 L90.14,241.0 L85.67,254.15 L81.2,241.0 Z" fill="#A9B2BD"/><path d="M124.33,227.85 L128.8,241.0 L124.33,254.15 L119.86,241.0 Z" fill="#A9B2BD"/>
  <text x="105" y="334" text-anchor="middle" font-family="system-ui, Helvetica, sans-serif" font-size="9.5" letter-spacing="3.5" fill="#8E877B">SEVEN OF SWORDS</text>
</svg>
