<svg class="arcana-svg" viewBox="0 0 210 363" xmlns="http://www.w3.org/2000/svg" role="img" aria-label="TEN OF CUPS">
  <rect x="1" y="1" width="208" height="361" rx="12" fill="#0B0908" stroke="#2E5BFF" stroke-opacity="0.35"/>
  <path d="M67.62,137.06 L84.38,137.06 A8.38,8.38 0 0 1 67.62,137.06 Z" fill="#2E5BFF"/><path d="M96.62,137.06 L113.38,137.06 A8.38,8.38 0 0 1 96.62,137.06 Z" fill="#2E5BFF"/><path d="M125.62,137.06 L142.38,137.06 A8.38,8.38 0 0 1 125.62,137.06 Z" fill="#2E5BFF"/><path d="M53.12,187.06 L69.88,187.06 A8.38,8.38 0 0 1 53.12,187.06 Z" fill="#2E5BFF"/><path d="M82.12,187.06 L98.88,187.06 A8.38,8.38 0 0 1 82.12,187.06 Z" fill="#2E5BFF"/><path d="M111.12,187.06 L127.88,187.06 A8.38,8.38 0 0 1 111.12,187.06 Z" fill="#2E5BFF"/><path d="M140.12,187.06 L156.88,187.06 A8.38,8.38 0 0 1 140.12,187.06 Z" fill="#2E5BFF"/><path d="M67.62,237.06 L84.38,237.06 A8.38,8.38 0 0 1 67.62,237.06 Z" fill="#2E5BFF"/><path d="M96.62,237.06 L113.38,237.06 A8.38,8.38 0 0 1 96.62,237.06 Z" fill="#2E5BFF"/><path d="M125.62,237.06 L142.38,237.06 A8.38,8.38 0 0 1 125.62,237.06 Z" fill="#2E5BFF"/>
  <text x="105" y="334" text-anchor="middle" font-family="system-ui, Helvetica, sans-serif" font-size="9.5" letter-spacing="3.5" fill="#8E877B">TEN OF CUPS</text>
</svg>
