<svg class="arcana-svg" viewBox="0 0 210 363" xmlns="http://www.w3.org/2000/svg" role="img" aria-label="TEN OF WANDS">
  <rect x="1" y="1" width="208" height="361" rx="12" fill="#0B0908" stroke="#FF4B2E" stroke-opacity="0.35"/>
  <path d="M76.0,131.14 L83.1,147.9 L68.9,147.9 Z" fill="#FF4B2E"/><path d="M105.0,131.14 L112.1,147.9 L97.9,147.9 Z" fill="#FF4B2E"/><path d="M134.0,131.14 L141.1,147.9 L126.9,147.9 Z" fill="#FF4B2E"/><path d="M61.5,181.14 L68.6,197.9 L54.4,197.9 Z" fill="#FF4B2E"/><path d="M90.5,181.14 L97.6,197.9 L83.4,197.9 Z" fill="#FF4B2E"/><path d="M119.5,181.14 L126.6,197.9 L112.4,197.9 Z" fill="#FF4B2E"/><path d="M148.5,181.14 L155.6,197.9 L141.4,197.9 Z" fill="#FF4B2E"/><path d="M76.0,231.14 L83.1,247.9 L68.9,247.9 Z" fill="#FF4B2E"/><path d="M105.0,231.14 L112.1,247.9 L97.9,247.9 Z" fill="#FF4B2E"/><path d="M134.0,231.14 L141.1,247.9 L126.9,247.9 Z" fill="#FF4B2E"/>
  <text x="105" y="334" text-anchor="middle" font-family="system-ui, Helvetica, sans-serif" font-size="9.5" letter-spacing="3.5" fill="#8E877B">TEN OF WANDS</text>
</svg>
