<svg class="arcana-svg" viewBox="0 0 210 363" xmlns="http://www.w3.org/2000/svg" role="img" aria-label="TEN OF SWORDS">
  <rect x="1" y="1" width="208" height="361" rx="12" fill="#0B0908" stroke="#A9B2BD" stroke-opacity="0.35"/>
  <path d="M76.0,131.14 L79.35,141.0 L76.0,150.86 L72.65,141.0 Z" fill="#A9B2BD"/><path d="M105.0,131.14 L108.35,141.0 L105.0,150.86 L101.65,141.0 Z" fill="#A9B2BD"/><path d="M134.0,131.14 L137.35,141.0 L134.0,150.86 L130.65,141.0 Z" fill="#A9B2BD"/><path d="M61.5,181.14 L64.85,191.0 L61.5,200.86 L58.15,191.0 Z" fill="#A9B2BD"/><path d="M90.5,181.14 L93.85,191.0 L90.5,200.86 L87.15,191.0 Z" fill="#A9B2BD"/><path d="M119.5,181.14 L122.85,191.0 L119.5,200.86 L116.15,191.0 Z" fill="#A9B2BD"/><path d="M148.5,181.14 L151.85,191.0 L148.5,200.86 L145.15,191.0 Z" fill="#A9B2BD"/><path d="M76.0,231.14 L79.35,241.0 L76.0,250.86 L72.65,241.0 Z" fill="#A9B2BD"/><path d="M105.0,231.14 L108.35,241.0 L105.0,250.86 L101.65,241.0 Z" fill="#A9B2BD"/><path d="M134.0,231.14 L137.35,241.0 L134.0,250.86 L130.65,241.0 Z" fill="#A9B2BD"/>
  <text x="105" y="334" text-anchor="middle" font-family="system-ui, Helvetica, sans-serif" font-size="9.5" letter-spacing="3.5" fill="#8E877B">TEN OF SWORDS</text>
</svg>
