<svg class="arcana-svg" viewBox="0 0 210 363" xmlns="http://www.w3.org/2000/svg" role="img" aria-label="THE EMPRESS">
  <defs>
    <clipPath id="band-3" clipPathUnits="userSpaceOnUse">
      <path d="M1,1 h208 v361 h-208 z M11,11 h188 v341 h-188 z" clip-rule="evenodd" fill-rule="evenodd"/>
    </clipPath>
  </defs>
  <!-- ground -->
  <rect x="1" y="1" width="208" height="361" rx="12" fill="#0B0908" stroke="#26211D"/>
  <!-- border band (clipped) -->
  <g clip-path="url(#band-3)">
    <path d="M1.00,9.02 Q5.12,3.01 9.25,9.02 Q13.38,15.04 17.50,9.02" fill="none" stroke="#29A35C" stroke-width="2.01"/><path d="M17.50,9.02 Q21.62,3.01 25.75,9.02 Q29.88,15.04 34.00,9.02" fill="none" stroke="#29A35C" stroke-width="2.01"/><path d="M34.00,9.02 Q38.12,3.01 42.25,9.02 Q46.38,15.04 50.50,9.02" fill="none" stroke="#29A35C" stroke-width="2.01"/><path d="M50.50,9.02 Q54.62,3.01 58.75,9.02 Q62.88,15.04 67.00,9.02" fill="none" stroke="#29A35C" stroke-width="2.01"/><path d="M67.00,9.02 Q71.12,3.01 75.25,9.02 Q79.38,15.04 83.50,9.02" fill="none" stroke="#29A35C" stroke-width="2.01"/><path d="M83.50,9.02 Q87.62,3.01 91.75,9.02 Q95.88,15.04 100.00,9.02" fill="none" stroke="#29A35C" stroke-width="2.01"/><path d="M100.00,9.02 Q104.12,3.01 108.25,9.02 Q112.38,15.04 116.50,9.02" fill="none" stroke="#29A35C" stroke-width="2.01"/><path d="M116.50,9.02 Q120.62,3.01 124.75,9.02 Q128.88,15.04 133.00,9.02" fill="none" stroke="#29A35C" stroke-width="2.01"/><path d="M133.00,9.02 Q137.12,3.01 141.25,9.02 Q145.38,15.04 149.50,9.02" fill="none" stroke="#29A35C" stroke-width="2.01"/><path d="M149.50,9.02 Q153.62,3.01 157.75,9.02 Q161.88,15.04 166.00,9.02" fill="none" stroke="#29A35C" stroke-width="2.01"/><path d="M166.00,9.02 Q170.12,3.01 174.25,9.02 Q178.38,15.04 182.50,9.02" fill="none" stroke="#29A35C" stroke-width="2.01"/><path d="M182.50,9.02 Q186.62,3.01 190.75,9.02 Q194.88,15.04 199.00,9.02" fill="none" stroke="#29A35C" stroke-width="2.01"/><path d="M199.00,9.02 Q203.12,3.01 207.25,9.02 Q211.38,15.04 215.50,9.02" fill="none" stroke="#29A35C" stroke-width="2.01"/><path d="M1.00,23.06 Q5.12,17.05 9.25,23.06 Q13.38,29.08 17.50,23.06" fill="none" stroke="#29A35C" stroke-width="2.01"/><path d="M17.50,23.06 Q21.62,17.05 25.75,23.06 Q29.88,29.08 34.00,23.06" fill="none" stroke="#29A35C" stroke-width="2.01"/><path d="M34.00,23.06 Q38.12,17.05 42.25,23.06 Q46.38,29.08 50.50,23.06" fill="none" stroke="#29A35C" stroke-width="2.01"/><path d="M50.50,23.06 Q54.62,17.05 58.75,23.06 Q62.88,29.08 67.00,23.06" fill="none" stroke="#29A35C" stroke-width="2.01"/><path d="M67.00,23.06 Q71.12,17.05 75.25,23.06 Q79.38,29.08 83.50,23.06" fill="none" stroke="#29A35C" stroke-width="2.01"/><path d="M83.50,23.06 Q87.62,17.05 91.75,23.06 Q95.88,29.08 100.00,23.06" fill="none" stroke="#29A35C" stroke-width="2.01"/><path d="M100.00,23.06 Q104.12,17.05 108.25,23.06 Q112.38,29.08 116.50,23.06" fill="none" stroke="#29A35C" stroke-width="2.01"/><path d="M116.50,23.06 Q120.62,17.05 124.75,23.06 Q128.88,29.08 133.00,23.06" fill="none" stroke="#29A35C" stroke-width="2.01"/><path d="M133.00,23.06 Q137.12,17.05 141.25,23.06 Q145.38,29.08 149.50,23.06" fill="none" stroke="#29A35C" stroke-width="2.01"/><path d="M149.50,23.06 Q153.62,17.05 157.75,23.06 Q161.88,29.08 166.00,23.06" fill="none" stroke="#29A35C" stroke-width="2.01"/><path d="M166.00,23.06 Q170.12,17.05 174.25,23.06 Q178.38,29.08 182.50,23.06" fill="none" stroke="#29A35C" stroke-width="2.01"/><path d="M182.50,23.06 Q186.62,17.05 190.75,23.06 Q194.88,29.08 199.00,23.06" fill="none" stroke="#29A35C" stroke-width="2.01"/><path d="M199.00,23.06 Q203.12,17.05 207.25,23.06 Q211.38,29.08 215.50,23.06" fill="none" stroke="#29A35C" stroke-width="2.01"/><path d="M1.00,37.10 Q5.12,31.09 9.25,37.10 Q13.38,43.12 17.50,37.10" fill="none" stroke="#29A35C" stroke-width="2.01"/><path d="M17.50,37.10 Q21.62,31.09 25.75,37.10 Q29.88,43.12 34.00,37.10" fill="none" stroke="#29A35C" stroke-width="2.01"/><path d="M34.00,37.10 Q38.12,31.09 42.25,37.10 Q46.38,43.12 50.50,37.10" fill="none" stroke="#29A35C" stroke-width="2.01"/><path d="M50.50,37.10 Q54.62,31.09 58.75,37.10 Q62.88,43.12 67.00,37.10" fill="none" stroke="#29A35C" stroke-width="2.01"/><path d="M67.00,37.10 Q71.12,31.09 75.25,37.10 Q79.38,43.12 83.50,37.10" fill="none" stroke="#29A35C" stroke-width="2.01"/><path d="M83.50,37.10 Q87.62,31.09 91.75,37.10 Q95.88,43.12 100.00,37.10" fill="none" stroke="#29A35C" stroke-width="2.01"/><path d="M100.00,37.10 Q104.12,31.09 108.25,37.10 Q112.38,43.12 116.50,37.10" fill="none" stroke="#29A35C" stroke-width="2.01"/><path d="M116.50,37.10 Q120.62,31.09 124.75,37.10 Q128.88,43.12 133.00,37.10" fill="none" stroke="#29A35C" stroke-width="2.01"/><path d="M133.00,37.10 Q137.12,31.09 141.25,37.10 Q145.38,43.12 149.50,37.10" fill="none" stroke="#29A35C" stroke-width="2.01"/><path d="M149.50,37.10 Q153.62,31.09 157.75,37.10 Q161.88,43.12 166.00,37.10" fill="none" stroke="#29A35C" stroke-width="2.01"/><path d="M166.00,37.10 Q170.12,31.09 174.25,37.10 Q178.38,43.12 182.50,37.10" fill="none" stroke="#29A35C" stroke-width="2.01"/><path d="M182.50,37.10 Q186.62,31.09 190.75,37.10 Q194.88,43.12 199.00,37.10" fill="none" stroke="#29A35C" stroke-width="2.01"/><path d="M199.00,37.10 Q203.12,31.09 207.25,37.10 Q211.38,43.12 215.50,37.10" fill="none" stroke="#29A35C" stroke-width="2.01"/><path d="M1.00,51.14 Q5.12,45.13 9.25,51.14 Q13.38,57.16 17.50,51.14" fill="none" stroke="#29A35C" stroke-width="2.01"/><path d="M17.50,51.14 Q21.62,45.13 25.75,51.14 Q29.88,57.16 34.00,51.14" fill="none" stroke="#29A35C" stroke-width="2.01"/><path d="M34.00,51.14 Q38.12,45.13 42.25,51.14 Q46.38,57.16 50.50,51.14" fill="none" stroke="#29A35C" stroke-width="2.01"/><path d="M50.50,51.14 Q54.62,45.13 58.75,51.14 Q62.88,57.16 67.00,51.14" fill="none" stroke="#29A35C" stroke-width="2.01"/><path d="M67.00,51.14 Q71.12,45.13 75.25,51.14 Q79.38,57.16 83.50,51.14" fill="none" stroke="#29A35C" stroke-width="2.01"/><path d="M83.50,51.14 Q87.62,45.13 91.75,51.14 Q95.88,57.16 100.00,51.14" fill="none" stroke="#29A35C" stroke-width="2.01"/><path d="M100.00,51.14 Q104.12,45.13 108.25,51.14 Q112.38,57.16 116.50,51.14" fill="none" stroke="#29A35C" stroke-width="2.01"/><path d="M116.50,51.14 Q120.62,45.13 124.75,51.14 Q128.88,57.16 133.00,51.14" fill="none" stroke="#29A35C" stroke-width="2.01"/><path d="M133.00,51.14 Q137.12,45.13 141.25,51.14 Q145.38,57.16 149.50,51.14" fill="none" stroke="#29A35C" stroke-width="2.01"/><path d="M149.50,51.14 Q153.62,45.13 157.75,51.14 Q161.88,57.16 166.00,51.14" fill="none" stroke="#29A35C" stroke-width="2.01"/><path d="M166.00,51.14 Q170.12,45.13 174.25,51.14 Q178.38,57.16 182.50,51.14" fill="none" stroke="#29A35C" stroke-width="2.01"/><path d="M182.50,51.14 Q186.62,45.13 190.75,51.14 Q194.88,57.16 199.00,51.14" fill="none" stroke="#29A35C" stroke-width="2.01"/><path d="M199.00,51.14 Q203.12,45.13 207.25,51.14 Q211.38,57.16 215.50,51.14" fill="none" stroke="#29A35C" stroke-width="2.01"/><path d="M1.00,65.18 Q5.12,59.17 9.25,65.18 Q13.38,71.20 17.50,65.18" fill="none" stroke="#29A35C" stroke-width="2.01"/><path d="M17.50,65.18 Q21.62,59.17 25.75,65.18 Q29.88,71.20 34.00,65.18" fill="none" stroke="#29A35C" stroke-width="2.01"/><path d="M34.00,65.18 Q38.12,59.17 42.25,65.18 Q46.38,71.20 50.50,65.18" fill="none" stroke="#29A35C" stroke-width="2.01"/><path d="M50.50,65.18 Q54.62,59.17 58.75,65.18 Q62.88,71.20 67.00,65.18" fill="none" stroke="#29A35C" stroke-width="2.01"/><path d="M67.00,65.18 Q71.12,59.17 75.25,65.18 Q79.38,71.20 83.50,65.18" fill="none" stroke="#29A35C" stroke-width="2.01"/><path d="M83.50,65.18 Q87.62,59.17 91.75,65.18 Q95.88,71.20 100.00,65.18" fill="none" stroke="#29A35C" stroke-width="2.01"/><path d="M100.00,65.18 Q104.12,59.17 108.25,65.18 Q112.38,71.20 116.50,65.18" fill="none" stroke="#29A35C" stroke-width="2.01"/><path d="M116.50,65.18 Q120.62,59.17 124.75,65.18 Q128.88,71.20 133.00,65.18" fill="none" stroke="#29A35C" stroke-width="2.01"/><path d="M133.00,65.18 Q137.12,59.17 141.25,65.18 Q145.38,71.20 149.50,65.18" fill="none" stroke="#29A35C" stroke-width="2.01"/><path d="M149.50,65.18 Q153.62,59.17 157.75,65.18 Q161.88,71.20 166.00,65.18" fill="none" stroke="#29A35C" stroke-width="2.01"/><path d="M166.00,65.18 Q170.12,59.17 174.25,65.18 Q178.38,71.20 182.50,65.18" fill="none" stroke="#29A35C" stroke-width="2.01"/><path d="M182.50,65.18 Q186.62,59.17 190.75,65.18 Q194.88,71.20 199.00,65.18" fill="none" stroke="#29A35C" stroke-width="2.01"/><path d="M199.00,65.18 Q203.12,59.17 207.25,65.18 Q211.38,71.20 215.50,65.18" fill="none" stroke="#29A35C" stroke-width="2.01"/><path d="M1.00,79.22 Q5.12,73.21 9.25,79.22 Q13.38,85.24 17.50,79.22" fill="none" stroke="#29A35C" stroke-width="2.01"/><path d="M17.50,79.22 Q21.62,73.21 25.75,79.22 Q29.88,85.24 34.00,79.22" fill="none" stroke="#29A35C" stroke-width="2.01"/><path d="M34.00,79.22 Q38.12,73.21 42.25,79.22 Q46.38,85.24 50.50,79.22" fill="none" stroke="#29A35C" stroke-width="2.01"/><path d="M50.50,79.22 Q54.62,73.21 58.75,79.22 Q62.88,85.24 67.00,79.22" fill="none" stroke="#29A35C" stroke-width="2.01"/><path d="M67.00,79.22 Q71.12,73.21 75.25,79.22 Q79.38,85.24 83.50,79.22" fill="none" stroke="#29A35C" stroke-width="2.01"/><path d="M83.50,79.22 Q87.62,73.21 91.75,79.22 Q95.88,85.24 100.00,79.22" fill="none" stroke="#29A35C" stroke-width="2.01"/><path d="M100.00,79.22 Q104.12,73.21 108.25,79.22 Q112.38,85.24 116.50,79.22" fill="none" stroke="#29A35C" stroke-width="2.01"/><path d="M116.50,79.22 Q120.62,73.21 124.75,79.22 Q128.88,85.24 133.00,79.22" fill="none" stroke="#29A35C" stroke-width="2.01"/><path d="M133.00,79.22 Q137.12,73.21 141.25,79.22 Q145.38,85.24 149.50,79.22" fill="none" stroke="#29A35C" stroke-width="2.01"/><path d="M149.50,79.22 Q153.62,73.21 157.75,79.22 Q161.88,85.24 166.00,79.22" fill="none" stroke="#29A35C" stroke-width="2.01"/><path d="M166.00,79.22 Q170.12,73.21 174.25,79.22 Q178.38,85.24 182.50,79.22" fill="none" stroke="#29A35C" stroke-width="2.01"/><path d="M182.50,79.22 Q186.62,73.21 190.75,79.22 Q194.88,85.24 199.00,79.22" fill="none" stroke="#29A35C" stroke-width="2.01"/><path d="M199.00,79.22 Q203.12,73.21 207.25,79.22 Q211.38,85.24 215.50,79.22" fill="none" stroke="#29A35C" stroke-width="2.01"/><path d="M1.00,93.26 Q5.12,87.25 9.25,93.26 Q13.38,99.28 17.50,93.26" fill="none" stroke="#29A35C" stroke-width="2.01"/><path d="M17.50,93.26 Q21.62,87.25 25.75,93.26 Q29.88,99.28 34.00,93.26" fill="none" stroke="#29A35C" stroke-width="2.01"/><path d="M34.00,93.26 Q38.12,87.25 42.25,93.26 Q46.38,99.28 50.50,93.26" fill="none" stroke="#29A35C" stroke-width="2.01"/><path d="M50.50,93.26 Q54.62,87.25 58.75,93.26 Q62.88,99.28 67.00,93.26" fill="none" stroke="#29A35C" stroke-width="2.01"/><path d="M67.00,93.26 Q71.12,87.25 75.25,93.26 Q79.38,99.28 83.50,93.26" fill="none" stroke="#29A35C" stroke-width="2.01"/><path d="M83.50,93.26 Q87.62,87.25 91.75,93.26 Q95.88,99.28 100.00,93.26" fill="none" stroke="#29A35C" stroke-width="2.01"/><path d="M100.00,93.26 Q104.12,87.25 108.25,93.26 Q112.38,99.28 116.50,93.26" fill="none" stroke="#29A35C" stroke-width="2.01"/><path d="M116.50,93.26 Q120.62,87.25 124.75,93.26 Q128.88,99.28 133.00,93.26" fill="none" stroke="#29A35C" stroke-width="2.01"/><path d="M133.00,93.26 Q137.12,87.25 141.25,93.26 Q145.38,99.28 149.50,93.26" fill="none" stroke="#29A35C" stroke-width="2.01"/><path d="M149.50,93.26 Q153.62,87.25 157.75,93.26 Q161.88,99.28 166.00,93.26" fill="none" stroke="#29A35C" stroke-width="2.01"/><path d="M166.00,93.26 Q170.12,87.25 174.25,93.26 Q178.38,99.28 182.50,93.26" fill="none" stroke="#29A35C" stroke-width="2.01"/><path d="M182.50,93.26 Q186.62,87.25 190.75,93.26 Q194.88,99.28 199.00,93.26" fill="none" stroke="#29A35C" stroke-width="2.01"/><path d="M199.00,93.26 Q203.12,87.25 207.25,93.26 Q211.38,99.28 215.50,93.26" fill="none" stroke="#29A35C" stroke-width="2.01"/><path d="M1.00,107.30 Q5.12,101.29 9.25,107.30 Q13.38,113.32 17.50,107.30" fill="none" stroke="#29A35C" stroke-width="2.01"/><path d="M17.50,107.30 Q21.62,101.29 25.75,107.30 Q29.88,113.32 34.00,107.30" fill="none" stroke="#29A35C" stroke-width="2.01"/><path d="M34.00,107.30 Q38.12,101.29 42.25,107.30 Q46.38,113.32 50.50,107.30" fill="none" stroke="#29A35C" stroke-width="2.01"/><path d="M50.50,107.30 Q54.62,101.29 58.75,107.30 Q62.88,113.32 67.00,107.30" fill="none" stroke="#29A35C" stroke-width="2.01"/><path d="M67.00,107.30 Q71.12,101.29 75.25,107.30 Q79.38,113.32 83.50,107.30" fill="none" stroke="#29A35C" stroke-width="2.01"/><path d="M83.50,107.30 Q87.62,101.29 91.75,107.30 Q95.88,113.32 100.00,107.30" fill="none" stroke="#29A35C" stroke-width="2.01"/><path d="M100.00,107.30 Q104.12,101.29 108.25,107.30 Q112.38,113.32 116.50,107.30" fill="none" stroke="#29A35C" stroke-width="2.01"/><path d="M116.50,107.30 Q120.62,101.29 124.75,107.30 Q128.88,113.32 133.00,107.30" fill="none" stroke="#29A35C" stroke-width="2.01"/><path d="M133.00,107.30 Q137.12,101.29 141.25,107.30 Q145.38,113.32 149.50,107.30" fill="none" stroke="#29A35C" stroke-width="2.01"/><path d="M149.50,107.30 Q153.62,101.29 157.75,107.30 Q161.88,113.32 166.00,107.30" fill="none" stroke="#29A35C" stroke-width="2.01"/><path d="M166.00,107.30 Q170.12,101.29 174.25,107.30 Q178.38,113.32 182.50,107.30" fill="none" stroke="#29A35C" stroke-width="2.01"/><path d="M182.50,107.30 Q186.62,101.29 190.75,107.30 Q194.88,113.32 199.00,107.30" fill="none" stroke="#29A35C" stroke-width="2.01"/><path d="M199.00,107.30 Q203.12,101.29 207.25,107.30 Q211.38,113.32 215.50,107.30" fill="none" stroke="#29A35C" stroke-width="2.01"/><path d="M1.00,121.34 Q5.12,115.33 9.25,121.34 Q13.38,127.36 17.50,121.34" fill="none" stroke="#29A35C" stroke-width="2.01"/><path d="M17.50,121.34 Q21.62,115.33 25.75,121.34 Q29.88,127.36 34.00,121.34" fill="none" stroke="#29A35C" stroke-width="2.01"/><path d="M34.00,121.34 Q38.12,115.33 42.25,121.34 Q46.38,127.36 50.50,121.34" fill="none" stroke="#29A35C" stroke-width="2.01"/><path d="M50.50,121.34 Q54.62,115.33 58.75,121.34 Q62.88,127.36 67.00,121.34" fill="none" stroke="#29A35C" stroke-width="2.01"/><path d="M67.00,121.34 Q71.12,115.33 75.25,121.34 Q79.38,127.36 83.50,121.34" fill="none" stroke="#29A35C" stroke-width="2.01"/><path d="M83.50,121.34 Q87.62,115.33 91.75,121.34 Q95.88,127.36 100.00,121.34" fill="none" stroke="#29A35C" stroke-width="2.01"/><path d="M100.00,121.34 Q104.12,115.33 108.25,121.34 Q112.38,127.36 116.50,121.34" fill="none" stroke="#29A35C" stroke-width="2.01"/><path d="M116.50,121.34 Q120.62,115.33 124.75,121.34 Q128.88,127.36 133.00,121.34" fill="none" stroke="#29A35C" stroke-width="2.01"/><path d="M133.00,121.34 Q137.12,115.33 141.25,121.34 Q145.38,127.36 149.50,121.34" fill="none" stroke="#29A35C" stroke-width="2.01"/><path d="M149.50,121.34 Q153.62,115.33 157.75,121.34 Q161.88,127.36 166.00,121.34" fill="none" stroke="#29A35C" stroke-width="2.01"/><path d="M166.00,121.34 Q170.12,115.33 174.25,121.34 Q178.38,127.36 182.50,121.34" fill="none" stroke="#29A35C" stroke-width="2.01"/><path d="M182.50,121.34 Q186.62,115.33 190.75,121.34 Q194.88,127.36 199.00,121.34" fill="none" stroke="#29A35C" stroke-width="2.01"/><path d="M199.00,121.34 Q203.12,115.33 207.25,121.34 Q211.38,127.36 215.50,121.34" fill="none" stroke="#29A35C" stroke-width="2.01"/><path d="M1.00,135.38 Q5.12,129.37 9.25,135.38 Q13.38,141.40 17.50,135.38" fill="none" stroke="#29A35C" stroke-width="2.01"/><path d="M17.50,135.38 Q21.62,129.37 25.75,135.38 Q29.88,141.40 34.00,135.38" fill="none" stroke="#29A35C" stroke-width="2.01"/><path d="M34.00,135.38 Q38.12,129.37 42.25,135.38 Q46.38,141.40 50.50,135.38" fill="none" stroke="#29A35C" stroke-width="2.01"/><path d="M50.50,135.38 Q54.62,129.37 58.75,135.38 Q62.88,141.40 67.00,135.38" fill="none" stroke="#29A35C" stroke-width="2.01"/><path d="M67.00,135.38 Q71.12,129.37 75.25,135.38 Q79.38,141.40 83.50,135.38" fill="none" stroke="#29A35C" stroke-width="2.01"/><path d="M83.50,135.38 Q87.62,129.37 91.75,135.38 Q95.88,141.40 100.00,135.38" fill="none" stroke="#29A35C" stroke-width="2.01"/><path d="M100.00,135.38 Q104.12,129.37 108.25,135.38 Q112.38,141.40 116.50,135.38" fill="none" stroke="#29A35C" stroke-width="2.01"/><path d="M116.50,135.38 Q120.62,129.37 124.75,135.38 Q128.88,141.40 133.00,135.38" fill="none" stroke="#29A35C" stroke-width="2.01"/><path d="M133.00,135.38 Q137.12,129.37 141.25,135.38 Q145.38,141.40 149.50,135.38" fill="none" stroke="#29A35C" stroke-width="2.01"/><path d="M149.50,135.38 Q153.62,129.37 157.75,135.38 Q161.88,141.40 166.00,135.38" fill="none" stroke="#29A35C" stroke-width="2.01"/><path d="M166.00,135.38 Q170.12,129.37 174.25,135.38 Q178.38,141.40 182.50,135.38" fill="none" stroke="#29A35C" stroke-width="2.01"/><path d="M182.50,135.38 Q186.62,129.37 190.75,135.38 Q194.88,141.40 199.00,135.38" fill="none" stroke="#29A35C" stroke-width="2.01"/><path d="M199.00,135.38 Q203.12,129.37 207.25,135.38 Q211.38,141.40 215.50,135.38" fill="none" stroke="#29A35C" stroke-width="2.01"/><path d="M1.00,149.42 Q5.12,143.41 9.25,149.42 Q13.38,155.44 17.50,149.42" fill="none" stroke="#29A35C" stroke-width="2.01"/><path d="M17.50,149.42 Q21.62,143.41 25.75,149.42 Q29.88,155.44 34.00,149.42" fill="none" stroke="#29A35C" stroke-width="2.01"/><path d="M34.00,149.42 Q38.12,143.41 42.25,149.42 Q46.38,155.44 50.50,149.42" fill="none" stroke="#29A35C" stroke-width="2.01"/><path d="M50.50,149.42 Q54.62,143.41 58.75,149.42 Q62.88,155.44 67.00,149.42" fill="none" stroke="#29A35C" stroke-width="2.01"/><path d="M67.00,149.42 Q71.12,143.41 75.25,149.42 Q79.38,155.44 83.50,149.42" fill="none" stroke="#29A35C" stroke-width="2.01"/><path d="M83.50,149.42 Q87.62,143.41 91.75,149.42 Q95.88,155.44 100.00,149.42" fill="none" stroke="#29A35C" stroke-width="2.01"/><path d="M100.00,149.42 Q104.12,143.41 108.25,149.42 Q112.38,155.44 116.50,149.42" fill="none" stroke="#29A35C" stroke-width="2.01"/><path d="M116.50,149.42 Q120.62,143.41 124.75,149.42 Q128.88,155.44 133.00,149.42" fill="none" stroke="#29A35C" stroke-width="2.01"/><path d="M133.00,149.42 Q137.12,143.41 141.25,149.42 Q145.38,155.44 149.50,149.42" fill="none" stroke="#29A35C" stroke-width="2.01"/><path d="M149.50,149.42 Q153.62,143.41 157.75,149.42 Q161.88,155.44 166.00,149.42" fill="none" stroke="#29A35C" stroke-width="2.01"/><path d="M166.00,149.42 Q170.12,143.41 174.25,149.42 Q178.38,155.44 182.50,149.42" fill="none" stroke="#29A35C" stroke-width="2.01"/><path d="M182.50,149.42 Q186.62,143.41 190.75,149.42 Q194.88,155.44 199.00,149.42" fill="none" stroke="#29A35C" stroke-width="2.01"/><path d="M199.00,149.42 Q203.12,143.41 207.25,149.42 Q211.38,155.44 215.50,149.42" fill="none" stroke="#29A35C" stroke-width="2.01"/><path d="M1.00,163.46 Q5.12,157.45 9.25,163.46 Q13.38,169.48 17.50,163.46" fill="none" stroke="#29A35C" stroke-width="2.01"/><path d="M17.50,163.46 Q21.62,157.45 25.75,163.46 Q29.88,169.48 34.00,163.46" fill="none" stroke="#29A35C" stroke-width="2.01"/><path d="M34.00,163.46 Q38.12,157.45 42.25,163.46 Q46.38,169.48 50.50,163.46" fill="none" stroke="#29A35C" stroke-width="2.01"/><path d="M50.50,163.46 Q54.62,157.45 58.75,163.46 Q62.88,169.48 67.00,163.46" fill="none" stroke="#29A35C" stroke-width="2.01"/><path d="M67.00,163.46 Q71.12,157.45 75.25,163.46 Q79.38,169.48 83.50,163.46" fill="none" stroke="#29A35C" stroke-width="2.01"/><path d="M83.50,163.46 Q87.62,157.45 91.75,163.46 Q95.88,169.48 100.00,163.46" fill="none" stroke="#29A35C" stroke-width="2.01"/><path d="M100.00,163.46 Q104.12,157.45 108.25,163.46 Q112.38,169.48 116.50,163.46" fill="none" stroke="#29A35C" stroke-width="2.01"/><path d="M116.50,163.46 Q120.62,157.45 124.75,163.46 Q128.88,169.48 133.00,163.46" fill="none" stroke="#29A35C" stroke-width="2.01"/><path d="M133.00,163.46 Q137.12,157.45 141.25,163.46 Q145.38,169.48 149.50,163.46" fill="none" stroke="#29A35C" stroke-width="2.01"/><path d="M149.50,163.46 Q153.62,157.45 157.75,163.46 Q161.88,169.48 166.00,163.46" fill="none" stroke="#29A35C" stroke-width="2.01"/><path d="M166.00,163.46 Q170.12,157.45 174.25,163.46 Q178.38,169.48 182.50,163.46" fill="none" stroke="#29A35C" stroke-width="2.01"/><path d="M182.50,163.46 Q186.62,157.45 190.75,163.46 Q194.88,169.48 199.00,163.46" fill="none" stroke="#29A35C" stroke-width="2.01"/><path d="M199.00,163.46 Q203.12,157.45 207.25,163.46 Q211.38,169.48 215.50,163.46" fill="none" stroke="#29A35C" stroke-width="2.01"/><path d="M1.00,177.50 Q5.12,171.49 9.25,177.50 Q13.38,183.52 17.50,177.50" fill="none" stroke="#29A35C" stroke-width="2.01"/><path d="M17.50,177.50 Q21.62,171.49 25.75,177.50 Q29.88,183.52 34.00,177.50" fill="none" stroke="#29A35C" stroke-width="2.01"/><path d="M34.00,177.50 Q38.12,171.49 42.25,177.50 Q46.38,183.52 50.50,177.50" fill="none" stroke="#29A35C" stroke-width="2.01"/><path d="M50.50,177.50 Q54.62,171.49 58.75,177.50 Q62.88,183.52 67.00,177.50" fill="none" stroke="#29A35C" stroke-width="2.01"/><path d="M67.00,177.50 Q71.12,171.49 75.25,177.50 Q79.38,183.52 83.50,177.50" fill="none" stroke="#29A35C" stroke-width="2.01"/><path d="M83.50,177.50 Q87.62,171.49 91.75,177.50 Q95.88,183.52 100.00,177.50" fill="none" stroke="#29A35C" stroke-width="2.01"/><path d="M100.00,177.50 Q104.12,171.49 108.25,177.50 Q112.38,183.52 116.50,177.50" fill="none" stroke="#29A35C" stroke-width="2.01"/><path d="M116.50,177.50 Q120.62,171.49 124.75,177.50 Q128.88,183.52 133.00,177.50" fill="none" stroke="#29A35C" stroke-width="2.01"/><path d="M133.00,177.50 Q137.12,171.49 141.25,177.50 Q145.38,183.52 149.50,177.50" fill="none" stroke="#29A35C" stroke-width="2.01"/><path d="M149.50,177.50 Q153.62,171.49 157.75,177.50 Q161.88,183.52 166.00,177.50" fill="none" stroke="#29A35C" stroke-width="2.01"/><path d="M166.00,177.50 Q170.12,171.49 174.25,177.50 Q178.38,183.52 182.50,177.50" fill="none" stroke="#29A35C" stroke-width="2.01"/><path d="M182.50,177.50 Q186.62,171.49 190.75,177.50 Q194.88,183.52 199.00,177.50" fill="none" stroke="#29A35C" stroke-width="2.01"/><path d="M199.00,177.50 Q203.12,171.49 207.25,177.50 Q211.38,183.52 215.50,177.50" fill="none" stroke="#29A35C" stroke-width="2.01"/><path d="M1.00,191.54 Q5.12,185.53 9.25,191.54 Q13.38,197.56 17.50,191.54" fill="none" stroke="#29A35C" stroke-width="2.01"/><path d="M17.50,191.54 Q21.62,185.53 25.75,191.54 Q29.88,197.56 34.00,191.54" fill="none" stroke="#29A35C" stroke-width="2.01"/><path d="M34.00,191.54 Q38.12,185.53 42.25,191.54 Q46.38,197.56 50.50,191.54" fill="none" stroke="#29A35C" stroke-width="2.01"/><path d="M50.50,191.54 Q54.62,185.53 58.75,191.54 Q62.88,197.56 67.00,191.54" fill="none" stroke="#29A35C" stroke-width="2.01"/><path d="M67.00,191.54 Q71.12,185.53 75.25,191.54 Q79.38,197.56 83.50,191.54" fill="none" stroke="#29A35C" stroke-width="2.01"/><path d="M83.50,191.54 Q87.62,185.53 91.75,191.54 Q95.88,197.56 100.00,191.54" fill="none" stroke="#29A35C" stroke-width="2.01"/><path d="M100.00,191.54 Q104.12,185.53 108.25,191.54 Q112.38,197.56 116.50,191.54" fill="none" stroke="#29A35C" stroke-width="2.01"/><path d="M116.50,191.54 Q120.62,185.53 124.75,191.54 Q128.88,197.56 133.00,191.54" fill="none" stroke="#29A35C" stroke-width="2.01"/><path d="M133.00,191.54 Q137.12,185.53 141.25,191.54 Q145.38,197.56 149.50,191.54" fill="none" stroke="#29A35C" stroke-width="2.01"/><path d="M149.50,191.54 Q153.62,185.53 157.75,191.54 Q161.88,197.56 166.00,191.54" fill="none" stroke="#29A35C" stroke-width="2.01"/><path d="M166.00,191.54 Q170.12,185.53 174.25,191.54 Q178.38,197.56 182.50,191.54" fill="none" stroke="#29A35C" stroke-width="2.01"/><path d="M182.50,191.54 Q186.62,185.53 190.75,191.54 Q194.88,197.56 199.00,191.54" fill="none" stroke="#29A35C" stroke-width="2.01"/><path d="M199.00,191.54 Q203.12,185.53 207.25,191.54 Q211.38,197.56 215.50,191.54" fill="none" stroke="#29A35C" stroke-width="2.01"/><path d="M1.00,205.58 Q5.12,199.57 9.25,205.58 Q13.38,211.60 17.50,205.58" fill="none" stroke="#29A35C" stroke-width="2.01"/><path d="M17.50,205.58 Q21.62,199.57 25.75,205.58 Q29.88,211.60 34.00,205.58" fill="none" stroke="#29A35C" stroke-width="2.01"/><path d="M34.00,205.58 Q38.12,199.57 42.25,205.58 Q46.38,211.60 50.50,205.58" fill="none" stroke="#29A35C" stroke-width="2.01"/><path d="M50.50,205.58 Q54.62,199.57 58.75,205.58 Q62.88,211.60 67.00,205.58" fill="none" stroke="#29A35C" stroke-width="2.01"/><path d="M67.00,205.58 Q71.12,199.57 75.25,205.58 Q79.38,211.60 83.50,205.58" fill="none" stroke="#29A35C" stroke-width="2.01"/><path d="M83.50,205.58 Q87.62,199.57 91.75,205.58 Q95.88,211.60 100.00,205.58" fill="none" stroke="#29A35C" stroke-width="2.01"/><path d="M100.00,205.58 Q104.12,199.57 108.25,205.58 Q112.38,211.60 116.50,205.58" fill="none" stroke="#29A35C" stroke-width="2.01"/><path d="M116.50,205.58 Q120.62,199.57 124.75,205.58 Q128.88,211.60 133.00,205.58" fill="none" stroke="#29A35C" stroke-width="2.01"/><path d="M133.00,205.58 Q137.12,199.57 141.25,205.58 Q145.38,211.60 149.50,205.58" fill="none" stroke="#29A35C" stroke-width="2.01"/><path d="M149.50,205.58 Q153.62,199.57 157.75,205.58 Q161.88,211.60 166.00,205.58" fill="none" stroke="#29A35C" stroke-width="2.01"/><path d="M166.00,205.58 Q170.12,199.57 174.25,205.58 Q178.38,211.60 182.50,205.58" fill="none" stroke="#29A35C" stroke-width="2.01"/><path d="M182.50,205.58 Q186.62,199.57 190.75,205.58 Q194.88,211.60 199.00,205.58" fill="none" stroke="#29A35C" stroke-width="2.01"/><path d="M199.00,205.58 Q203.12,199.57 207.25,205.58 Q211.38,211.60 215.50,205.58" fill="none" stroke="#29A35C" stroke-width="2.01"/><path d="M1.00,219.62 Q5.12,213.61 9.25,219.62 Q13.38,225.64 17.50,219.62" fill="none" stroke="#29A35C" stroke-width="2.01"/><path d="M17.50,219.62 Q21.62,213.61 25.75,219.62 Q29.88,225.64 34.00,219.62" fill="none" stroke="#29A35C" stroke-width="2.01"/><path d="M34.00,219.62 Q38.12,213.61 42.25,219.62 Q46.38,225.64 50.50,219.62" fill="none" stroke="#29A35C" stroke-width="2.01"/><path d="M50.50,219.62 Q54.62,213.61 58.75,219.62 Q62.88,225.64 67.00,219.62" fill="none" stroke="#29A35C" stroke-width="2.01"/><path d="M67.00,219.62 Q71.12,213.61 75.25,219.62 Q79.38,225.64 83.50,219.62" fill="none" stroke="#29A35C" stroke-width="2.01"/><path d="M83.50,219.62 Q87.62,213.61 91.75,219.62 Q95.88,225.64 100.00,219.62" fill="none" stroke="#29A35C" stroke-width="2.01"/><path d="M100.00,219.62 Q104.12,213.61 108.25,219.62 Q112.38,225.64 116.50,219.62" fill="none" stroke="#29A35C" stroke-width="2.01"/><path d="M116.50,219.62 Q120.62,213.61 124.75,219.62 Q128.88,225.64 133.00,219.62" fill="none" stroke="#29A35C" stroke-width="2.01"/><path d="M133.00,219.62 Q137.12,213.61 141.25,219.62 Q145.38,225.64 149.50,219.62" fill="none" stroke="#29A35C" stroke-width="2.01"/><path d="M149.50,219.62 Q153.62,213.61 157.75,219.62 Q161.88,225.64 166.00,219.62" fill="none" stroke="#29A35C" stroke-width="2.01"/><path d="M166.00,219.62 Q170.12,213.61 174.25,219.62 Q178.38,225.64 182.50,219.62" fill="none" stroke="#29A35C" stroke-width="2.01"/><path d="M182.50,219.62 Q186.62,213.61 190.75,219.62 Q194.88,225.64 199.00,219.62" fill="none" stroke="#29A35C" stroke-width="2.01"/><path d="M199.00,219.62 Q203.12,213.61 207.25,219.62 Q211.38,225.64 215.50,219.62" fill="none" stroke="#29A35C" stroke-width="2.01"/><path d="M1.00,233.66 Q5.12,227.65 9.25,233.66 Q13.38,239.68 17.50,233.66" fill="none" stroke="#29A35C" stroke-width="2.01"/><path d="M17.50,233.66 Q21.62,227.65 25.75,233.66 Q29.88,239.68 34.00,233.66" fill="none" stroke="#29A35C" stroke-width="2.01"/><path d="M34.00,233.66 Q38.12,227.65 42.25,233.66 Q46.38,239.68 50.50,233.66" fill="none" stroke="#29A35C" stroke-width="2.01"/><path d="M50.50,233.66 Q54.62,227.65 58.75,233.66 Q62.88,239.68 67.00,233.66" fill="none" stroke="#29A35C" stroke-width="2.01"/><path d="M67.00,233.66 Q71.12,227.65 75.25,233.66 Q79.38,239.68 83.50,233.66" fill="none" stroke="#29A35C" stroke-width="2.01"/><path d="M83.50,233.66 Q87.62,227.65 91.75,233.66 Q95.88,239.68 100.00,233.66" fill="none" stroke="#29A35C" stroke-width="2.01"/><path d="M100.00,233.66 Q104.12,227.65 108.25,233.66 Q112.38,239.68 116.50,233.66" fill="none" stroke="#29A35C" stroke-width="2.01"/><path d="M116.50,233.66 Q120.62,227.65 124.75,233.66 Q128.88,239.68 133.00,233.66" fill="none" stroke="#29A35C" stroke-width="2.01"/><path d="M133.00,233.66 Q137.12,227.65 141.25,233.66 Q145.38,239.68 149.50,233.66" fill="none" stroke="#29A35C" stroke-width="2.01"/><path d="M149.50,233.66 Q153.62,227.65 157.75,233.66 Q161.88,239.68 166.00,233.66" fill="none" stroke="#29A35C" stroke-width="2.01"/><path d="M166.00,233.66 Q170.12,227.65 174.25,233.66 Q178.38,239.68 182.50,233.66" fill="none" stroke="#29A35C" stroke-width="2.01"/><path d="M182.50,233.66 Q186.62,227.65 190.75,233.66 Q194.88,239.68 199.00,233.66" fill="none" stroke="#29A35C" stroke-width="2.01"/><path d="M199.00,233.66 Q203.12,227.65 207.25,233.66 Q211.38,239.68 215.50,233.66" fill="none" stroke="#29A35C" stroke-width="2.01"/><path d="M1.00,247.70 Q5.12,241.69 9.25,247.70 Q13.38,253.72 17.50,247.70" fill="none" stroke="#29A35C" stroke-width="2.01"/><path d="M17.50,247.70 Q21.62,241.69 25.75,247.70 Q29.88,253.72 34.00,247.70" fill="none" stroke="#29A35C" stroke-width="2.01"/><path d="M34.00,247.70 Q38.12,241.69 42.25,247.70 Q46.38,253.72 50.50,247.70" fill="none" stroke="#29A35C" stroke-width="2.01"/><path d="M50.50,247.70 Q54.62,241.69 58.75,247.70 Q62.88,253.72 67.00,247.70" fill="none" stroke="#29A35C" stroke-width="2.01"/><path d="M67.00,247.70 Q71.12,241.69 75.25,247.70 Q79.38,253.72 83.50,247.70" fill="none" stroke="#29A35C" stroke-width="2.01"/><path d="M83.50,247.70 Q87.62,241.69 91.75,247.70 Q95.88,253.72 100.00,247.70" fill="none" stroke="#29A35C" stroke-width="2.01"/><path d="M100.00,247.70 Q104.12,241.69 108.25,247.70 Q112.38,253.72 116.50,247.70" fill="none" stroke="#29A35C" stroke-width="2.01"/><path d="M116.50,247.70 Q120.62,241.69 124.75,247.70 Q128.88,253.72 133.00,247.70" fill="none" stroke="#29A35C" stroke-width="2.01"/><path d="M133.00,247.70 Q137.12,241.69 141.25,247.70 Q145.38,253.72 149.50,247.70" fill="none" stroke="#29A35C" stroke-width="2.01"/><path d="M149.50,247.70 Q153.62,241.69 157.75,247.70 Q161.88,253.72 166.00,247.70" fill="none" stroke="#29A35C" stroke-width="2.01"/><path d="M166.00,247.70 Q170.12,241.69 174.25,247.70 Q178.38,253.72 182.50,247.70" fill="none" stroke="#29A35C" stroke-width="2.01"/><path d="M182.50,247.70 Q186.62,241.69 190.75,247.70 Q194.88,253.72 199.00,247.70" fill="none" stroke="#29A35C" stroke-width="2.01"/><path d="M199.00,247.70 Q203.12,241.69 207.25,247.70 Q211.38,253.72 215.50,247.70" fill="none" stroke="#29A35C" stroke-width="2.01"/><path d="M1.00,261.74 Q5.12,255.73 9.25,261.74 Q13.38,267.76 17.50,261.74" fill="none" stroke="#29A35C" stroke-width="2.01"/><path d="M17.50,261.74 Q21.62,255.73 25.75,261.74 Q29.88,267.76 34.00,261.74" fill="none" stroke="#29A35C" stroke-width="2.01"/><path d="M34.00,261.74 Q38.12,255.73 42.25,261.74 Q46.38,267.76 50.50,261.74" fill="none" stroke="#29A35C" stroke-width="2.01"/><path d="M50.50,261.74 Q54.62,255.73 58.75,261.74 Q62.88,267.76 67.00,261.74" fill="none" stroke="#29A35C" stroke-width="2.01"/><path d="M67.00,261.74 Q71.12,255.73 75.25,261.74 Q79.38,267.76 83.50,261.74" fill="none" stroke="#29A35C" stroke-width="2.01"/><path d="M83.50,261.74 Q87.62,255.73 91.75,261.74 Q95.88,267.76 100.00,261.74" fill="none" stroke="#29A35C" stroke-width="2.01"/><path d="M100.00,261.74 Q104.12,255.73 108.25,261.74 Q112.38,267.76 116.50,261.74" fill="none" stroke="#29A35C" stroke-width="2.01"/><path d="M116.50,261.74 Q120.62,255.73 124.75,261.74 Q128.88,267.76 133.00,261.74" fill="none" stroke="#29A35C" stroke-width="2.01"/><path d="M133.00,261.74 Q137.12,255.73 141.25,261.74 Q145.38,267.76 149.50,261.74" fill="none" stroke="#29A35C" stroke-width="2.01"/><path d="M149.50,261.74 Q153.62,255.73 157.75,261.74 Q161.88,267.76 166.00,261.74" fill="none" stroke="#29A35C" stroke-width="2.01"/><path d="M166.00,261.74 Q170.12,255.73 174.25,261.74 Q178.38,267.76 182.50,261.74" fill="none" stroke="#29A35C" stroke-width="2.01"/><path d="M182.50,261.74 Q186.62,255.73 190.75,261.74 Q194.88,267.76 199.00,261.74" fill="none" stroke="#29A35C" stroke-width="2.01"/><path d="M199.00,261.74 Q203.12,255.73 207.25,261.74 Q211.38,267.76 215.50,261.74" fill="none" stroke="#29A35C" stroke-width="2.01"/><path d="M1.00,275.78 Q5.12,269.77 9.25,275.78 Q13.38,281.80 17.50,275.78" fill="none" stroke="#29A35C" stroke-width="2.01"/><path d="M17.50,275.78 Q21.62,269.77 25.75,275.78 Q29.88,281.80 34.00,275.78" fill="none" stroke="#29A35C" stroke-width="2.01"/><path d="M34.00,275.78 Q38.12,269.77 42.25,275.78 Q46.38,281.80 50.50,275.78" fill="none" stroke="#29A35C" stroke-width="2.01"/><path d="M50.50,275.78 Q54.62,269.77 58.75,275.78 Q62.88,281.80 67.00,275.78" fill="none" stroke="#29A35C" stroke-width="2.01"/><path d="M67.00,275.78 Q71.12,269.77 75.25,275.78 Q79.38,281.80 83.50,275.78" fill="none" stroke="#29A35C" stroke-width="2.01"/><path d="M83.50,275.78 Q87.62,269.77 91.75,275.78 Q95.88,281.80 100.00,275.78" fill="none" stroke="#29A35C" stroke-width="2.01"/><path d="M100.00,275.78 Q104.12,269.77 108.25,275.78 Q112.38,281.80 116.50,275.78" fill="none" stroke="#29A35C" stroke-width="2.01"/><path d="M116.50,275.78 Q120.62,269.77 124.75,275.78 Q128.88,281.80 133.00,275.78" fill="none" stroke="#29A35C" stroke-width="2.01"/><path d="M133.00,275.78 Q137.12,269.77 141.25,275.78 Q145.38,281.80 149.50,275.78" fill="none" stroke="#29A35C" stroke-width="2.01"/><path d="M149.50,275.78 Q153.62,269.77 157.75,275.78 Q161.88,281.80 166.00,275.78" fill="none" stroke="#29A35C" stroke-width="2.01"/><path d="M166.00,275.78 Q170.12,269.77 174.25,275.78 Q178.38,281.80 182.50,275.78" fill="none" stroke="#29A35C" stroke-width="2.01"/><path d="M182.50,275.78 Q186.62,269.77 190.75,275.78 Q194.88,281.80 199.00,275.78" fill="none" stroke="#29A35C" stroke-width="2.01"/><path d="M199.00,275.78 Q203.12,269.77 207.25,275.78 Q211.38,281.80 215.50,275.78" fill="none" stroke="#29A35C" stroke-width="2.01"/><path d="M1.00,289.82 Q5.12,283.81 9.25,289.82 Q13.38,295.84 17.50,289.82" fill="none" stroke="#29A35C" stroke-width="2.01"/><path d="M17.50,289.82 Q21.62,283.81 25.75,289.82 Q29.88,295.84 34.00,289.82" fill="none" stroke="#29A35C" stroke-width="2.01"/><path d="M34.00,289.82 Q38.12,283.81 42.25,289.82 Q46.38,295.84 50.50,289.82" fill="none" stroke="#29A35C" stroke-width="2.01"/><path d="M50.50,289.82 Q54.62,283.81 58.75,289.82 Q62.88,295.84 67.00,289.82" fill="none" stroke="#29A35C" stroke-width="2.01"/><path d="M67.00,289.82 Q71.12,283.81 75.25,289.82 Q79.38,295.84 83.50,289.82" fill="none" stroke="#29A35C" stroke-width="2.01"/><path d="M83.50,289.82 Q87.62,283.81 91.75,289.82 Q95.88,295.84 100.00,289.82" fill="none" stroke="#29A35C" stroke-width="2.01"/><path d="M100.00,289.82 Q104.12,283.81 108.25,289.82 Q112.38,295.84 116.50,289.82" fill="none" stroke="#29A35C" stroke-width="2.01"/><path d="M116.50,289.82 Q120.62,283.81 124.75,289.82 Q128.88,295.84 133.00,289.82" fill="none" stroke="#29A35C" stroke-width="2.01"/><path d="M133.00,289.82 Q137.12,283.81 141.25,289.82 Q145.38,295.84 149.50,289.82" fill="none" stroke="#29A35C" stroke-width="2.01"/><path d="M149.50,289.82 Q153.62,283.81 157.75,289.82 Q161.88,295.84 166.00,289.82" fill="none" stroke="#29A35C" stroke-width="2.01"/><path d="M166.00,289.82 Q170.12,283.81 174.25,289.82 Q178.38,295.84 182.50,289.82" fill="none" stroke="#29A35C" stroke-width="2.01"/><path d="M182.50,289.82 Q186.62,283.81 190.75,289.82 Q194.88,295.84 199.00,289.82" fill="none" stroke="#29A35C" stroke-width="2.01"/><path d="M199.00,289.82 Q203.12,283.81 207.25,289.82 Q211.38,295.84 215.50,289.82" fill="none" stroke="#29A35C" stroke-width="2.01"/><path d="M1.00,303.86 Q5.12,297.85 9.25,303.86 Q13.38,309.88 17.50,303.86" fill="none" stroke="#29A35C" stroke-width="2.01"/><path d="M17.50,303.86 Q21.62,297.85 25.75,303.86 Q29.88,309.88 34.00,303.86" fill="none" stroke="#29A35C" stroke-width="2.01"/><path d="M34.00,303.86 Q38.12,297.85 42.25,303.86 Q46.38,309.88 50.50,303.86" fill="none" stroke="#29A35C" stroke-width="2.01"/><path d="M50.50,303.86 Q54.62,297.85 58.75,303.86 Q62.88,309.88 67.00,303.86" fill="none" stroke="#29A35C" stroke-width="2.01"/><path d="M67.00,303.86 Q71.12,297.85 75.25,303.86 Q79.38,309.88 83.50,303.86" fill="none" stroke="#29A35C" stroke-width="2.01"/><path d="M83.50,303.86 Q87.62,297.85 91.75,303.86 Q95.88,309.88 100.00,303.86" fill="none" stroke="#29A35C" stroke-width="2.01"/><path d="M100.00,303.86 Q104.12,297.85 108.25,303.86 Q112.38,309.88 116.50,303.86" fill="none" stroke="#29A35C" stroke-width="2.01"/><path d="M116.50,303.86 Q120.62,297.85 124.75,303.86 Q128.88,309.88 133.00,303.86" fill="none" stroke="#29A35C" stroke-width="2.01"/><path d="M133.00,303.86 Q137.12,297.85 141.25,303.86 Q145.38,309.88 149.50,303.86" fill="none" stroke="#29A35C" stroke-width="2.01"/><path d="M149.50,303.86 Q153.62,297.85 157.75,303.86 Q161.88,309.88 166.00,303.86" fill="none" stroke="#29A35C" stroke-width="2.01"/><path d="M166.00,303.86 Q170.12,297.85 174.25,303.86 Q178.38,309.88 182.50,303.86" fill="none" stroke="#29A35C" stroke-width="2.01"/><path d="M182.50,303.86 Q186.62,297.85 190.75,303.86 Q194.88,309.88 199.00,303.86" fill="none" stroke="#29A35C" stroke-width="2.01"/><path d="M199.00,303.86 Q203.12,297.85 207.25,303.86 Q211.38,309.88 215.50,303.86" fill="none" stroke="#29A35C" stroke-width="2.01"/><path d="M1.00,317.90 Q5.12,311.89 9.25,317.90 Q13.38,323.92 17.50,317.90" fill="none" stroke="#29A35C" stroke-width="2.01"/><path d="M17.50,317.90 Q21.62,311.89 25.75,317.90 Q29.88,323.92 34.00,317.90" fill="none" stroke="#29A35C" stroke-width="2.01"/><path d="M34.00,317.90 Q38.12,311.89 42.25,317.90 Q46.38,323.92 50.50,317.90" fill="none" stroke="#29A35C" stroke-width="2.01"/><path d="M50.50,317.90 Q54.62,311.89 58.75,317.90 Q62.88,323.92 67.00,317.90" fill="none" stroke="#29A35C" stroke-width="2.01"/><path d="M67.00,317.90 Q71.12,311.89 75.25,317.90 Q79.38,323.92 83.50,317.90" fill="none" stroke="#29A35C" stroke-width="2.01"/><path d="M83.50,317.90 Q87.62,311.89 91.75,317.90 Q95.88,323.92 100.00,317.90" fill="none" stroke="#29A35C" stroke-width="2.01"/><path d="M100.00,317.90 Q104.12,311.89 108.25,317.90 Q112.38,323.92 116.50,317.90" fill="none" stroke="#29A35C" stroke-width="2.01"/><path d="M116.50,317.90 Q120.62,311.89 124.75,317.90 Q128.88,323.92 133.00,317.90" fill="none" stroke="#29A35C" stroke-width="2.01"/><path d="M133.00,317.90 Q137.12,311.89 141.25,317.90 Q145.38,323.92 149.50,317.90" fill="none" stroke="#29A35C" stroke-width="2.01"/><path d="M149.50,317.90 Q153.62,311.89 157.75,317.90 Q161.88,323.92 166.00,317.90" fill="none" stroke="#29A35C" stroke-width="2.01"/><path d="M166.00,317.90 Q170.12,311.89 174.25,317.90 Q178.38,323.92 182.50,317.90" fill="none" stroke="#29A35C" stroke-width="2.01"/><path d="M182.50,317.90 Q186.62,311.89 190.75,317.90 Q194.88,323.92 199.00,317.90" fill="none" stroke="#29A35C" stroke-width="2.01"/><path d="M199.00,317.90 Q203.12,311.89 207.25,317.90 Q211.38,323.92 215.50,317.90" fill="none" stroke="#29A35C" stroke-width="2.01"/><path d="M1.00,331.94 Q5.12,325.93 9.25,331.94 Q13.38,337.96 17.50,331.94" fill="none" stroke="#29A35C" stroke-width="2.01"/><path d="M17.50,331.94 Q21.62,325.93 25.75,331.94 Q29.88,337.96 34.00,331.94" fill="none" stroke="#29A35C" stroke-width="2.01"/><path d="M34.00,331.94 Q38.12,325.93 42.25,331.94 Q46.38,337.96 50.50,331.94" fill="none" stroke="#29A35C" stroke-width="2.01"/><path d="M50.50,331.94 Q54.62,325.93 58.75,331.94 Q62.88,337.96 67.00,331.94" fill="none" stroke="#29A35C" stroke-width="2.01"/><path d="M67.00,331.94 Q71.12,325.93 75.25,331.94 Q79.38,337.96 83.50,331.94" fill="none" stroke="#29A35C" stroke-width="2.01"/><path d="M83.50,331.94 Q87.62,325.93 91.75,331.94 Q95.88,337.96 100.00,331.94" fill="none" stroke="#29A35C" stroke-width="2.01"/><path d="M100.00,331.94 Q104.12,325.93 108.25,331.94 Q112.38,337.96 116.50,331.94" fill="none" stroke="#29A35C" stroke-width="2.01"/><path d="M116.50,331.94 Q120.62,325.93 124.75,331.94 Q128.88,337.96 133.00,331.94" fill="none" stroke="#29A35C" stroke-width="2.01"/><path d="M133.00,331.94 Q137.12,325.93 141.25,331.94 Q145.38,337.96 149.50,331.94" fill="none" stroke="#29A35C" stroke-width="2.01"/><path d="M149.50,331.94 Q153.62,325.93 157.75,331.94 Q161.88,337.96 166.00,331.94" fill="none" stroke="#29A35C" stroke-width="2.01"/><path d="M166.00,331.94 Q170.12,325.93 174.25,331.94 Q178.38,337.96 182.50,331.94" fill="none" stroke="#29A35C" stroke-width="2.01"/><path d="M182.50,331.94 Q186.62,325.93 190.75,331.94 Q194.88,337.96 199.00,331.94" fill="none" stroke="#29A35C" stroke-width="2.01"/><path d="M199.00,331.94 Q203.12,325.93 207.25,331.94 Q211.38,337.96 215.50,331.94" fill="none" stroke="#29A35C" stroke-width="2.01"/><path d="M1.00,345.98 Q5.12,339.97 9.25,345.98 Q13.38,352.00 17.50,345.98" fill="none" stroke="#29A35C" stroke-width="2.01"/><path d="M17.50,345.98 Q21.62,339.97 25.75,345.98 Q29.88,352.00 34.00,345.98" fill="none" stroke="#29A35C" stroke-width="2.01"/><path d="M34.00,345.98 Q38.12,339.97 42.25,345.98 Q46.38,352.00 50.50,345.98" fill="none" stroke="#29A35C" stroke-width="2.01"/><path d="M50.50,345.98 Q54.62,339.97 58.75,345.98 Q62.88,352.00 67.00,345.98" fill="none" stroke="#29A35C" stroke-width="2.01"/><path d="M67.00,345.98 Q71.12,339.97 75.25,345.98 Q79.38,352.00 83.50,345.98" fill="none" stroke="#29A35C" stroke-width="2.01"/><path d="M83.50,345.98 Q87.62,339.97 91.75,345.98 Q95.88,352.00 100.00,345.98" fill="none" stroke="#29A35C" stroke-width="2.01"/><path d="M100.00,345.98 Q104.12,339.97 108.25,345.98 Q112.38,352.00 116.50,345.98" fill="none" stroke="#29A35C" stroke-width="2.01"/><path d="M116.50,345.98 Q120.62,339.97 124.75,345.98 Q128.88,352.00 133.00,345.98" fill="none" stroke="#29A35C" stroke-width="2.01"/><path d="M133.00,345.98 Q137.12,339.97 141.25,345.98 Q145.38,352.00 149.50,345.98" fill="none" stroke="#29A35C" stroke-width="2.01"/><path d="M149.50,345.98 Q153.62,339.97 157.75,345.98 Q161.88,352.00 166.00,345.98" fill="none" stroke="#29A35C" stroke-width="2.01"/><path d="M166.00,345.98 Q170.12,339.97 174.25,345.98 Q178.38,352.00 182.50,345.98" fill="none" stroke="#29A35C" stroke-width="2.01"/><path d="M182.50,345.98 Q186.62,339.97 190.75,345.98 Q194.88,352.00 199.00,345.98" fill="none" stroke="#29A35C" stroke-width="2.01"/><path d="M199.00,345.98 Q203.12,339.97 207.25,345.98 Q211.38,352.00 215.50,345.98" fill="none" stroke="#29A35C" stroke-width="2.01"/><path d="M1.00,360.02 Q5.12,354.01 9.25,360.02 Q13.38,366.04 17.50,360.02" fill="none" stroke="#29A35C" stroke-width="2.01"/><path d="M17.50,360.02 Q21.62,354.01 25.75,360.02 Q29.88,366.04 34.00,360.02" fill="none" stroke="#29A35C" stroke-width="2.01"/><path d="M34.00,360.02 Q38.12,354.01 42.25,360.02 Q46.38,366.04 50.50,360.02" fill="none" stroke="#29A35C" stroke-width="2.01"/><path d="M50.50,360.02 Q54.62,354.01 58.75,360.02 Q62.88,366.04 67.00,360.02" fill="none" stroke="#29A35C" stroke-width="2.01"/><path d="M67.00,360.02 Q71.12,354.01 75.25,360.02 Q79.38,366.04 83.50,360.02" fill="none" stroke="#29A35C" stroke-width="2.01"/><path d="M83.50,360.02 Q87.62,354.01 91.75,360.02 Q95.88,366.04 100.00,360.02" fill="none" stroke="#29A35C" stroke-width="2.01"/><path d="M100.00,360.02 Q104.12,354.01 108.25,360.02 Q112.38,366.04 116.50,360.02" fill="none" stroke="#29A35C" stroke-width="2.01"/><path d="M116.50,360.02 Q120.62,354.01 124.75,360.02 Q128.88,366.04 133.00,360.02" fill="none" stroke="#29A35C" stroke-width="2.01"/><path d="M133.00,360.02 Q137.12,354.01 141.25,360.02 Q145.38,366.04 149.50,360.02" fill="none" stroke="#29A35C" stroke-width="2.01"/><path d="M149.50,360.02 Q153.62,354.01 157.75,360.02 Q161.88,366.04 166.00,360.02" fill="none" stroke="#29A35C" stroke-width="2.01"/><path d="M166.00,360.02 Q170.12,354.01 174.25,360.02 Q178.38,366.04 182.50,360.02" fill="none" stroke="#29A35C" stroke-width="2.01"/><path d="M182.50,360.02 Q186.62,354.01 190.75,360.02 Q194.88,366.04 199.00,360.02" fill="none" stroke="#29A35C" stroke-width="2.01"/><path d="M199.00,360.02 Q203.12,354.01 207.25,360.02 Q211.38,366.04 215.50,360.02" fill="none" stroke="#29A35C" stroke-width="2.01"/>
  </g>
  <!-- outer stroke on top -->
  <rect x="1" y="1" width="208" height="361" rx="12" fill="none" stroke="#26211D"/>
  <!-- inner field -->
  <rect x="11" y="11" width="188" height="341" rx="7" fill="#0B0908"/>
  <rect x="11.5" y="11.5" width="187" height="340" rx="7" fill="none" stroke="#F4EEE2" stroke-opacity="0.12"/>
  <!-- numeral (overlay top, tracking ~6) -->
  <text x="105" y="46" text-anchor="middle" font-family="Georgia, 'Times New Roman', serif" font-size="17" letter-spacing="6" fill="#F4EEE2">III</text>
  <!-- sigil -->
  <g>
    <circle cx="105" cy="182" r="16" fill="none" stroke="#29A35C" stroke-width="2.5" stroke-linecap="round"/>
    <circle cx="105" cy="182" r="31" fill="none" stroke="#29A35C" stroke-width="2.5" stroke-linecap="round"/>
    <circle cx="105" cy="182" r="47" fill="none" stroke="#29A35C" stroke-width="2.5" stroke-linecap="round"/>
    <circle cx="105" cy="182" r="3.5" fill="#FF7AC0"/>
    <circle cx="154" cy="139" r="3.5" fill="#FF7AC0"/>
    <circle cx="66" cy="127" r="3.5" fill="#FF7AC0"/>
    <circle cx="163" cy="216" r="3.5" fill="#FF7AC0"/>
    <circle cx="53" cy="228" r="3.5" fill="#FF7AC0"/>
    <circle cx="105" cy="252" r="3.5" fill="#FF7AC0"/>
  </g>
  <!-- printed title EN -->
  <text x="105" y="334" text-anchor="middle" font-family="system-ui, Helvetica, sans-serif" font-size="9.5" letter-spacing="3.5" fill="#8E877B">THE EMPRESS</text>
</svg>
