<svg class="arcana-svg" viewBox="0 0 210 363" xmlns="http://www.w3.org/2000/svg" role="img" aria-label="THE STAR">
  <defs>
    <clipPath id="band-17" clipPathUnits="userSpaceOnUse">
      <path d="M1,1 h208 v361 h-208 z M11,11 h188 v341 h-188 z" clip-rule="evenodd" fill-rule="evenodd"/>
    </clipPath>
  </defs>
  <!-- ground -->
  <rect x="1" y="1" width="208" height="361" rx="12" fill="#0B0908" stroke="#26211D"/>
  <!-- border band (clipped) -->
  <g clip-path="url(#band-17)">
    <circle cx="5.47" cy="5.40" r="2.10" fill="#2E5BFF"/><circle cx="18.67" cy="5.40" r="2.10" fill="#2E5BFF"/><circle cx="31.87" cy="5.40" r="2.10" fill="#2E5BFF"/><circle cx="45.07" cy="5.40" r="2.10" fill="#2E5BFF"/><circle cx="58.27" cy="5.40" r="2.10" fill="#2E5BFF"/><circle cx="71.47" cy="5.40" r="2.10" fill="#2E5BFF"/><circle cx="84.67" cy="5.40" r="2.10" fill="#2E5BFF"/><circle cx="97.87" cy="5.40" r="2.10" fill="#2E5BFF"/><circle cx="111.07" cy="5.40" r="2.10" fill="#2E5BFF"/><circle cx="124.27" cy="5.40" r="2.10" fill="#2E5BFF"/><circle cx="137.47" cy="5.40" r="2.10" fill="#2E5BFF"/><circle cx="150.67" cy="5.40" r="2.10" fill="#2E5BFF"/><circle cx="163.87" cy="5.40" r="2.10" fill="#2E5BFF"/><circle cx="177.07" cy="5.40" r="2.10" fill="#2E5BFF"/><circle cx="190.27" cy="5.40" r="2.10" fill="#2E5BFF"/><circle cx="203.47" cy="5.40" r="2.10" fill="#2E5BFF"/><circle cx="5.47" cy="18.40" r="2.10" fill="#2E5BFF"/><circle cx="18.67" cy="18.40" r="2.10" fill="#2E5BFF"/><circle cx="31.87" cy="18.40" r="2.10" fill="#2E5BFF"/><circle cx="45.07" cy="18.40" r="2.10" fill="#2E5BFF"/><circle cx="58.27" cy="18.40" r="2.10" fill="#2E5BFF"/><circle cx="71.47" cy="18.40" r="2.10" fill="#2E5BFF"/><circle cx="84.67" cy="18.40" r="2.10" fill="#2E5BFF"/><circle cx="97.87" cy="18.40" r="2.10" fill="#2E5BFF"/><circle cx="111.07" cy="18.40" r="2.10" fill="#2E5BFF"/><circle cx="124.27" cy="18.40" r="2.10" fill="#2E5BFF"/><circle cx="137.47" cy="18.40" r="2.10" fill="#2E5BFF"/><circle cx="150.67" cy="18.40" r="2.10" fill="#2E5BFF"/><circle cx="163.87" cy="18.40" r="2.10" fill="#2E5BFF"/><circle cx="177.07" cy="18.40" r="2.10" fill="#2E5BFF"/><circle cx="190.27" cy="18.40" r="2.10" fill="#2E5BFF"/><circle cx="203.47" cy="18.40" r="2.10" fill="#2E5BFF"/><circle cx="5.47" cy="31.40" r="2.10" fill="#2E5BFF"/><circle cx="18.67" cy="31.40" r="2.10" fill="#2E5BFF"/><circle cx="31.87" cy="31.40" r="2.10" fill="#2E5BFF"/><circle cx="45.07" cy="31.40" r="2.10" fill="#2E5BFF"/><circle cx="58.27" cy="31.40" r="2.10" fill="#2E5BFF"/><circle cx="71.47" cy="31.40" r="2.10" fill="#2E5BFF"/><circle cx="84.67" cy="31.40" r="2.10" fill="#2E5BFF"/><circle cx="97.87" cy="31.40" r="2.10" fill="#2E5BFF"/><circle cx="111.07" cy="31.40" r="2.10" fill="#2E5BFF"/><circle cx="124.27" cy="31.40" r="2.10" fill="#2E5BFF"/><circle cx="137.47" cy="31.40" r="2.10" fill="#2E5BFF"/><circle cx="150.67" cy="31.40" r="2.10" fill="#2E5BFF"/><circle cx="163.87" cy="31.40" r="2.10" fill="#2E5BFF"/><circle cx="177.07" cy="31.40" r="2.10" fill="#2E5BFF"/><circle cx="190.27" cy="31.40" r="2.10" fill="#2E5BFF"/><circle cx="203.47" cy="31.40" r="2.10" fill="#2E5BFF"/><circle cx="5.47" cy="44.40" r="2.10" fill="#2E5BFF"/><circle cx="18.67" cy="44.40" r="2.10" fill="#2E5BFF"/><circle cx="31.87" cy="44.40" r="2.10" fill="#2E5BFF"/><circle cx="45.07" cy="44.40" r="2.10" fill="#2E5BFF"/><circle cx="58.27" cy="44.40" r="2.10" fill="#2E5BFF"/><circle cx="71.47" cy="44.40" r="2.10" fill="#2E5BFF"/><circle cx="84.67" cy="44.40" r="2.10" fill="#2E5BFF"/><circle cx="97.87" cy="44.40" r="2.10" fill="#2E5BFF"/><circle cx="111.07" cy="44.40" r="2.10" fill="#2E5BFF"/><circle cx="124.27" cy="44.40" r="2.10" fill="#2E5BFF"/><circle cx="137.47" cy="44.40" r="2.10" fill="#2E5BFF"/><circle cx="150.67" cy="44.40" r="2.10" fill="#2E5BFF"/><circle cx="163.87" cy="44.40" r="2.10" fill="#2E5BFF"/><circle cx="177.07" cy="44.40" r="2.10" fill="#2E5BFF"/><circle cx="190.27" cy="44.40" r="2.10" fill="#2E5BFF"/><circle cx="203.47" cy="44.40" r="2.10" fill="#2E5BFF"/><circle cx="5.47" cy="57.40" r="2.10" fill="#2E5BFF"/><circle cx="18.67" cy="57.40" r="2.10" fill="#2E5BFF"/><circle cx="31.87" cy="57.40" r="2.10" fill="#2E5BFF"/><circle cx="45.07" cy="57.40" r="2.10" fill="#2E5BFF"/><circle cx="58.27" cy="57.40" r="2.10" fill="#2E5BFF"/><circle cx="71.47" cy="57.40" r="2.10" fill="#2E5BFF"/><circle cx="84.67" cy="57.40" r="2.10" fill="#2E5BFF"/><circle cx="97.87" cy="57.40" r="2.10" fill="#2E5BFF"/><circle cx="111.07" cy="57.40" r="2.10" fill="#2E5BFF"/><circle cx="124.27" cy="57.40" r="2.10" fill="#2E5BFF"/><circle cx="137.47" cy="57.40" r="2.10" fill="#2E5BFF"/><circle cx="150.67" cy="57.40" r="2.10" fill="#2E5BFF"/><circle cx="163.87" cy="57.40" r="2.10" fill="#2E5BFF"/><circle cx="177.07" cy="57.40" r="2.10" fill="#2E5BFF"/><circle cx="190.27" cy="57.40" r="2.10" fill="#2E5BFF"/><circle cx="203.47" cy="57.40" r="2.10" fill="#2E5BFF"/><circle cx="5.47" cy="70.40" r="2.10" fill="#2E5BFF"/><circle cx="18.67" cy="70.40" r="2.10" fill="#2E5BFF"/><circle cx="31.87" cy="70.40" r="2.10" fill="#2E5BFF"/><circle cx="45.07" cy="70.40" r="2.10" fill="#2E5BFF"/><circle cx="58.27" cy="70.40" r="2.10" fill="#2E5BFF"/><circle cx="71.47" cy="70.40" r="2.10" fill="#2E5BFF"/><circle cx="84.67" cy="70.40" r="2.10" fill="#2E5BFF"/><circle cx="97.87" cy="70.40" r="2.10" fill="#2E5BFF"/><circle cx="111.07" cy="70.40" r="2.10" fill="#2E5BFF"/><circle cx="124.27" cy="70.40" r="2.10" fill="#2E5BFF"/><circle cx="137.47" cy="70.40" r="2.10" fill="#2E5BFF"/><circle cx="150.67" cy="70.40" r="2.10" fill="#2E5BFF"/><circle cx="163.87" cy="70.40" r="2.10" fill="#2E5BFF"/><circle cx="177.07" cy="70.40" r="2.10" fill="#2E5BFF"/><circle cx="190.27" cy="70.40" r="2.10" fill="#2E5BFF"/><circle cx="203.47" cy="70.40" r="2.10" fill="#2E5BFF"/><circle cx="5.47" cy="83.40" r="2.10" fill="#2E5BFF"/><circle cx="18.67" cy="83.40" r="2.10" fill="#2E5BFF"/><circle cx="31.87" cy="83.40" r="2.10" fill="#2E5BFF"/><circle cx="45.07" cy="83.40" r="2.10" fill="#2E5BFF"/><circle cx="58.27" cy="83.40" r="2.10" fill="#2E5BFF"/><circle cx="71.47" cy="83.40" r="2.10" fill="#2E5BFF"/><circle cx="84.67" cy="83.40" r="2.10" fill="#2E5BFF"/><circle cx="97.87" cy="83.40" r="2.10" fill="#2E5BFF"/><circle cx="111.07" cy="83.40" r="2.10" fill="#2E5BFF"/><circle cx="124.27" cy="83.40" r="2.10" fill="#2E5BFF"/><circle cx="137.47" cy="83.40" r="2.10" fill="#2E5BFF"/><circle cx="150.67" cy="83.40" r="2.10" fill="#2E5BFF"/><circle cx="163.87" cy="83.40" r="2.10" fill="#2E5BFF"/><circle cx="177.07" cy="83.40" r="2.10" fill="#2E5BFF"/><circle cx="190.27" cy="83.40" r="2.10" fill="#2E5BFF"/><circle cx="203.47" cy="83.40" r="2.10" fill="#2E5BFF"/><circle cx="5.47" cy="96.40" r="2.10" fill="#2E5BFF"/><circle cx="18.67" cy="96.40" r="2.10" fill="#2E5BFF"/><circle cx="31.87" cy="96.40" r="2.10" fill="#2E5BFF"/><circle cx="45.07" cy="96.40" r="2.10" fill="#2E5BFF"/><circle cx="58.27" cy="96.40" r="2.10" fill="#2E5BFF"/><circle cx="71.47" cy="96.40" r="2.10" fill="#2E5BFF"/><circle cx="84.67" cy="96.40" r="2.10" fill="#2E5BFF"/><circle cx="97.87" cy="96.40" r="2.10" fill="#2E5BFF"/><circle cx="111.07" cy="96.40" r="2.10" fill="#2E5BFF"/><circle cx="124.27" cy="96.40" r="2.10" fill="#2E5BFF"/><circle cx="137.47" cy="96.40" r="2.10" fill="#2E5BFF"/><circle cx="150.67" cy="96.40" r="2.10" fill="#2E5BFF"/><circle cx="163.87" cy="96.40" r="2.10" fill="#2E5BFF"/><circle cx="177.07" cy="96.40" r="2.10" fill="#2E5BFF"/><circle cx="190.27" cy="96.40" r="2.10" fill="#2E5BFF"/><circle cx="203.47" cy="96.40" r="2.10" fill="#2E5BFF"/><circle cx="5.47" cy="109.40" r="2.10" fill="#2E5BFF"/><circle cx="18.67" cy="109.40" r="2.10" fill="#2E5BFF"/><circle cx="31.87" cy="109.40" r="2.10" fill="#2E5BFF"/><circle cx="45.07" cy="109.40" r="2.10" fill="#2E5BFF"/><circle cx="58.27" cy="109.40" r="2.10" fill="#2E5BFF"/><circle cx="71.47" cy="109.40" r="2.10" fill="#2E5BFF"/><circle cx="84.67" cy="109.40" r="2.10" fill="#2E5BFF"/><circle cx="97.87" cy="109.40" r="2.10" fill="#2E5BFF"/><circle cx="111.07" cy="109.40" r="2.10" fill="#2E5BFF"/><circle cx="124.27" cy="109.40" r="2.10" fill="#2E5BFF"/><circle cx="137.47" cy="109.40" r="2.10" fill="#2E5BFF"/><circle cx="150.67" cy="109.40" r="2.10" fill="#2E5BFF"/><circle cx="163.87" cy="109.40" r="2.10" fill="#2E5BFF"/><circle cx="177.07" cy="109.40" r="2.10" fill="#2E5BFF"/><circle cx="190.27" cy="109.40" r="2.10" fill="#2E5BFF"/><circle cx="203.47" cy="109.40" r="2.10" fill="#2E5BFF"/><circle cx="5.47" cy="122.40" r="2.10" fill="#2E5BFF"/><circle cx="18.67" cy="122.40" r="2.10" fill="#2E5BFF"/><circle cx="31.87" cy="122.40" r="2.10" fill="#2E5BFF"/><circle cx="45.07" cy="122.40" r="2.10" fill="#2E5BFF"/><circle cx="58.27" cy="122.40" r="2.10" fill="#2E5BFF"/><circle cx="71.47" cy="122.40" r="2.10" fill="#2E5BFF"/><circle cx="84.67" cy="122.40" r="2.10" fill="#2E5BFF"/><circle cx="97.87" cy="122.40" r="2.10" fill="#2E5BFF"/><circle cx="111.07" cy="122.40" r="2.10" fill="#2E5BFF"/><circle cx="124.27" cy="122.40" r="2.10" fill="#2E5BFF"/><circle cx="137.47" cy="122.40" r="2.10" fill="#2E5BFF"/><circle cx="150.67" cy="122.40" r="2.10" fill="#2E5BFF"/><circle cx="163.87" cy="122.40" r="2.10" fill="#2E5BFF"/><circle cx="177.07" cy="122.40" r="2.10" fill="#2E5BFF"/><circle cx="190.27" cy="122.40" r="2.10" fill="#2E5BFF"/><circle cx="203.47" cy="122.40" r="2.10" fill="#2E5BFF"/><circle cx="5.47" cy="135.40" r="2.10" fill="#2E5BFF"/><circle cx="18.67" cy="135.40" r="2.10" fill="#2E5BFF"/><circle cx="31.87" cy="135.40" r="2.10" fill="#2E5BFF"/><circle cx="45.07" cy="135.40" r="2.10" fill="#2E5BFF"/><circle cx="58.27" cy="135.40" r="2.10" fill="#2E5BFF"/><circle cx="71.47" cy="135.40" r="2.10" fill="#2E5BFF"/><circle cx="84.67" cy="135.40" r="2.10" fill="#2E5BFF"/><circle cx="97.87" cy="135.40" r="2.10" fill="#2E5BFF"/><circle cx="111.07" cy="135.40" r="2.10" fill="#2E5BFF"/><circle cx="124.27" cy="135.40" r="2.10" fill="#2E5BFF"/><circle cx="137.47" cy="135.40" r="2.10" fill="#2E5BFF"/><circle cx="150.67" cy="135.40" r="2.10" fill="#2E5BFF"/><circle cx="163.87" cy="135.40" r="2.10" fill="#2E5BFF"/><circle cx="177.07" cy="135.40" r="2.10" fill="#2E5BFF"/><circle cx="190.27" cy="135.40" r="2.10" fill="#2E5BFF"/><circle cx="203.47" cy="135.40" r="2.10" fill="#2E5BFF"/><circle cx="5.47" cy="148.40" r="2.10" fill="#2E5BFF"/><circle cx="18.67" cy="148.40" r="2.10" fill="#2E5BFF"/><circle cx="31.87" cy="148.40" r="2.10" fill="#2E5BFF"/><circle cx="45.07" cy="148.40" r="2.10" fill="#2E5BFF"/><circle cx="58.27" cy="148.40" r="2.10" fill="#2E5BFF"/><circle cx="71.47" cy="148.40" r="2.10" fill="#2E5BFF"/><circle cx="84.67" cy="148.40" r="2.10" fill="#2E5BFF"/><circle cx="97.87" cy="148.40" r="2.10" fill="#2E5BFF"/><circle cx="111.07" cy="148.40" r="2.10" fill="#2E5BFF"/><circle cx="124.27" cy="148.40" r="2.10" fill="#2E5BFF"/><circle cx="137.47" cy="148.40" r="2.10" fill="#2E5BFF"/><circle cx="150.67" cy="148.40" r="2.10" fill="#2E5BFF"/><circle cx="163.87" cy="148.40" r="2.10" fill="#2E5BFF"/><circle cx="177.07" cy="148.40" r="2.10" fill="#2E5BFF"/><circle cx="190.27" cy="148.40" r="2.10" fill="#2E5BFF"/><circle cx="203.47" cy="148.40" r="2.10" fill="#2E5BFF"/><circle cx="5.47" cy="161.40" r="2.10" fill="#2E5BFF"/><circle cx="18.67" cy="161.40" r="2.10" fill="#2E5BFF"/><circle cx="31.87" cy="161.40" r="2.10" fill="#2E5BFF"/><circle cx="45.07" cy="161.40" r="2.10" fill="#2E5BFF"/><circle cx="58.27" cy="161.40" r="2.10" fill="#2E5BFF"/><circle cx="71.47" cy="161.40" r="2.10" fill="#2E5BFF"/><circle cx="84.67" cy="161.40" r="2.10" fill="#2E5BFF"/><circle cx="97.87" cy="161.40" r="2.10" fill="#2E5BFF"/><circle cx="111.07" cy="161.40" r="2.10" fill="#2E5BFF"/><circle cx="124.27" cy="161.40" r="2.10" fill="#2E5BFF"/><circle cx="137.47" cy="161.40" r="2.10" fill="#2E5BFF"/><circle cx="150.67" cy="161.40" r="2.10" fill="#2E5BFF"/><circle cx="163.87" cy="161.40" r="2.10" fill="#2E5BFF"/><circle cx="177.07" cy="161.40" r="2.10" fill="#2E5BFF"/><circle cx="190.27" cy="161.40" r="2.10" fill="#2E5BFF"/><circle cx="203.47" cy="161.40" r="2.10" fill="#2E5BFF"/><circle cx="5.47" cy="174.40" r="2.10" fill="#2E5BFF"/><circle cx="18.67" cy="174.40" r="2.10" fill="#2E5BFF"/><circle cx="31.87" cy="174.40" r="2.10" fill="#2E5BFF"/><circle cx="45.07" cy="174.40" r="2.10" fill="#2E5BFF"/><circle cx="58.27" cy="174.40" r="2.10" fill="#2E5BFF"/><circle cx="71.47" cy="174.40" r="2.10" fill="#2E5BFF"/><circle cx="84.67" cy="174.40" r="2.10" fill="#2E5BFF"/><circle cx="97.87" cy="174.40" r="2.10" fill="#2E5BFF"/><circle cx="111.07" cy="174.40" r="2.10" fill="#2E5BFF"/><circle cx="124.27" cy="174.40" r="2.10" fill="#2E5BFF"/><circle cx="137.47" cy="174.40" r="2.10" fill="#2E5BFF"/><circle cx="150.67" cy="174.40" r="2.10" fill="#2E5BFF"/><circle cx="163.87" cy="174.40" r="2.10" fill="#2E5BFF"/><circle cx="177.07" cy="174.40" r="2.10" fill="#2E5BFF"/><circle cx="190.27" cy="174.40" r="2.10" fill="#2E5BFF"/><circle cx="203.47" cy="174.40" r="2.10" fill="#2E5BFF"/><circle cx="5.47" cy="187.40" r="2.10" fill="#2E5BFF"/><circle cx="18.67" cy="187.40" r="2.10" fill="#2E5BFF"/><circle cx="31.87" cy="187.40" r="2.10" fill="#2E5BFF"/><circle cx="45.07" cy="187.40" r="2.10" fill="#2E5BFF"/><circle cx="58.27" cy="187.40" r="2.10" fill="#2E5BFF"/><circle cx="71.47" cy="187.40" r="2.10" fill="#2E5BFF"/><circle cx="84.67" cy="187.40" r="2.10" fill="#2E5BFF"/><circle cx="97.87" cy="187.40" r="2.10" fill="#2E5BFF"/><circle cx="111.07" cy="187.40" r="2.10" fill="#2E5BFF"/><circle cx="124.27" cy="187.40" r="2.10" fill="#2E5BFF"/><circle cx="137.47" cy="187.40" r="2.10" fill="#2E5BFF"/><circle cx="150.67" cy="187.40" r="2.10" fill="#2E5BFF"/><circle cx="163.87" cy="187.40" r="2.10" fill="#2E5BFF"/><circle cx="177.07" cy="187.40" r="2.10" fill="#2E5BFF"/><circle cx="190.27" cy="187.40" r="2.10" fill="#2E5BFF"/><circle cx="203.47" cy="187.40" r="2.10" fill="#2E5BFF"/><circle cx="5.47" cy="200.40" r="2.10" fill="#2E5BFF"/><circle cx="18.67" cy="200.40" r="2.10" fill="#2E5BFF"/><circle cx="31.87" cy="200.40" r="2.10" fill="#2E5BFF"/><circle cx="45.07" cy="200.40" r="2.10" fill="#2E5BFF"/><circle cx="58.27" cy="200.40" r="2.10" fill="#2E5BFF"/><circle cx="71.47" cy="200.40" r="2.10" fill="#2E5BFF"/><circle cx="84.67" cy="200.40" r="2.10" fill="#2E5BFF"/><circle cx="97.87" cy="200.40" r="2.10" fill="#2E5BFF"/><circle cx="111.07" cy="200.40" r="2.10" fill="#2E5BFF"/><circle cx="124.27" cy="200.40" r="2.10" fill="#2E5BFF"/><circle cx="137.47" cy="200.40" r="2.10" fill="#2E5BFF"/><circle cx="150.67" cy="200.40" r="2.10" fill="#2E5BFF"/><circle cx="163.87" cy="200.40" r="2.10" fill="#2E5BFF"/><circle cx="177.07" cy="200.40" r="2.10" fill="#2E5BFF"/><circle cx="190.27" cy="200.40" r="2.10" fill="#2E5BFF"/><circle cx="203.47" cy="200.40" r="2.10" fill="#2E5BFF"/><circle cx="5.47" cy="213.40" r="2.10" fill="#2E5BFF"/><circle cx="18.67" cy="213.40" r="2.10" fill="#2E5BFF"/><circle cx="31.87" cy="213.40" r="2.10" fill="#2E5BFF"/><circle cx="45.07" cy="213.40" r="2.10" fill="#2E5BFF"/><circle cx="58.27" cy="213.40" r="2.10" fill="#2E5BFF"/><circle cx="71.47" cy="213.40" r="2.10" fill="#2E5BFF"/><circle cx="84.67" cy="213.40" r="2.10" fill="#2E5BFF"/><circle cx="97.87" cy="213.40" r="2.10" fill="#2E5BFF"/><circle cx="111.07" cy="213.40" r="2.10" fill="#2E5BFF"/><circle cx="124.27" cy="213.40" r="2.10" fill="#2E5BFF"/><circle cx="137.47" cy="213.40" r="2.10" fill="#2E5BFF"/><circle cx="150.67" cy="213.40" r="2.10" fill="#2E5BFF"/><circle cx="163.87" cy="213.40" r="2.10" fill="#2E5BFF"/><circle cx="177.07" cy="213.40" r="2.10" fill="#2E5BFF"/><circle cx="190.27" cy="213.40" r="2.10" fill="#2E5BFF"/><circle cx="203.47" cy="213.40" r="2.10" fill="#2E5BFF"/><circle cx="5.47" cy="226.40" r="2.10" fill="#2E5BFF"/><circle cx="18.67" cy="226.40" r="2.10" fill="#2E5BFF"/><circle cx="31.87" cy="226.40" r="2.10" fill="#2E5BFF"/><circle cx="45.07" cy="226.40" r="2.10" fill="#2E5BFF"/><circle cx="58.27" cy="226.40" r="2.10" fill="#2E5BFF"/><circle cx="71.47" cy="226.40" r="2.10" fill="#2E5BFF"/><circle cx="84.67" cy="226.40" r="2.10" fill="#2E5BFF"/><circle cx="97.87" cy="226.40" r="2.10" fill="#2E5BFF"/><circle cx="111.07" cy="226.40" r="2.10" fill="#2E5BFF"/><circle cx="124.27" cy="226.40" r="2.10" fill="#2E5BFF"/><circle cx="137.47" cy="226.40" r="2.10" fill="#2E5BFF"/><circle cx="150.67" cy="226.40" r="2.10" fill="#2E5BFF"/><circle cx="163.87" cy="226.40" r="2.10" fill="#2E5BFF"/><circle cx="177.07" cy="226.40" r="2.10" fill="#2E5BFF"/><circle cx="190.27" cy="226.40" r="2.10" fill="#2E5BFF"/><circle cx="203.47" cy="226.40" r="2.10" fill="#2E5BFF"/><circle cx="5.47" cy="239.40" r="2.10" fill="#2E5BFF"/><circle cx="18.67" cy="239.40" r="2.10" fill="#2E5BFF"/><circle cx="31.87" cy="239.40" r="2.10" fill="#2E5BFF"/><circle cx="45.07" cy="239.40" r="2.10" fill="#2E5BFF"/><circle cx="58.27" cy="239.40" r="2.10" fill="#2E5BFF"/><circle cx="71.47" cy="239.40" r="2.10" fill="#2E5BFF"/><circle cx="84.67" cy="239.40" r="2.10" fill="#2E5BFF"/><circle cx="97.87" cy="239.40" r="2.10" fill="#2E5BFF"/><circle cx="111.07" cy="239.40" r="2.10" fill="#2E5BFF"/><circle cx="124.27" cy="239.40" r="2.10" fill="#2E5BFF"/><circle cx="137.47" cy="239.40" r="2.10" fill="#2E5BFF"/><circle cx="150.67" cy="239.40" r="2.10" fill="#2E5BFF"/><circle cx="163.87" cy="239.40" r="2.10" fill="#2E5BFF"/><circle cx="177.07" cy="239.40" r="2.10" fill="#2E5BFF"/><circle cx="190.27" cy="239.40" r="2.10" fill="#2E5BFF"/><circle cx="203.47" cy="239.40" r="2.10" fill="#2E5BFF"/><circle cx="5.47" cy="252.40" r="2.10" fill="#2E5BFF"/><circle cx="18.67" cy="252.40" r="2.10" fill="#2E5BFF"/><circle cx="31.87" cy="252.40" r="2.10" fill="#2E5BFF"/><circle cx="45.07" cy="252.40" r="2.10" fill="#2E5BFF"/><circle cx="58.27" cy="252.40" r="2.10" fill="#2E5BFF"/><circle cx="71.47" cy="252.40" r="2.10" fill="#2E5BFF"/><circle cx="84.67" cy="252.40" r="2.10" fill="#2E5BFF"/><circle cx="97.87" cy="252.40" r="2.10" fill="#2E5BFF"/><circle cx="111.07" cy="252.40" r="2.10" fill="#2E5BFF"/><circle cx="124.27" cy="252.40" r="2.10" fill="#2E5BFF"/><circle cx="137.47" cy="252.40" r="2.10" fill="#2E5BFF"/><circle cx="150.67" cy="252.40" r="2.10" fill="#2E5BFF"/><circle cx="163.87" cy="252.40" r="2.10" fill="#2E5BFF"/><circle cx="177.07" cy="252.40" r="2.10" fill="#2E5BFF"/><circle cx="190.27" cy="252.40" r="2.10" fill="#2E5BFF"/><circle cx="203.47" cy="252.40" r="2.10" fill="#2E5BFF"/><circle cx="5.47" cy="265.40" r="2.10" fill="#2E5BFF"/><circle cx="18.67" cy="265.40" r="2.10" fill="#2E5BFF"/><circle cx="31.87" cy="265.40" r="2.10" fill="#2E5BFF"/><circle cx="45.07" cy="265.40" r="2.10" fill="#2E5BFF"/><circle cx="58.27" cy="265.40" r="2.10" fill="#2E5BFF"/><circle cx="71.47" cy="265.40" r="2.10" fill="#2E5BFF"/><circle cx="84.67" cy="265.40" r="2.10" fill="#2E5BFF"/><circle cx="97.87" cy="265.40" r="2.10" fill="#2E5BFF"/><circle cx="111.07" cy="265.40" r="2.10" fill="#2E5BFF"/><circle cx="124.27" cy="265.40" r="2.10" fill="#2E5BFF"/><circle cx="137.47" cy="265.40" r="2.10" fill="#2E5BFF"/><circle cx="150.67" cy="265.40" r="2.10" fill="#2E5BFF"/><circle cx="163.87" cy="265.40" r="2.10" fill="#2E5BFF"/><circle cx="177.07" cy="265.40" r="2.10" fill="#2E5BFF"/><circle cx="190.27" cy="265.40" r="2.10" fill="#2E5BFF"/><circle cx="203.47" cy="265.40" r="2.10" fill="#2E5BFF"/><circle cx="5.47" cy="278.40" r="2.10" fill="#2E5BFF"/><circle cx="18.67" cy="278.40" r="2.10" fill="#2E5BFF"/><circle cx="31.87" cy="278.40" r="2.10" fill="#2E5BFF"/><circle cx="45.07" cy="278.40" r="2.10" fill="#2E5BFF"/><circle cx="58.27" cy="278.40" r="2.10" fill="#2E5BFF"/><circle cx="71.47" cy="278.40" r="2.10" fill="#2E5BFF"/><circle cx="84.67" cy="278.40" r="2.10" fill="#2E5BFF"/><circle cx="97.87" cy="278.40" r="2.10" fill="#2E5BFF"/><circle cx="111.07" cy="278.40" r="2.10" fill="#2E5BFF"/><circle cx="124.27" cy="278.40" r="2.10" fill="#2E5BFF"/><circle cx="137.47" cy="278.40" r="2.10" fill="#2E5BFF"/><circle cx="150.67" cy="278.40" r="2.10" fill="#2E5BFF"/><circle cx="163.87" cy="278.40" r="2.10" fill="#2E5BFF"/><circle cx="177.07" cy="278.40" r="2.10" fill="#2E5BFF"/><circle cx="190.27" cy="278.40" r="2.10" fill="#2E5BFF"/><circle cx="203.47" cy="278.40" r="2.10" fill="#2E5BFF"/><circle cx="5.47" cy="291.40" r="2.10" fill="#2E5BFF"/><circle cx="18.67" cy="291.40" r="2.10" fill="#2E5BFF"/><circle cx="31.87" cy="291.40" r="2.10" fill="#2E5BFF"/><circle cx="45.07" cy="291.40" r="2.10" fill="#2E5BFF"/><circle cx="58.27" cy="291.40" r="2.10" fill="#2E5BFF"/><circle cx="71.47" cy="291.40" r="2.10" fill="#2E5BFF"/><circle cx="84.67" cy="291.40" r="2.10" fill="#2E5BFF"/><circle cx="97.87" cy="291.40" r="2.10" fill="#2E5BFF"/><circle cx="111.07" cy="291.40" r="2.10" fill="#2E5BFF"/><circle cx="124.27" cy="291.40" r="2.10" fill="#2E5BFF"/><circle cx="137.47" cy="291.40" r="2.10" fill="#2E5BFF"/><circle cx="150.67" cy="291.40" r="2.10" fill="#2E5BFF"/><circle cx="163.87" cy="291.40" r="2.10" fill="#2E5BFF"/><circle cx="177.07" cy="291.40" r="2.10" fill="#2E5BFF"/><circle cx="190.27" cy="291.40" r="2.10" fill="#2E5BFF"/><circle cx="203.47" cy="291.40" r="2.10" fill="#2E5BFF"/><circle cx="5.47" cy="304.40" r="2.10" fill="#2E5BFF"/><circle cx="18.67" cy="304.40" r="2.10" fill="#2E5BFF"/><circle cx="31.87" cy="304.40" r="2.10" fill="#2E5BFF"/><circle cx="45.07" cy="304.40" r="2.10" fill="#2E5BFF"/><circle cx="58.27" cy="304.40" r="2.10" fill="#2E5BFF"/><circle cx="71.47" cy="304.40" r="2.10" fill="#2E5BFF"/><circle cx="84.67" cy="304.40" r="2.10" fill="#2E5BFF"/><circle cx="97.87" cy="304.40" r="2.10" fill="#2E5BFF"/><circle cx="111.07" cy="304.40" r="2.10" fill="#2E5BFF"/><circle cx="124.27" cy="304.40" r="2.10" fill="#2E5BFF"/><circle cx="137.47" cy="304.40" r="2.10" fill="#2E5BFF"/><circle cx="150.67" cy="304.40" r="2.10" fill="#2E5BFF"/><circle cx="163.87" cy="304.40" r="2.10" fill="#2E5BFF"/><circle cx="177.07" cy="304.40" r="2.10" fill="#2E5BFF"/><circle cx="190.27" cy="304.40" r="2.10" fill="#2E5BFF"/><circle cx="203.47" cy="304.40" r="2.10" fill="#2E5BFF"/><circle cx="5.47" cy="317.40" r="2.10" fill="#2E5BFF"/><circle cx="18.67" cy="317.40" r="2.10" fill="#2E5BFF"/><circle cx="31.87" cy="317.40" r="2.10" fill="#2E5BFF"/><circle cx="45.07" cy="317.40" r="2.10" fill="#2E5BFF"/><circle cx="58.27" cy="317.40" r="2.10" fill="#2E5BFF"/><circle cx="71.47" cy="317.40" r="2.10" fill="#2E5BFF"/><circle cx="84.67" cy="317.40" r="2.10" fill="#2E5BFF"/><circle cx="97.87" cy="317.40" r="2.10" fill="#2E5BFF"/><circle cx="111.07" cy="317.40" r="2.10" fill="#2E5BFF"/><circle cx="124.27" cy="317.40" r="2.10" fill="#2E5BFF"/><circle cx="137.47" cy="317.40" r="2.10" fill="#2E5BFF"/><circle cx="150.67" cy="317.40" r="2.10" fill="#2E5BFF"/><circle cx="163.87" cy="317.40" r="2.10" fill="#2E5BFF"/><circle cx="177.07" cy="317.40" r="2.10" fill="#2E5BFF"/><circle cx="190.27" cy="317.40" r="2.10" fill="#2E5BFF"/><circle cx="203.47" cy="317.40" r="2.10" fill="#2E5BFF"/><circle cx="5.47" cy="330.40" r="2.10" fill="#2E5BFF"/><circle cx="18.67" cy="330.40" r="2.10" fill="#2E5BFF"/><circle cx="31.87" cy="330.40" r="2.10" fill="#2E5BFF"/><circle cx="45.07" cy="330.40" r="2.10" fill="#2E5BFF"/><circle cx="58.27" cy="330.40" r="2.10" fill="#2E5BFF"/><circle cx="71.47" cy="330.40" r="2.10" fill="#2E5BFF"/><circle cx="84.67" cy="330.40" r="2.10" fill="#2E5BFF"/><circle cx="97.87" cy="330.40" r="2.10" fill="#2E5BFF"/><circle cx="111.07" cy="330.40" r="2.10" fill="#2E5BFF"/><circle cx="124.27" cy="330.40" r="2.10" fill="#2E5BFF"/><circle cx="137.47" cy="330.40" r="2.10" fill="#2E5BFF"/><circle cx="150.67" cy="330.40" r="2.10" fill="#2E5BFF"/><circle cx="163.87" cy="330.40" r="2.10" fill="#2E5BFF"/><circle cx="177.07" cy="330.40" r="2.10" fill="#2E5BFF"/><circle cx="190.27" cy="330.40" r="2.10" fill="#2E5BFF"/><circle cx="203.47" cy="330.40" r="2.10" fill="#2E5BFF"/><circle cx="5.47" cy="343.40" r="2.10" fill="#2E5BFF"/><circle cx="18.67" cy="343.40" r="2.10" fill="#2E5BFF"/><circle cx="31.87" cy="343.40" r="2.10" fill="#2E5BFF"/><circle cx="45.07" cy="343.40" r="2.10" fill="#2E5BFF"/><circle cx="58.27" cy="343.40" r="2.10" fill="#2E5BFF"/><circle cx="71.47" cy="343.40" r="2.10" fill="#2E5BFF"/><circle cx="84.67" cy="343.40" r="2.10" fill="#2E5BFF"/><circle cx="97.87" cy="343.40" r="2.10" fill="#2E5BFF"/><circle cx="111.07" cy="343.40" r="2.10" fill="#2E5BFF"/><circle cx="124.27" cy="343.40" r="2.10" fill="#2E5BFF"/><circle cx="137.47" cy="343.40" r="2.10" fill="#2E5BFF"/><circle cx="150.67" cy="343.40" r="2.10" fill="#2E5BFF"/><circle cx="163.87" cy="343.40" r="2.10" fill="#2E5BFF"/><circle cx="177.07" cy="343.40" r="2.10" fill="#2E5BFF"/><circle cx="190.27" cy="343.40" r="2.10" fill="#2E5BFF"/><circle cx="203.47" cy="343.40" r="2.10" fill="#2E5BFF"/><circle cx="5.47" cy="356.40" r="2.10" fill="#2E5BFF"/><circle cx="18.67" cy="356.40" r="2.10" fill="#2E5BFF"/><circle cx="31.87" cy="356.40" r="2.10" fill="#2E5BFF"/><circle cx="45.07" cy="356.40" r="2.10" fill="#2E5BFF"/><circle cx="58.27" cy="356.40" r="2.10" fill="#2E5BFF"/><circle cx="71.47" cy="356.40" r="2.10" fill="#2E5BFF"/><circle cx="84.67" cy="356.40" r="2.10" fill="#2E5BFF"/><circle cx="97.87" cy="356.40" r="2.10" fill="#2E5BFF"/><circle cx="111.07" cy="356.40" r="2.10" fill="#2E5BFF"/><circle cx="124.27" cy="356.40" r="2.10" fill="#2E5BFF"/><circle cx="137.47" cy="356.40" r="2.10" fill="#2E5BFF"/><circle cx="150.67" cy="356.40" r="2.10" fill="#2E5BFF"/><circle cx="163.87" cy="356.40" r="2.10" fill="#2E5BFF"/><circle cx="177.07" cy="356.40" r="2.10" fill="#2E5BFF"/><circle cx="190.27" cy="356.40" r="2.10" fill="#2E5BFF"/><circle cx="203.47" cy="356.40" r="2.10" fill="#2E5BFF"/>
  </g>
  <!-- outer stroke on top -->
  <rect x="1" y="1" width="208" height="361" rx="12" fill="none" stroke="#26211D"/>
  <!-- inner field -->
  <rect x="11" y="11" width="188" height="341" rx="7" fill="#0B0908"/>
  <rect x="11.5" y="11.5" width="187" height="340" rx="7" fill="none" stroke="#F4EEE2" stroke-opacity="0.12"/>
  <!-- numeral (overlay top, tracking ~6) -->
  <text x="105" y="46" text-anchor="middle" font-family="Georgia, 'Times New Roman', serif" font-size="17" letter-spacing="6" fill="#F4EEE2">XVII</text>
  <!-- sigil -->
  <g>
    <polygon points="105,112 141,148 105,184 69,148" fill="#FFD43A"/>
    <rect x="79.5" y="122.5" width="51" height="51" fill="#FFD43A"/>
    <circle cx="105" cy="90" r="2" fill="#F4EEE2"/>
    <circle cx="146" cy="107" r="2" fill="#F4EEE2"/>
    <circle cx="163" cy="148" r="2" fill="#F4EEE2"/>
    <circle cx="146" cy="189" r="2" fill="#F4EEE2"/>
    <circle cx="64" cy="189" r="2" fill="#F4EEE2"/>
    <circle cx="47" cy="148" r="2" fill="#F4EEE2"/>
    <circle cx="64" cy="107" r="2" fill="#F4EEE2"/>
    <circle cx="105" cy="206" r="2" fill="#F4EEE2"/>
    <line x1="105" y1="206" x2="105" y2="298" stroke="#2E5BFF" stroke-width="2.5" stroke-linecap="round"/>
  </g>
  <!-- printed title EN -->
  <text x="105" y="334" text-anchor="middle" font-family="system-ui, Helvetica, sans-serif" font-size="9.5" letter-spacing="3.5" fill="#8E877B">THE STAR</text>
</svg>
