<svg class="arcana-svg" viewBox="0 0 210 363" xmlns="http://www.w3.org/2000/svg" role="img" aria-label="THE CHARIOT">
  <defs>
    <clipPath id="band-7" clipPathUnits="userSpaceOnUse">
      <path d="M1,1 h208 v361 h-208 z M11,11 h188 v341 h-188 z" clip-rule="evenodd" fill-rule="evenodd"/>
    </clipPath>
  </defs>
  <!-- ground -->
  <rect x="1" y="1" width="208" height="361" rx="12" fill="#0B0908" stroke="#26211D"/>
  <!-- border band (clipped) -->
  <g clip-path="url(#band-7)">
    <path d="M1.00,12.03 L5.12,5.01 L9.25,12.03 L13.38,5.01 L17.50,12.03" fill="none" stroke="#2E5BFF" stroke-width="2.41" stroke-linejoin="round"/><path d="M17.50,12.03 L21.62,5.01 L25.75,12.03 L29.88,5.01 L34.00,12.03" fill="none" stroke="#2E5BFF" stroke-width="2.41" stroke-linejoin="round"/><path d="M34.00,12.03 L38.12,5.01 L42.25,12.03 L46.38,5.01 L50.50,12.03" fill="none" stroke="#2E5BFF" stroke-width="2.41" stroke-linejoin="round"/><path d="M50.50,12.03 L54.62,5.01 L58.75,12.03 L62.88,5.01 L67.00,12.03" fill="none" stroke="#2E5BFF" stroke-width="2.41" stroke-linejoin="round"/><path d="M67.00,12.03 L71.12,5.01 L75.25,12.03 L79.38,5.01 L83.50,12.03" fill="none" stroke="#2E5BFF" stroke-width="2.41" stroke-linejoin="round"/><path d="M83.50,12.03 L87.62,5.01 L91.75,12.03 L95.88,5.01 L100.00,12.03" fill="none" stroke="#2E5BFF" stroke-width="2.41" stroke-linejoin="round"/><path d="M100.00,12.03 L104.12,5.01 L108.25,12.03 L112.38,5.01 L116.50,12.03" fill="none" stroke="#2E5BFF" stroke-width="2.41" stroke-linejoin="round"/><path d="M116.50,12.03 L120.62,5.01 L124.75,12.03 L128.88,5.01 L133.00,12.03" fill="none" stroke="#2E5BFF" stroke-width="2.41" stroke-linejoin="round"/><path d="M133.00,12.03 L137.12,5.01 L141.25,12.03 L145.38,5.01 L149.50,12.03" fill="none" stroke="#2E5BFF" stroke-width="2.41" stroke-linejoin="round"/><path d="M149.50,12.03 L153.62,5.01 L157.75,12.03 L161.88,5.01 L166.00,12.03" fill="none" stroke="#2E5BFF" stroke-width="2.41" stroke-linejoin="round"/><path d="M166.00,12.03 L170.12,5.01 L174.25,12.03 L178.38,5.01 L182.50,12.03" fill="none" stroke="#2E5BFF" stroke-width="2.41" stroke-linejoin="round"/><path d="M182.50,12.03 L186.62,5.01 L190.75,12.03 L194.88,5.01 L199.00,12.03" fill="none" stroke="#2E5BFF" stroke-width="2.41" stroke-linejoin="round"/><path d="M199.00,12.03 L203.12,5.01 L207.25,12.03 L211.38,5.01 L215.50,12.03" fill="none" stroke="#2E5BFF" stroke-width="2.41" stroke-linejoin="round"/><path d="M1.00,26.07 L5.12,19.05 L9.25,26.07 L13.38,19.05 L17.50,26.07" fill="none" stroke="#2E5BFF" stroke-width="2.41" stroke-linejoin="round"/><path d="M17.50,26.07 L21.62,19.05 L25.75,26.07 L29.88,19.05 L34.00,26.07" fill="none" stroke="#2E5BFF" stroke-width="2.41" stroke-linejoin="round"/><path d="M34.00,26.07 L38.12,19.05 L42.25,26.07 L46.38,19.05 L50.50,26.07" fill="none" stroke="#2E5BFF" stroke-width="2.41" stroke-linejoin="round"/><path d="M50.50,26.07 L54.62,19.05 L58.75,26.07 L62.88,19.05 L67.00,26.07" fill="none" stroke="#2E5BFF" stroke-width="2.41" stroke-linejoin="round"/><path d="M67.00,26.07 L71.12,19.05 L75.25,26.07 L79.38,19.05 L83.50,26.07" fill="none" stroke="#2E5BFF" stroke-width="2.41" stroke-linejoin="round"/><path d="M83.50,26.07 L87.62,19.05 L91.75,26.07 L95.88,19.05 L100.00,26.07" fill="none" stroke="#2E5BFF" stroke-width="2.41" stroke-linejoin="round"/><path d="M100.00,26.07 L104.12,19.05 L108.25,26.07 L112.38,19.05 L116.50,26.07" fill="none" stroke="#2E5BFF" stroke-width="2.41" stroke-linejoin="round"/><path d="M116.50,26.07 L120.62,19.05 L124.75,26.07 L128.88,19.05 L133.00,26.07" fill="none" stroke="#2E5BFF" stroke-width="2.41" stroke-linejoin="round"/><path d="M133.00,26.07 L137.12,19.05 L141.25,26.07 L145.38,19.05 L149.50,26.07" fill="none" stroke="#2E5BFF" stroke-width="2.41" stroke-linejoin="round"/><path d="M149.50,26.07 L153.62,19.05 L157.75,26.07 L161.88,19.05 L166.00,26.07" fill="none" stroke="#2E5BFF" stroke-width="2.41" stroke-linejoin="round"/><path d="M166.00,26.07 L170.12,19.05 L174.25,26.07 L178.38,19.05 L182.50,26.07" fill="none" stroke="#2E5BFF" stroke-width="2.41" stroke-linejoin="round"/><path d="M182.50,26.07 L186.62,19.05 L190.75,26.07 L194.88,19.05 L199.00,26.07" fill="none" stroke="#2E5BFF" stroke-width="2.41" stroke-linejoin="round"/><path d="M199.00,26.07 L203.12,19.05 L207.25,26.07 L211.38,19.05 L215.50,26.07" fill="none" stroke="#2E5BFF" stroke-width="2.41" stroke-linejoin="round"/><path d="M1.00,40.11 L5.12,33.09 L9.25,40.11 L13.38,33.09 L17.50,40.11" fill="none" stroke="#2E5BFF" stroke-width="2.41" stroke-linejoin="round"/><path d="M17.50,40.11 L21.62,33.09 L25.75,40.11 L29.88,33.09 L34.00,40.11" fill="none" stroke="#2E5BFF" stroke-width="2.41" stroke-linejoin="round"/><path d="M34.00,40.11 L38.12,33.09 L42.25,40.11 L46.38,33.09 L50.50,40.11" fill="none" stroke="#2E5BFF" stroke-width="2.41" stroke-linejoin="round"/><path d="M50.50,40.11 L54.62,33.09 L58.75,40.11 L62.88,33.09 L67.00,40.11" fill="none" stroke="#2E5BFF" stroke-width="2.41" stroke-linejoin="round"/><path d="M67.00,40.11 L71.12,33.09 L75.25,40.11 L79.38,33.09 L83.50,40.11" fill="none" stroke="#2E5BFF" stroke-width="2.41" stroke-linejoin="round"/><path d="M83.50,40.11 L87.62,33.09 L91.75,40.11 L95.88,33.09 L100.00,40.11" fill="none" stroke="#2E5BFF" stroke-width="2.41" stroke-linejoin="round"/><path d="M100.00,40.11 L104.12,33.09 L108.25,40.11 L112.38,33.09 L116.50,40.11" fill="none" stroke="#2E5BFF" stroke-width="2.41" stroke-linejoin="round"/><path d="M116.50,40.11 L120.62,33.09 L124.75,40.11 L128.88,33.09 L133.00,40.11" fill="none" stroke="#2E5BFF" stroke-width="2.41" stroke-linejoin="round"/><path d="M133.00,40.11 L137.12,33.09 L141.25,40.11 L145.38,33.09 L149.50,40.11" fill="none" stroke="#2E5BFF" stroke-width="2.41" stroke-linejoin="round"/><path d="M149.50,40.11 L153.62,33.09 L157.75,40.11 L161.88,33.09 L166.00,40.11" fill="none" stroke="#2E5BFF" stroke-width="2.41" stroke-linejoin="round"/><path d="M166.00,40.11 L170.12,33.09 L174.25,40.11 L178.38,33.09 L182.50,40.11" fill="none" stroke="#2E5BFF" stroke-width="2.41" stroke-linejoin="round"/><path d="M182.50,40.11 L186.62,33.09 L190.75,40.11 L194.88,33.09 L199.00,40.11" fill="none" stroke="#2E5BFF" stroke-width="2.41" stroke-linejoin="round"/><path d="M199.00,40.11 L203.12,33.09 L207.25,40.11 L211.38,33.09 L215.50,40.11" fill="none" stroke="#2E5BFF" stroke-width="2.41" stroke-linejoin="round"/><path d="M1.00,54.15 L5.12,47.13 L9.25,54.15 L13.38,47.13 L17.50,54.15" fill="none" stroke="#2E5BFF" stroke-width="2.41" stroke-linejoin="round"/><path d="M17.50,54.15 L21.62,47.13 L25.75,54.15 L29.88,47.13 L34.00,54.15" fill="none" stroke="#2E5BFF" stroke-width="2.41" stroke-linejoin="round"/><path d="M34.00,54.15 L38.12,47.13 L42.25,54.15 L46.38,47.13 L50.50,54.15" fill="none" stroke="#2E5BFF" stroke-width="2.41" stroke-linejoin="round"/><path d="M50.50,54.15 L54.62,47.13 L58.75,54.15 L62.88,47.13 L67.00,54.15" fill="none" stroke="#2E5BFF" stroke-width="2.41" stroke-linejoin="round"/><path d="M67.00,54.15 L71.12,47.13 L75.25,54.15 L79.38,47.13 L83.50,54.15" fill="none" stroke="#2E5BFF" stroke-width="2.41" stroke-linejoin="round"/><path d="M83.50,54.15 L87.62,47.13 L91.75,54.15 L95.88,47.13 L100.00,54.15" fill="none" stroke="#2E5BFF" stroke-width="2.41" stroke-linejoin="round"/><path d="M100.00,54.15 L104.12,47.13 L108.25,54.15 L112.38,47.13 L116.50,54.15" fill="none" stroke="#2E5BFF" stroke-width="2.41" stroke-linejoin="round"/><path d="M116.50,54.15 L120.62,47.13 L124.75,54.15 L128.88,47.13 L133.00,54.15" fill="none" stroke="#2E5BFF" stroke-width="2.41" stroke-linejoin="round"/><path d="M133.00,54.15 L137.12,47.13 L141.25,54.15 L145.38,47.13 L149.50,54.15" fill="none" stroke="#2E5BFF" stroke-width="2.41" stroke-linejoin="round"/><path d="M149.50,54.15 L153.62,47.13 L157.75,54.15 L161.88,47.13 L166.00,54.15" fill="none" stroke="#2E5BFF" stroke-width="2.41" stroke-linejoin="round"/><path d="M166.00,54.15 L170.12,47.13 L174.25,54.15 L178.38,47.13 L182.50,54.15" fill="none" stroke="#2E5BFF" stroke-width="2.41" stroke-linejoin="round"/><path d="M182.50,54.15 L186.62,47.13 L190.75,54.15 L194.88,47.13 L199.00,54.15" fill="none" stroke="#2E5BFF" stroke-width="2.41" stroke-linejoin="round"/><path d="M199.00,54.15 L203.12,47.13 L207.25,54.15 L211.38,47.13 L215.50,54.15" fill="none" stroke="#2E5BFF" stroke-width="2.41" stroke-linejoin="round"/><path d="M1.00,68.19 L5.12,61.17 L9.25,68.19 L13.38,61.17 L17.50,68.19" fill="none" stroke="#2E5BFF" stroke-width="2.41" stroke-linejoin="round"/><path d="M17.50,68.19 L21.62,61.17 L25.75,68.19 L29.88,61.17 L34.00,68.19" fill="none" stroke="#2E5BFF" stroke-width="2.41" stroke-linejoin="round"/><path d="M34.00,68.19 L38.12,61.17 L42.25,68.19 L46.38,61.17 L50.50,68.19" fill="none" stroke="#2E5BFF" stroke-width="2.41" stroke-linejoin="round"/><path d="M50.50,68.19 L54.62,61.17 L58.75,68.19 L62.88,61.17 L67.00,68.19" fill="none" stroke="#2E5BFF" stroke-width="2.41" stroke-linejoin="round"/><path d="M67.00,68.19 L71.12,61.17 L75.25,68.19 L79.38,61.17 L83.50,68.19" fill="none" stroke="#2E5BFF" stroke-width="2.41" stroke-linejoin="round"/><path d="M83.50,68.19 L87.62,61.17 L91.75,68.19 L95.88,61.17 L100.00,68.19" fill="none" stroke="#2E5BFF" stroke-width="2.41" stroke-linejoin="round"/><path d="M100.00,68.19 L104.12,61.17 L108.25,68.19 L112.38,61.17 L116.50,68.19" fill="none" stroke="#2E5BFF" stroke-width="2.41" stroke-linejoin="round"/><path d="M116.50,68.19 L120.62,61.17 L124.75,68.19 L128.88,61.17 L133.00,68.19" fill="none" stroke="#2E5BFF" stroke-width="2.41" stroke-linejoin="round"/><path d="M133.00,68.19 L137.12,61.17 L141.25,68.19 L145.38,61.17 L149.50,68.19" fill="none" stroke="#2E5BFF" stroke-width="2.41" stroke-linejoin="round"/><path d="M149.50,68.19 L153.62,61.17 L157.75,68.19 L161.88,61.17 L166.00,68.19" fill="none" stroke="#2E5BFF" stroke-width="2.41" stroke-linejoin="round"/><path d="M166.00,68.19 L170.12,61.17 L174.25,68.19 L178.38,61.17 L182.50,68.19" fill="none" stroke="#2E5BFF" stroke-width="2.41" stroke-linejoin="round"/><path d="M182.50,68.19 L186.62,61.17 L190.75,68.19 L194.88,61.17 L199.00,68.19" fill="none" stroke="#2E5BFF" stroke-width="2.41" stroke-linejoin="round"/><path d="M199.00,68.19 L203.12,61.17 L207.25,68.19 L211.38,61.17 L215.50,68.19" fill="none" stroke="#2E5BFF" stroke-width="2.41" stroke-linejoin="round"/><path d="M1.00,82.23 L5.12,75.21 L9.25,82.23 L13.38,75.21 L17.50,82.23" fill="none" stroke="#2E5BFF" stroke-width="2.41" stroke-linejoin="round"/><path d="M17.50,82.23 L21.62,75.21 L25.75,82.23 L29.88,75.21 L34.00,82.23" fill="none" stroke="#2E5BFF" stroke-width="2.41" stroke-linejoin="round"/><path d="M34.00,82.23 L38.12,75.21 L42.25,82.23 L46.38,75.21 L50.50,82.23" fill="none" stroke="#2E5BFF" stroke-width="2.41" stroke-linejoin="round"/><path d="M50.50,82.23 L54.62,75.21 L58.75,82.23 L62.88,75.21 L67.00,82.23" fill="none" stroke="#2E5BFF" stroke-width="2.41" stroke-linejoin="round"/><path d="M67.00,82.23 L71.12,75.21 L75.25,82.23 L79.38,75.21 L83.50,82.23" fill="none" stroke="#2E5BFF" stroke-width="2.41" stroke-linejoin="round"/><path d="M83.50,82.23 L87.62,75.21 L91.75,82.23 L95.88,75.21 L100.00,82.23" fill="none" stroke="#2E5BFF" stroke-width="2.41" stroke-linejoin="round"/><path d="M100.00,82.23 L104.12,75.21 L108.25,82.23 L112.38,75.21 L116.50,82.23" fill="none" stroke="#2E5BFF" stroke-width="2.41" stroke-linejoin="round"/><path d="M116.50,82.23 L120.62,75.21 L124.75,82.23 L128.88,75.21 L133.00,82.23" fill="none" stroke="#2E5BFF" stroke-width="2.41" stroke-linejoin="round"/><path d="M133.00,82.23 L137.12,75.21 L141.25,82.23 L145.38,75.21 L149.50,82.23" fill="none" stroke="#2E5BFF" stroke-width="2.41" stroke-linejoin="round"/><path d="M149.50,82.23 L153.62,75.21 L157.75,82.23 L161.88,75.21 L166.00,82.23" fill="none" stroke="#2E5BFF" stroke-width="2.41" stroke-linejoin="round"/><path d="M166.00,82.23 L170.12,75.21 L174.25,82.23 L178.38,75.21 L182.50,82.23" fill="none" stroke="#2E5BFF" stroke-width="2.41" stroke-linejoin="round"/><path d="M182.50,82.23 L186.62,75.21 L190.75,82.23 L194.88,75.21 L199.00,82.23" fill="none" stroke="#2E5BFF" stroke-width="2.41" stroke-linejoin="round"/><path d="M199.00,82.23 L203.12,75.21 L207.25,82.23 L211.38,75.21 L215.50,82.23" fill="none" stroke="#2E5BFF" stroke-width="2.41" stroke-linejoin="round"/><path d="M1.00,96.27 L5.12,89.25 L9.25,96.27 L13.38,89.25 L17.50,96.27" fill="none" stroke="#2E5BFF" stroke-width="2.41" stroke-linejoin="round"/><path d="M17.50,96.27 L21.62,89.25 L25.75,96.27 L29.88,89.25 L34.00,96.27" fill="none" stroke="#2E5BFF" stroke-width="2.41" stroke-linejoin="round"/><path d="M34.00,96.27 L38.12,89.25 L42.25,96.27 L46.38,89.25 L50.50,96.27" fill="none" stroke="#2E5BFF" stroke-width="2.41" stroke-linejoin="round"/><path d="M50.50,96.27 L54.62,89.25 L58.75,96.27 L62.88,89.25 L67.00,96.27" fill="none" stroke="#2E5BFF" stroke-width="2.41" stroke-linejoin="round"/><path d="M67.00,96.27 L71.12,89.25 L75.25,96.27 L79.38,89.25 L83.50,96.27" fill="none" stroke="#2E5BFF" stroke-width="2.41" stroke-linejoin="round"/><path d="M83.50,96.27 L87.62,89.25 L91.75,96.27 L95.88,89.25 L100.00,96.27" fill="none" stroke="#2E5BFF" stroke-width="2.41" stroke-linejoin="round"/><path d="M100.00,96.27 L104.12,89.25 L108.25,96.27 L112.38,89.25 L116.50,96.27" fill="none" stroke="#2E5BFF" stroke-width="2.41" stroke-linejoin="round"/><path d="M116.50,96.27 L120.62,89.25 L124.75,96.27 L128.88,89.25 L133.00,96.27" fill="none" stroke="#2E5BFF" stroke-width="2.41" stroke-linejoin="round"/><path d="M133.00,96.27 L137.12,89.25 L141.25,96.27 L145.38,89.25 L149.50,96.27" fill="none" stroke="#2E5BFF" stroke-width="2.41" stroke-linejoin="round"/><path d="M149.50,96.27 L153.62,89.25 L157.75,96.27 L161.88,89.25 L166.00,96.27" fill="none" stroke="#2E5BFF" stroke-width="2.41" stroke-linejoin="round"/><path d="M166.00,96.27 L170.12,89.25 L174.25,96.27 L178.38,89.25 L182.50,96.27" fill="none" stroke="#2E5BFF" stroke-width="2.41" stroke-linejoin="round"/><path d="M182.50,96.27 L186.62,89.25 L190.75,96.27 L194.88,89.25 L199.00,96.27" fill="none" stroke="#2E5BFF" stroke-width="2.41" stroke-linejoin="round"/><path d="M199.00,96.27 L203.12,89.25 L207.25,96.27 L211.38,89.25 L215.50,96.27" fill="none" stroke="#2E5BFF" stroke-width="2.41" stroke-linejoin="round"/><path d="M1.00,110.31 L5.12,103.29 L9.25,110.31 L13.38,103.29 L17.50,110.31" fill="none" stroke="#2E5BFF" stroke-width="2.41" stroke-linejoin="round"/><path d="M17.50,110.31 L21.62,103.29 L25.75,110.31 L29.88,103.29 L34.00,110.31" fill="none" stroke="#2E5BFF" stroke-width="2.41" stroke-linejoin="round"/><path d="M34.00,110.31 L38.12,103.29 L42.25,110.31 L46.38,103.29 L50.50,110.31" fill="none" stroke="#2E5BFF" stroke-width="2.41" stroke-linejoin="round"/><path d="M50.50,110.31 L54.62,103.29 L58.75,110.31 L62.88,103.29 L67.00,110.31" fill="none" stroke="#2E5BFF" stroke-width="2.41" stroke-linejoin="round"/><path d="M67.00,110.31 L71.12,103.29 L75.25,110.31 L79.38,103.29 L83.50,110.31" fill="none" stroke="#2E5BFF" stroke-width="2.41" stroke-linejoin="round"/><path d="M83.50,110.31 L87.62,103.29 L91.75,110.31 L95.88,103.29 L100.00,110.31" fill="none" stroke="#2E5BFF" stroke-width="2.41" stroke-linejoin="round"/><path d="M100.00,110.31 L104.12,103.29 L108.25,110.31 L112.38,103.29 L116.50,110.31" fill="none" stroke="#2E5BFF" stroke-width="2.41" stroke-linejoin="round"/><path d="M116.50,110.31 L120.62,103.29 L124.75,110.31 L128.88,103.29 L133.00,110.31" fill="none" stroke="#2E5BFF" stroke-width="2.41" stroke-linejoin="round"/><path d="M133.00,110.31 L137.12,103.29 L141.25,110.31 L145.38,103.29 L149.50,110.31" fill="none" stroke="#2E5BFF" stroke-width="2.41" stroke-linejoin="round"/><path d="M149.50,110.31 L153.62,103.29 L157.75,110.31 L161.88,103.29 L166.00,110.31" fill="none" stroke="#2E5BFF" stroke-width="2.41" stroke-linejoin="round"/><path d="M166.00,110.31 L170.12,103.29 L174.25,110.31 L178.38,103.29 L182.50,110.31" fill="none" stroke="#2E5BFF" stroke-width="2.41" stroke-linejoin="round"/><path d="M182.50,110.31 L186.62,103.29 L190.75,110.31 L194.88,103.29 L199.00,110.31" fill="none" stroke="#2E5BFF" stroke-width="2.41" stroke-linejoin="round"/><path d="M199.00,110.31 L203.12,103.29 L207.25,110.31 L211.38,103.29 L215.50,110.31" fill="none" stroke="#2E5BFF" stroke-width="2.41" stroke-linejoin="round"/><path d="M1.00,124.35 L5.12,117.33 L9.25,124.35 L13.38,117.33 L17.50,124.35" fill="none" stroke="#2E5BFF" stroke-width="2.41" stroke-linejoin="round"/><path d="M17.50,124.35 L21.62,117.33 L25.75,124.35 L29.88,117.33 L34.00,124.35" fill="none" stroke="#2E5BFF" stroke-width="2.41" stroke-linejoin="round"/><path d="M34.00,124.35 L38.12,117.33 L42.25,124.35 L46.38,117.33 L50.50,124.35" fill="none" stroke="#2E5BFF" stroke-width="2.41" stroke-linejoin="round"/><path d="M50.50,124.35 L54.62,117.33 L58.75,124.35 L62.88,117.33 L67.00,124.35" fill="none" stroke="#2E5BFF" stroke-width="2.41" stroke-linejoin="round"/><path d="M67.00,124.35 L71.12,117.33 L75.25,124.35 L79.38,117.33 L83.50,124.35" fill="none" stroke="#2E5BFF" stroke-width="2.41" stroke-linejoin="round"/><path d="M83.50,124.35 L87.62,117.33 L91.75,124.35 L95.88,117.33 L100.00,124.35" fill="none" stroke="#2E5BFF" stroke-width="2.41" stroke-linejoin="round"/><path d="M100.00,124.35 L104.12,117.33 L108.25,124.35 L112.38,117.33 L116.50,124.35" fill="none" stroke="#2E5BFF" stroke-width="2.41" stroke-linejoin="round"/><path d="M116.50,124.35 L120.62,117.33 L124.75,124.35 L128.88,117.33 L133.00,124.35" fill="none" stroke="#2E5BFF" stroke-width="2.41" stroke-linejoin="round"/><path d="M133.00,124.35 L137.12,117.33 L141.25,124.35 L145.38,117.33 L149.50,124.35" fill="none" stroke="#2E5BFF" stroke-width="2.41" stroke-linejoin="round"/><path d="M149.50,124.35 L153.62,117.33 L157.75,124.35 L161.88,117.33 L166.00,124.35" fill="none" stroke="#2E5BFF" stroke-width="2.41" stroke-linejoin="round"/><path d="M166.00,124.35 L170.12,117.33 L174.25,124.35 L178.38,117.33 L182.50,124.35" fill="none" stroke="#2E5BFF" stroke-width="2.41" stroke-linejoin="round"/><path d="M182.50,124.35 L186.62,117.33 L190.75,124.35 L194.88,117.33 L199.00,124.35" fill="none" stroke="#2E5BFF" stroke-width="2.41" stroke-linejoin="round"/><path d="M199.00,124.35 L203.12,117.33 L207.25,124.35 L211.38,117.33 L215.50,124.35" fill="none" stroke="#2E5BFF" stroke-width="2.41" stroke-linejoin="round"/><path d="M1.00,138.39 L5.12,131.37 L9.25,138.39 L13.38,131.37 L17.50,138.39" fill="none" stroke="#2E5BFF" stroke-width="2.41" stroke-linejoin="round"/><path d="M17.50,138.39 L21.62,131.37 L25.75,138.39 L29.88,131.37 L34.00,138.39" fill="none" stroke="#2E5BFF" stroke-width="2.41" stroke-linejoin="round"/><path d="M34.00,138.39 L38.12,131.37 L42.25,138.39 L46.38,131.37 L50.50,138.39" fill="none" stroke="#2E5BFF" stroke-width="2.41" stroke-linejoin="round"/><path d="M50.50,138.39 L54.62,131.37 L58.75,138.39 L62.88,131.37 L67.00,138.39" fill="none" stroke="#2E5BFF" stroke-width="2.41" stroke-linejoin="round"/><path d="M67.00,138.39 L71.12,131.37 L75.25,138.39 L79.38,131.37 L83.50,138.39" fill="none" stroke="#2E5BFF" stroke-width="2.41" stroke-linejoin="round"/><path d="M83.50,138.39 L87.62,131.37 L91.75,138.39 L95.88,131.37 L100.00,138.39" fill="none" stroke="#2E5BFF" stroke-width="2.41" stroke-linejoin="round"/><path d="M100.00,138.39 L104.12,131.37 L108.25,138.39 L112.38,131.37 L116.50,138.39" fill="none" stroke="#2E5BFF" stroke-width="2.41" stroke-linejoin="round"/><path d="M116.50,138.39 L120.62,131.37 L124.75,138.39 L128.88,131.37 L133.00,138.39" fill="none" stroke="#2E5BFF" stroke-width="2.41" stroke-linejoin="round"/><path d="M133.00,138.39 L137.12,131.37 L141.25,138.39 L145.38,131.37 L149.50,138.39" fill="none" stroke="#2E5BFF" stroke-width="2.41" stroke-linejoin="round"/><path d="M149.50,138.39 L153.62,131.37 L157.75,138.39 L161.88,131.37 L166.00,138.39" fill="none" stroke="#2E5BFF" stroke-width="2.41" stroke-linejoin="round"/><path d="M166.00,138.39 L170.12,131.37 L174.25,138.39 L178.38,131.37 L182.50,138.39" fill="none" stroke="#2E5BFF" stroke-width="2.41" stroke-linejoin="round"/><path d="M182.50,138.39 L186.62,131.37 L190.75,138.39 L194.88,131.37 L199.00,138.39" fill="none" stroke="#2E5BFF" stroke-width="2.41" stroke-linejoin="round"/><path d="M199.00,138.39 L203.12,131.37 L207.25,138.39 L211.38,131.37 L215.50,138.39" fill="none" stroke="#2E5BFF" stroke-width="2.41" stroke-linejoin="round"/><path d="M1.00,152.43 L5.12,145.41 L9.25,152.43 L13.38,145.41 L17.50,152.43" fill="none" stroke="#2E5BFF" stroke-width="2.41" stroke-linejoin="round"/><path d="M17.50,152.43 L21.62,145.41 L25.75,152.43 L29.88,145.41 L34.00,152.43" fill="none" stroke="#2E5BFF" stroke-width="2.41" stroke-linejoin="round"/><path d="M34.00,152.43 L38.12,145.41 L42.25,152.43 L46.38,145.41 L50.50,152.43" fill="none" stroke="#2E5BFF" stroke-width="2.41" stroke-linejoin="round"/><path d="M50.50,152.43 L54.62,145.41 L58.75,152.43 L62.88,145.41 L67.00,152.43" fill="none" stroke="#2E5BFF" stroke-width="2.41" stroke-linejoin="round"/><path d="M67.00,152.43 L71.12,145.41 L75.25,152.43 L79.38,145.41 L83.50,152.43" fill="none" stroke="#2E5BFF" stroke-width="2.41" stroke-linejoin="round"/><path d="M83.50,152.43 L87.62,145.41 L91.75,152.43 L95.88,145.41 L100.00,152.43" fill="none" stroke="#2E5BFF" stroke-width="2.41" stroke-linejoin="round"/><path d="M100.00,152.43 L104.12,145.41 L108.25,152.43 L112.38,145.41 L116.50,152.43" fill="none" stroke="#2E5BFF" stroke-width="2.41" stroke-linejoin="round"/><path d="M116.50,152.43 L120.62,145.41 L124.75,152.43 L128.88,145.41 L133.00,152.43" fill="none" stroke="#2E5BFF" stroke-width="2.41" stroke-linejoin="round"/><path d="M133.00,152.43 L137.12,145.41 L141.25,152.43 L145.38,145.41 L149.50,152.43" fill="none" stroke="#2E5BFF" stroke-width="2.41" stroke-linejoin="round"/><path d="M149.50,152.43 L153.62,145.41 L157.75,152.43 L161.88,145.41 L166.00,152.43" fill="none" stroke="#2E5BFF" stroke-width="2.41" stroke-linejoin="round"/><path d="M166.00,152.43 L170.12,145.41 L174.25,152.43 L178.38,145.41 L182.50,152.43" fill="none" stroke="#2E5BFF" stroke-width="2.41" stroke-linejoin="round"/><path d="M182.50,152.43 L186.62,145.41 L190.75,152.43 L194.88,145.41 L199.00,152.43" fill="none" stroke="#2E5BFF" stroke-width="2.41" stroke-linejoin="round"/><path d="M199.00,152.43 L203.12,145.41 L207.25,152.43 L211.38,145.41 L215.50,152.43" fill="none" stroke="#2E5BFF" stroke-width="2.41" stroke-linejoin="round"/><path d="M1.00,166.47 L5.12,159.45 L9.25,166.47 L13.38,159.45 L17.50,166.47" fill="none" stroke="#2E5BFF" stroke-width="2.41" stroke-linejoin="round"/><path d="M17.50,166.47 L21.62,159.45 L25.75,166.47 L29.88,159.45 L34.00,166.47" fill="none" stroke="#2E5BFF" stroke-width="2.41" stroke-linejoin="round"/><path d="M34.00,166.47 L38.12,159.45 L42.25,166.47 L46.38,159.45 L50.50,166.47" fill="none" stroke="#2E5BFF" stroke-width="2.41" stroke-linejoin="round"/><path d="M50.50,166.47 L54.62,159.45 L58.75,166.47 L62.88,159.45 L67.00,166.47" fill="none" stroke="#2E5BFF" stroke-width="2.41" stroke-linejoin="round"/><path d="M67.00,166.47 L71.12,159.45 L75.25,166.47 L79.38,159.45 L83.50,166.47" fill="none" stroke="#2E5BFF" stroke-width="2.41" stroke-linejoin="round"/><path d="M83.50,166.47 L87.62,159.45 L91.75,166.47 L95.88,159.45 L100.00,166.47" fill="none" stroke="#2E5BFF" stroke-width="2.41" stroke-linejoin="round"/><path d="M100.00,166.47 L104.12,159.45 L108.25,166.47 L112.38,159.45 L116.50,166.47" fill="none" stroke="#2E5BFF" stroke-width="2.41" stroke-linejoin="round"/><path d="M116.50,166.47 L120.62,159.45 L124.75,166.47 L128.88,159.45 L133.00,166.47" fill="none" stroke="#2E5BFF" stroke-width="2.41" stroke-linejoin="round"/><path d="M133.00,166.47 L137.12,159.45 L141.25,166.47 L145.38,159.45 L149.50,166.47" fill="none" stroke="#2E5BFF" stroke-width="2.41" stroke-linejoin="round"/><path d="M149.50,166.47 L153.62,159.45 L157.75,166.47 L161.88,159.45 L166.00,166.47" fill="none" stroke="#2E5BFF" stroke-width="2.41" stroke-linejoin="round"/><path d="M166.00,166.47 L170.12,159.45 L174.25,166.47 L178.38,159.45 L182.50,166.47" fill="none" stroke="#2E5BFF" stroke-width="2.41" stroke-linejoin="round"/><path d="M182.50,166.47 L186.62,159.45 L190.75,166.47 L194.88,159.45 L199.00,166.47" fill="none" stroke="#2E5BFF" stroke-width="2.41" stroke-linejoin="round"/><path d="M199.00,166.47 L203.12,159.45 L207.25,166.47 L211.38,159.45 L215.50,166.47" fill="none" stroke="#2E5BFF" stroke-width="2.41" stroke-linejoin="round"/><path d="M1.00,180.51 L5.12,173.49 L9.25,180.51 L13.38,173.49 L17.50,180.51" fill="none" stroke="#2E5BFF" stroke-width="2.41" stroke-linejoin="round"/><path d="M17.50,180.51 L21.62,173.49 L25.75,180.51 L29.88,173.49 L34.00,180.51" fill="none" stroke="#2E5BFF" stroke-width="2.41" stroke-linejoin="round"/><path d="M34.00,180.51 L38.12,173.49 L42.25,180.51 L46.38,173.49 L50.50,180.51" fill="none" stroke="#2E5BFF" stroke-width="2.41" stroke-linejoin="round"/><path d="M50.50,180.51 L54.62,173.49 L58.75,180.51 L62.88,173.49 L67.00,180.51" fill="none" stroke="#2E5BFF" stroke-width="2.41" stroke-linejoin="round"/><path d="M67.00,180.51 L71.12,173.49 L75.25,180.51 L79.38,173.49 L83.50,180.51" fill="none" stroke="#2E5BFF" stroke-width="2.41" stroke-linejoin="round"/><path d="M83.50,180.51 L87.62,173.49 L91.75,180.51 L95.88,173.49 L100.00,180.51" fill="none" stroke="#2E5BFF" stroke-width="2.41" stroke-linejoin="round"/><path d="M100.00,180.51 L104.12,173.49 L108.25,180.51 L112.38,173.49 L116.50,180.51" fill="none" stroke="#2E5BFF" stroke-width="2.41" stroke-linejoin="round"/><path d="M116.50,180.51 L120.62,173.49 L124.75,180.51 L128.88,173.49 L133.00,180.51" fill="none" stroke="#2E5BFF" stroke-width="2.41" stroke-linejoin="round"/><path d="M133.00,180.51 L137.12,173.49 L141.25,180.51 L145.38,173.49 L149.50,180.51" fill="none" stroke="#2E5BFF" stroke-width="2.41" stroke-linejoin="round"/><path d="M149.50,180.51 L153.62,173.49 L157.75,180.51 L161.88,173.49 L166.00,180.51" fill="none" stroke="#2E5BFF" stroke-width="2.41" stroke-linejoin="round"/><path d="M166.00,180.51 L170.12,173.49 L174.25,180.51 L178.38,173.49 L182.50,180.51" fill="none" stroke="#2E5BFF" stroke-width="2.41" stroke-linejoin="round"/><path d="M182.50,180.51 L186.62,173.49 L190.75,180.51 L194.88,173.49 L199.00,180.51" fill="none" stroke="#2E5BFF" stroke-width="2.41" stroke-linejoin="round"/><path d="M199.00,180.51 L203.12,173.49 L207.25,180.51 L211.38,173.49 L215.50,180.51" fill="none" stroke="#2E5BFF" stroke-width="2.41" stroke-linejoin="round"/><path d="M1.00,194.55 L5.12,187.53 L9.25,194.55 L13.38,187.53 L17.50,194.55" fill="none" stroke="#2E5BFF" stroke-width="2.41" stroke-linejoin="round"/><path d="M17.50,194.55 L21.62,187.53 L25.75,194.55 L29.88,187.53 L34.00,194.55" fill="none" stroke="#2E5BFF" stroke-width="2.41" stroke-linejoin="round"/><path d="M34.00,194.55 L38.12,187.53 L42.25,194.55 L46.38,187.53 L50.50,194.55" fill="none" stroke="#2E5BFF" stroke-width="2.41" stroke-linejoin="round"/><path d="M50.50,194.55 L54.62,187.53 L58.75,194.55 L62.88,187.53 L67.00,194.55" fill="none" stroke="#2E5BFF" stroke-width="2.41" stroke-linejoin="round"/><path d="M67.00,194.55 L71.12,187.53 L75.25,194.55 L79.38,187.53 L83.50,194.55" fill="none" stroke="#2E5BFF" stroke-width="2.41" stroke-linejoin="round"/><path d="M83.50,194.55 L87.62,187.53 L91.75,194.55 L95.88,187.53 L100.00,194.55" fill="none" stroke="#2E5BFF" stroke-width="2.41" stroke-linejoin="round"/><path d="M100.00,194.55 L104.12,187.53 L108.25,194.55 L112.38,187.53 L116.50,194.55" fill="none" stroke="#2E5BFF" stroke-width="2.41" stroke-linejoin="round"/><path d="M116.50,194.55 L120.62,187.53 L124.75,194.55 L128.88,187.53 L133.00,194.55" fill="none" stroke="#2E5BFF" stroke-width="2.41" stroke-linejoin="round"/><path d="M133.00,194.55 L137.12,187.53 L141.25,194.55 L145.38,187.53 L149.50,194.55" fill="none" stroke="#2E5BFF" stroke-width="2.41" stroke-linejoin="round"/><path d="M149.50,194.55 L153.62,187.53 L157.75,194.55 L161.88,187.53 L166.00,194.55" fill="none" stroke="#2E5BFF" stroke-width="2.41" stroke-linejoin="round"/><path d="M166.00,194.55 L170.12,187.53 L174.25,194.55 L178.38,187.53 L182.50,194.55" fill="none" stroke="#2E5BFF" stroke-width="2.41" stroke-linejoin="round"/><path d="M182.50,194.55 L186.62,187.53 L190.75,194.55 L194.88,187.53 L199.00,194.55" fill="none" stroke="#2E5BFF" stroke-width="2.41" stroke-linejoin="round"/><path d="M199.00,194.55 L203.12,187.53 L207.25,194.55 L211.38,187.53 L215.50,194.55" fill="none" stroke="#2E5BFF" stroke-width="2.41" stroke-linejoin="round"/><path d="M1.00,208.59 L5.12,201.57 L9.25,208.59 L13.38,201.57 L17.50,208.59" fill="none" stroke="#2E5BFF" stroke-width="2.41" stroke-linejoin="round"/><path d="M17.50,208.59 L21.62,201.57 L25.75,208.59 L29.88,201.57 L34.00,208.59" fill="none" stroke="#2E5BFF" stroke-width="2.41" stroke-linejoin="round"/><path d="M34.00,208.59 L38.12,201.57 L42.25,208.59 L46.38,201.57 L50.50,208.59" fill="none" stroke="#2E5BFF" stroke-width="2.41" stroke-linejoin="round"/><path d="M50.50,208.59 L54.62,201.57 L58.75,208.59 L62.88,201.57 L67.00,208.59" fill="none" stroke="#2E5BFF" stroke-width="2.41" stroke-linejoin="round"/><path d="M67.00,208.59 L71.12,201.57 L75.25,208.59 L79.38,201.57 L83.50,208.59" fill="none" stroke="#2E5BFF" stroke-width="2.41" stroke-linejoin="round"/><path d="M83.50,208.59 L87.62,201.57 L91.75,208.59 L95.88,201.57 L100.00,208.59" fill="none" stroke="#2E5BFF" stroke-width="2.41" stroke-linejoin="round"/><path d="M100.00,208.59 L104.12,201.57 L108.25,208.59 L112.38,201.57 L116.50,208.59" fill="none" stroke="#2E5BFF" stroke-width="2.41" stroke-linejoin="round"/><path d="M116.50,208.59 L120.62,201.57 L124.75,208.59 L128.88,201.57 L133.00,208.59" fill="none" stroke="#2E5BFF" stroke-width="2.41" stroke-linejoin="round"/><path d="M133.00,208.59 L137.12,201.57 L141.25,208.59 L145.38,201.57 L149.50,208.59" fill="none" stroke="#2E5BFF" stroke-width="2.41" stroke-linejoin="round"/><path d="M149.50,208.59 L153.62,201.57 L157.75,208.59 L161.88,201.57 L166.00,208.59" fill="none" stroke="#2E5BFF" stroke-width="2.41" stroke-linejoin="round"/><path d="M166.00,208.59 L170.12,201.57 L174.25,208.59 L178.38,201.57 L182.50,208.59" fill="none" stroke="#2E5BFF" stroke-width="2.41" stroke-linejoin="round"/><path d="M182.50,208.59 L186.62,201.57 L190.75,208.59 L194.88,201.57 L199.00,208.59" fill="none" stroke="#2E5BFF" stroke-width="2.41" stroke-linejoin="round"/><path d="M199.00,208.59 L203.12,201.57 L207.25,208.59 L211.38,201.57 L215.50,208.59" fill="none" stroke="#2E5BFF" stroke-width="2.41" stroke-linejoin="round"/><path d="M1.00,222.63 L5.12,215.61 L9.25,222.63 L13.38,215.61 L17.50,222.63" fill="none" stroke="#2E5BFF" stroke-width="2.41" stroke-linejoin="round"/><path d="M17.50,222.63 L21.62,215.61 L25.75,222.63 L29.88,215.61 L34.00,222.63" fill="none" stroke="#2E5BFF" stroke-width="2.41" stroke-linejoin="round"/><path d="M34.00,222.63 L38.12,215.61 L42.25,222.63 L46.38,215.61 L50.50,222.63" fill="none" stroke="#2E5BFF" stroke-width="2.41" stroke-linejoin="round"/><path d="M50.50,222.63 L54.62,215.61 L58.75,222.63 L62.88,215.61 L67.00,222.63" fill="none" stroke="#2E5BFF" stroke-width="2.41" stroke-linejoin="round"/><path d="M67.00,222.63 L71.12,215.61 L75.25,222.63 L79.38,215.61 L83.50,222.63" fill="none" stroke="#2E5BFF" stroke-width="2.41" stroke-linejoin="round"/><path d="M83.50,222.63 L87.62,215.61 L91.75,222.63 L95.88,215.61 L100.00,222.63" fill="none" stroke="#2E5BFF" stroke-width="2.41" stroke-linejoin="round"/><path d="M100.00,222.63 L104.12,215.61 L108.25,222.63 L112.38,215.61 L116.50,222.63" fill="none" stroke="#2E5BFF" stroke-width="2.41" stroke-linejoin="round"/><path d="M116.50,222.63 L120.62,215.61 L124.75,222.63 L128.88,215.61 L133.00,222.63" fill="none" stroke="#2E5BFF" stroke-width="2.41" stroke-linejoin="round"/><path d="M133.00,222.63 L137.12,215.61 L141.25,222.63 L145.38,215.61 L149.50,222.63" fill="none" stroke="#2E5BFF" stroke-width="2.41" stroke-linejoin="round"/><path d="M149.50,222.63 L153.62,215.61 L157.75,222.63 L161.88,215.61 L166.00,222.63" fill="none" stroke="#2E5BFF" stroke-width="2.41" stroke-linejoin="round"/><path d="M166.00,222.63 L170.12,215.61 L174.25,222.63 L178.38,215.61 L182.50,222.63" fill="none" stroke="#2E5BFF" stroke-width="2.41" stroke-linejoin="round"/><path d="M182.50,222.63 L186.62,215.61 L190.75,222.63 L194.88,215.61 L199.00,222.63" fill="none" stroke="#2E5BFF" stroke-width="2.41" stroke-linejoin="round"/><path d="M199.00,222.63 L203.12,215.61 L207.25,222.63 L211.38,215.61 L215.50,222.63" fill="none" stroke="#2E5BFF" stroke-width="2.41" stroke-linejoin="round"/><path d="M1.00,236.67 L5.12,229.65 L9.25,236.67 L13.38,229.65 L17.50,236.67" fill="none" stroke="#2E5BFF" stroke-width="2.41" stroke-linejoin="round"/><path d="M17.50,236.67 L21.62,229.65 L25.75,236.67 L29.88,229.65 L34.00,236.67" fill="none" stroke="#2E5BFF" stroke-width="2.41" stroke-linejoin="round"/><path d="M34.00,236.67 L38.12,229.65 L42.25,236.67 L46.38,229.65 L50.50,236.67" fill="none" stroke="#2E5BFF" stroke-width="2.41" stroke-linejoin="round"/><path d="M50.50,236.67 L54.62,229.65 L58.75,236.67 L62.88,229.65 L67.00,236.67" fill="none" stroke="#2E5BFF" stroke-width="2.41" stroke-linejoin="round"/><path d="M67.00,236.67 L71.12,229.65 L75.25,236.67 L79.38,229.65 L83.50,236.67" fill="none" stroke="#2E5BFF" stroke-width="2.41" stroke-linejoin="round"/><path d="M83.50,236.67 L87.62,229.65 L91.75,236.67 L95.88,229.65 L100.00,236.67" fill="none" stroke="#2E5BFF" stroke-width="2.41" stroke-linejoin="round"/><path d="M100.00,236.67 L104.12,229.65 L108.25,236.67 L112.38,229.65 L116.50,236.67" fill="none" stroke="#2E5BFF" stroke-width="2.41" stroke-linejoin="round"/><path d="M116.50,236.67 L120.62,229.65 L124.75,236.67 L128.88,229.65 L133.00,236.67" fill="none" stroke="#2E5BFF" stroke-width="2.41" stroke-linejoin="round"/><path d="M133.00,236.67 L137.12,229.65 L141.25,236.67 L145.38,229.65 L149.50,236.67" fill="none" stroke="#2E5BFF" stroke-width="2.41" stroke-linejoin="round"/><path d="M149.50,236.67 L153.62,229.65 L157.75,236.67 L161.88,229.65 L166.00,236.67" fill="none" stroke="#2E5BFF" stroke-width="2.41" stroke-linejoin="round"/><path d="M166.00,236.67 L170.12,229.65 L174.25,236.67 L178.38,229.65 L182.50,236.67" fill="none" stroke="#2E5BFF" stroke-width="2.41" stroke-linejoin="round"/><path d="M182.50,236.67 L186.62,229.65 L190.75,236.67 L194.88,229.65 L199.00,236.67" fill="none" stroke="#2E5BFF" stroke-width="2.41" stroke-linejoin="round"/><path d="M199.00,236.67 L203.12,229.65 L207.25,236.67 L211.38,229.65 L215.50,236.67" fill="none" stroke="#2E5BFF" stroke-width="2.41" stroke-linejoin="round"/><path d="M1.00,250.71 L5.12,243.69 L9.25,250.71 L13.38,243.69 L17.50,250.71" fill="none" stroke="#2E5BFF" stroke-width="2.41" stroke-linejoin="round"/><path d="M17.50,250.71 L21.62,243.69 L25.75,250.71 L29.88,243.69 L34.00,250.71" fill="none" stroke="#2E5BFF" stroke-width="2.41" stroke-linejoin="round"/><path d="M34.00,250.71 L38.12,243.69 L42.25,250.71 L46.38,243.69 L50.50,250.71" fill="none" stroke="#2E5BFF" stroke-width="2.41" stroke-linejoin="round"/><path d="M50.50,250.71 L54.62,243.69 L58.75,250.71 L62.88,243.69 L67.00,250.71" fill="none" stroke="#2E5BFF" stroke-width="2.41" stroke-linejoin="round"/><path d="M67.00,250.71 L71.12,243.69 L75.25,250.71 L79.38,243.69 L83.50,250.71" fill="none" stroke="#2E5BFF" stroke-width="2.41" stroke-linejoin="round"/><path d="M83.50,250.71 L87.62,243.69 L91.75,250.71 L95.88,243.69 L100.00,250.71" fill="none" stroke="#2E5BFF" stroke-width="2.41" stroke-linejoin="round"/><path d="M100.00,250.71 L104.12,243.69 L108.25,250.71 L112.38,243.69 L116.50,250.71" fill="none" stroke="#2E5BFF" stroke-width="2.41" stroke-linejoin="round"/><path d="M116.50,250.71 L120.62,243.69 L124.75,250.71 L128.88,243.69 L133.00,250.71" fill="none" stroke="#2E5BFF" stroke-width="2.41" stroke-linejoin="round"/><path d="M133.00,250.71 L137.12,243.69 L141.25,250.71 L145.38,243.69 L149.50,250.71" fill="none" stroke="#2E5BFF" stroke-width="2.41" stroke-linejoin="round"/><path d="M149.50,250.71 L153.62,243.69 L157.75,250.71 L161.88,243.69 L166.00,250.71" fill="none" stroke="#2E5BFF" stroke-width="2.41" stroke-linejoin="round"/><path d="M166.00,250.71 L170.12,243.69 L174.25,250.71 L178.38,243.69 L182.50,250.71" fill="none" stroke="#2E5BFF" stroke-width="2.41" stroke-linejoin="round"/><path d="M182.50,250.71 L186.62,243.69 L190.75,250.71 L194.88,243.69 L199.00,250.71" fill="none" stroke="#2E5BFF" stroke-width="2.41" stroke-linejoin="round"/><path d="M199.00,250.71 L203.12,243.69 L207.25,250.71 L211.38,243.69 L215.50,250.71" fill="none" stroke="#2E5BFF" stroke-width="2.41" stroke-linejoin="round"/><path d="M1.00,264.75 L5.12,257.73 L9.25,264.75 L13.38,257.73 L17.50,264.75" fill="none" stroke="#2E5BFF" stroke-width="2.41" stroke-linejoin="round"/><path d="M17.50,264.75 L21.62,257.73 L25.75,264.75 L29.88,257.73 L34.00,264.75" fill="none" stroke="#2E5BFF" stroke-width="2.41" stroke-linejoin="round"/><path d="M34.00,264.75 L38.12,257.73 L42.25,264.75 L46.38,257.73 L50.50,264.75" fill="none" stroke="#2E5BFF" stroke-width="2.41" stroke-linejoin="round"/><path d="M50.50,264.75 L54.62,257.73 L58.75,264.75 L62.88,257.73 L67.00,264.75" fill="none" stroke="#2E5BFF" stroke-width="2.41" stroke-linejoin="round"/><path d="M67.00,264.75 L71.12,257.73 L75.25,264.75 L79.38,257.73 L83.50,264.75" fill="none" stroke="#2E5BFF" stroke-width="2.41" stroke-linejoin="round"/><path d="M83.50,264.75 L87.62,257.73 L91.75,264.75 L95.88,257.73 L100.00,264.75" fill="none" stroke="#2E5BFF" stroke-width="2.41" stroke-linejoin="round"/><path d="M100.00,264.75 L104.12,257.73 L108.25,264.75 L112.38,257.73 L116.50,264.75" fill="none" stroke="#2E5BFF" stroke-width="2.41" stroke-linejoin="round"/><path d="M116.50,264.75 L120.62,257.73 L124.75,264.75 L128.88,257.73 L133.00,264.75" fill="none" stroke="#2E5BFF" stroke-width="2.41" stroke-linejoin="round"/><path d="M133.00,264.75 L137.12,257.73 L141.25,264.75 L145.38,257.73 L149.50,264.75" fill="none" stroke="#2E5BFF" stroke-width="2.41" stroke-linejoin="round"/><path d="M149.50,264.75 L153.62,257.73 L157.75,264.75 L161.88,257.73 L166.00,264.75" fill="none" stroke="#2E5BFF" stroke-width="2.41" stroke-linejoin="round"/><path d="M166.00,264.75 L170.12,257.73 L174.25,264.75 L178.38,257.73 L182.50,264.75" fill="none" stroke="#2E5BFF" stroke-width="2.41" stroke-linejoin="round"/><path d="M182.50,264.75 L186.62,257.73 L190.75,264.75 L194.88,257.73 L199.00,264.75" fill="none" stroke="#2E5BFF" stroke-width="2.41" stroke-linejoin="round"/><path d="M199.00,264.75 L203.12,257.73 L207.25,264.75 L211.38,257.73 L215.50,264.75" fill="none" stroke="#2E5BFF" stroke-width="2.41" stroke-linejoin="round"/><path d="M1.00,278.79 L5.12,271.77 L9.25,278.79 L13.38,271.77 L17.50,278.79" fill="none" stroke="#2E5BFF" stroke-width="2.41" stroke-linejoin="round"/><path d="M17.50,278.79 L21.62,271.77 L25.75,278.79 L29.88,271.77 L34.00,278.79" fill="none" stroke="#2E5BFF" stroke-width="2.41" stroke-linejoin="round"/><path d="M34.00,278.79 L38.12,271.77 L42.25,278.79 L46.38,271.77 L50.50,278.79" fill="none" stroke="#2E5BFF" stroke-width="2.41" stroke-linejoin="round"/><path d="M50.50,278.79 L54.62,271.77 L58.75,278.79 L62.88,271.77 L67.00,278.79" fill="none" stroke="#2E5BFF" stroke-width="2.41" stroke-linejoin="round"/><path d="M67.00,278.79 L71.12,271.77 L75.25,278.79 L79.38,271.77 L83.50,278.79" fill="none" stroke="#2E5BFF" stroke-width="2.41" stroke-linejoin="round"/><path d="M83.50,278.79 L87.62,271.77 L91.75,278.79 L95.88,271.77 L100.00,278.79" fill="none" stroke="#2E5BFF" stroke-width="2.41" stroke-linejoin="round"/><path d="M100.00,278.79 L104.12,271.77 L108.25,278.79 L112.38,271.77 L116.50,278.79" fill="none" stroke="#2E5BFF" stroke-width="2.41" stroke-linejoin="round"/><path d="M116.50,278.79 L120.62,271.77 L124.75,278.79 L128.88,271.77 L133.00,278.79" fill="none" stroke="#2E5BFF" stroke-width="2.41" stroke-linejoin="round"/><path d="M133.00,278.79 L137.12,271.77 L141.25,278.79 L145.38,271.77 L149.50,278.79" fill="none" stroke="#2E5BFF" stroke-width="2.41" stroke-linejoin="round"/><path d="M149.50,278.79 L153.62,271.77 L157.75,278.79 L161.88,271.77 L166.00,278.79" fill="none" stroke="#2E5BFF" stroke-width="2.41" stroke-linejoin="round"/><path d="M166.00,278.79 L170.12,271.77 L174.25,278.79 L178.38,271.77 L182.50,278.79" fill="none" stroke="#2E5BFF" stroke-width="2.41" stroke-linejoin="round"/><path d="M182.50,278.79 L186.62,271.77 L190.75,278.79 L194.88,271.77 L199.00,278.79" fill="none" stroke="#2E5BFF" stroke-width="2.41" stroke-linejoin="round"/><path d="M199.00,278.79 L203.12,271.77 L207.25,278.79 L211.38,271.77 L215.50,278.79" fill="none" stroke="#2E5BFF" stroke-width="2.41" stroke-linejoin="round"/><path d="M1.00,292.83 L5.12,285.81 L9.25,292.83 L13.38,285.81 L17.50,292.83" fill="none" stroke="#2E5BFF" stroke-width="2.41" stroke-linejoin="round"/><path d="M17.50,292.83 L21.62,285.81 L25.75,292.83 L29.88,285.81 L34.00,292.83" fill="none" stroke="#2E5BFF" stroke-width="2.41" stroke-linejoin="round"/><path d="M34.00,292.83 L38.12,285.81 L42.25,292.83 L46.38,285.81 L50.50,292.83" fill="none" stroke="#2E5BFF" stroke-width="2.41" stroke-linejoin="round"/><path d="M50.50,292.83 L54.62,285.81 L58.75,292.83 L62.88,285.81 L67.00,292.83" fill="none" stroke="#2E5BFF" stroke-width="2.41" stroke-linejoin="round"/><path d="M67.00,292.83 L71.12,285.81 L75.25,292.83 L79.38,285.81 L83.50,292.83" fill="none" stroke="#2E5BFF" stroke-width="2.41" stroke-linejoin="round"/><path d="M83.50,292.83 L87.62,285.81 L91.75,292.83 L95.88,285.81 L100.00,292.83" fill="none" stroke="#2E5BFF" stroke-width="2.41" stroke-linejoin="round"/><path d="M100.00,292.83 L104.12,285.81 L108.25,292.83 L112.38,285.81 L116.50,292.83" fill="none" stroke="#2E5BFF" stroke-width="2.41" stroke-linejoin="round"/><path d="M116.50,292.83 L120.62,285.81 L124.75,292.83 L128.88,285.81 L133.00,292.83" fill="none" stroke="#2E5BFF" stroke-width="2.41" stroke-linejoin="round"/><path d="M133.00,292.83 L137.12,285.81 L141.25,292.83 L145.38,285.81 L149.50,292.83" fill="none" stroke="#2E5BFF" stroke-width="2.41" stroke-linejoin="round"/><path d="M149.50,292.83 L153.62,285.81 L157.75,292.83 L161.88,285.81 L166.00,292.83" fill="none" stroke="#2E5BFF" stroke-width="2.41" stroke-linejoin="round"/><path d="M166.00,292.83 L170.12,285.81 L174.25,292.83 L178.38,285.81 L182.50,292.83" fill="none" stroke="#2E5BFF" stroke-width="2.41" stroke-linejoin="round"/><path d="M182.50,292.83 L186.62,285.81 L190.75,292.83 L194.88,285.81 L199.00,292.83" fill="none" stroke="#2E5BFF" stroke-width="2.41" stroke-linejoin="round"/><path d="M199.00,292.83 L203.12,285.81 L207.25,292.83 L211.38,285.81 L215.50,292.83" fill="none" stroke="#2E5BFF" stroke-width="2.41" stroke-linejoin="round"/><path d="M1.00,306.87 L5.12,299.85 L9.25,306.87 L13.38,299.85 L17.50,306.87" fill="none" stroke="#2E5BFF" stroke-width="2.41" stroke-linejoin="round"/><path d="M17.50,306.87 L21.62,299.85 L25.75,306.87 L29.88,299.85 L34.00,306.87" fill="none" stroke="#2E5BFF" stroke-width="2.41" stroke-linejoin="round"/><path d="M34.00,306.87 L38.12,299.85 L42.25,306.87 L46.38,299.85 L50.50,306.87" fill="none" stroke="#2E5BFF" stroke-width="2.41" stroke-linejoin="round"/><path d="M50.50,306.87 L54.62,299.85 L58.75,306.87 L62.88,299.85 L67.00,306.87" fill="none" stroke="#2E5BFF" stroke-width="2.41" stroke-linejoin="round"/><path d="M67.00,306.87 L71.12,299.85 L75.25,306.87 L79.38,299.85 L83.50,306.87" fill="none" stroke="#2E5BFF" stroke-width="2.41" stroke-linejoin="round"/><path d="M83.50,306.87 L87.62,299.85 L91.75,306.87 L95.88,299.85 L100.00,306.87" fill="none" stroke="#2E5BFF" stroke-width="2.41" stroke-linejoin="round"/><path d="M100.00,306.87 L104.12,299.85 L108.25,306.87 L112.38,299.85 L116.50,306.87" fill="none" stroke="#2E5BFF" stroke-width="2.41" stroke-linejoin="round"/><path d="M116.50,306.87 L120.62,299.85 L124.75,306.87 L128.88,299.85 L133.00,306.87" fill="none" stroke="#2E5BFF" stroke-width="2.41" stroke-linejoin="round"/><path d="M133.00,306.87 L137.12,299.85 L141.25,306.87 L145.38,299.85 L149.50,306.87" fill="none" stroke="#2E5BFF" stroke-width="2.41" stroke-linejoin="round"/><path d="M149.50,306.87 L153.62,299.85 L157.75,306.87 L161.88,299.85 L166.00,306.87" fill="none" stroke="#2E5BFF" stroke-width="2.41" stroke-linejoin="round"/><path d="M166.00,306.87 L170.12,299.85 L174.25,306.87 L178.38,299.85 L182.50,306.87" fill="none" stroke="#2E5BFF" stroke-width="2.41" stroke-linejoin="round"/><path d="M182.50,306.87 L186.62,299.85 L190.75,306.87 L194.88,299.85 L199.00,306.87" fill="none" stroke="#2E5BFF" stroke-width="2.41" stroke-linejoin="round"/><path d="M199.00,306.87 L203.12,299.85 L207.25,306.87 L211.38,299.85 L215.50,306.87" fill="none" stroke="#2E5BFF" stroke-width="2.41" stroke-linejoin="round"/><path d="M1.00,320.91 L5.12,313.89 L9.25,320.91 L13.38,313.89 L17.50,320.91" fill="none" stroke="#2E5BFF" stroke-width="2.41" stroke-linejoin="round"/><path d="M17.50,320.91 L21.62,313.89 L25.75,320.91 L29.88,313.89 L34.00,320.91" fill="none" stroke="#2E5BFF" stroke-width="2.41" stroke-linejoin="round"/><path d="M34.00,320.91 L38.12,313.89 L42.25,320.91 L46.38,313.89 L50.50,320.91" fill="none" stroke="#2E5BFF" stroke-width="2.41" stroke-linejoin="round"/><path d="M50.50,320.91 L54.62,313.89 L58.75,320.91 L62.88,313.89 L67.00,320.91" fill="none" stroke="#2E5BFF" stroke-width="2.41" stroke-linejoin="round"/><path d="M67.00,320.91 L71.12,313.89 L75.25,320.91 L79.38,313.89 L83.50,320.91" fill="none" stroke="#2E5BFF" stroke-width="2.41" stroke-linejoin="round"/><path d="M83.50,320.91 L87.62,313.89 L91.75,320.91 L95.88,313.89 L100.00,320.91" fill="none" stroke="#2E5BFF" stroke-width="2.41" stroke-linejoin="round"/><path d="M100.00,320.91 L104.12,313.89 L108.25,320.91 L112.38,313.89 L116.50,320.91" fill="none" stroke="#2E5BFF" stroke-width="2.41" stroke-linejoin="round"/><path d="M116.50,320.91 L120.62,313.89 L124.75,320.91 L128.88,313.89 L133.00,320.91" fill="none" stroke="#2E5BFF" stroke-width="2.41" stroke-linejoin="round"/><path d="M133.00,320.91 L137.12,313.89 L141.25,320.91 L145.38,313.89 L149.50,320.91" fill="none" stroke="#2E5BFF" stroke-width="2.41" stroke-linejoin="round"/><path d="M149.50,320.91 L153.62,313.89 L157.75,320.91 L161.88,313.89 L166.00,320.91" fill="none" stroke="#2E5BFF" stroke-width="2.41" stroke-linejoin="round"/><path d="M166.00,320.91 L170.12,313.89 L174.25,320.91 L178.38,313.89 L182.50,320.91" fill="none" stroke="#2E5BFF" stroke-width="2.41" stroke-linejoin="round"/><path d="M182.50,320.91 L186.62,313.89 L190.75,320.91 L194.88,313.89 L199.00,320.91" fill="none" stroke="#2E5BFF" stroke-width="2.41" stroke-linejoin="round"/><path d="M199.00,320.91 L203.12,313.89 L207.25,320.91 L211.38,313.89 L215.50,320.91" fill="none" stroke="#2E5BFF" stroke-width="2.41" stroke-linejoin="round"/><path d="M1.00,334.95 L5.12,327.93 L9.25,334.95 L13.38,327.93 L17.50,334.95" fill="none" stroke="#2E5BFF" stroke-width="2.41" stroke-linejoin="round"/><path d="M17.50,334.95 L21.62,327.93 L25.75,334.95 L29.88,327.93 L34.00,334.95" fill="none" stroke="#2E5BFF" stroke-width="2.41" stroke-linejoin="round"/><path d="M34.00,334.95 L38.12,327.93 L42.25,334.95 L46.38,327.93 L50.50,334.95" fill="none" stroke="#2E5BFF" stroke-width="2.41" stroke-linejoin="round"/><path d="M50.50,334.95 L54.62,327.93 L58.75,334.95 L62.88,327.93 L67.00,334.95" fill="none" stroke="#2E5BFF" stroke-width="2.41" stroke-linejoin="round"/><path d="M67.00,334.95 L71.12,327.93 L75.25,334.95 L79.38,327.93 L83.50,334.95" fill="none" stroke="#2E5BFF" stroke-width="2.41" stroke-linejoin="round"/><path d="M83.50,334.95 L87.62,327.93 L91.75,334.95 L95.88,327.93 L100.00,334.95" fill="none" stroke="#2E5BFF" stroke-width="2.41" stroke-linejoin="round"/><path d="M100.00,334.95 L104.12,327.93 L108.25,334.95 L112.38,327.93 L116.50,334.95" fill="none" stroke="#2E5BFF" stroke-width="2.41" stroke-linejoin="round"/><path d="M116.50,334.95 L120.62,327.93 L124.75,334.95 L128.88,327.93 L133.00,334.95" fill="none" stroke="#2E5BFF" stroke-width="2.41" stroke-linejoin="round"/><path d="M133.00,334.95 L137.12,327.93 L141.25,334.95 L145.38,327.93 L149.50,334.95" fill="none" stroke="#2E5BFF" stroke-width="2.41" stroke-linejoin="round"/><path d="M149.50,334.95 L153.62,327.93 L157.75,334.95 L161.88,327.93 L166.00,334.95" fill="none" stroke="#2E5BFF" stroke-width="2.41" stroke-linejoin="round"/><path d="M166.00,334.95 L170.12,327.93 L174.25,334.95 L178.38,327.93 L182.50,334.95" fill="none" stroke="#2E5BFF" stroke-width="2.41" stroke-linejoin="round"/><path d="M182.50,334.95 L186.62,327.93 L190.75,334.95 L194.88,327.93 L199.00,334.95" fill="none" stroke="#2E5BFF" stroke-width="2.41" stroke-linejoin="round"/><path d="M199.00,334.95 L203.12,327.93 L207.25,334.95 L211.38,327.93 L215.50,334.95" fill="none" stroke="#2E5BFF" stroke-width="2.41" stroke-linejoin="round"/><path d="M1.00,348.99 L5.12,341.97 L9.25,348.99 L13.38,341.97 L17.50,348.99" fill="none" stroke="#2E5BFF" stroke-width="2.41" stroke-linejoin="round"/><path d="M17.50,348.99 L21.62,341.97 L25.75,348.99 L29.88,341.97 L34.00,348.99" fill="none" stroke="#2E5BFF" stroke-width="2.41" stroke-linejoin="round"/><path d="M34.00,348.99 L38.12,341.97 L42.25,348.99 L46.38,341.97 L50.50,348.99" fill="none" stroke="#2E5BFF" stroke-width="2.41" stroke-linejoin="round"/><path d="M50.50,348.99 L54.62,341.97 L58.75,348.99 L62.88,341.97 L67.00,348.99" fill="none" stroke="#2E5BFF" stroke-width="2.41" stroke-linejoin="round"/><path d="M67.00,348.99 L71.12,341.97 L75.25,348.99 L79.38,341.97 L83.50,348.99" fill="none" stroke="#2E5BFF" stroke-width="2.41" stroke-linejoin="round"/><path d="M83.50,348.99 L87.62,341.97 L91.75,348.99 L95.88,341.97 L100.00,348.99" fill="none" stroke="#2E5BFF" stroke-width="2.41" stroke-linejoin="round"/><path d="M100.00,348.99 L104.12,341.97 L108.25,348.99 L112.38,341.97 L116.50,348.99" fill="none" stroke="#2E5BFF" stroke-width="2.41" stroke-linejoin="round"/><path d="M116.50,348.99 L120.62,341.97 L124.75,348.99 L128.88,341.97 L133.00,348.99" fill="none" stroke="#2E5BFF" stroke-width="2.41" stroke-linejoin="round"/><path d="M133.00,348.99 L137.12,341.97 L141.25,348.99 L145.38,341.97 L149.50,348.99" fill="none" stroke="#2E5BFF" stroke-width="2.41" stroke-linejoin="round"/><path d="M149.50,348.99 L153.62,341.97 L157.75,348.99 L161.88,341.97 L166.00,348.99" fill="none" stroke="#2E5BFF" stroke-width="2.41" stroke-linejoin="round"/><path d="M166.00,348.99 L170.12,341.97 L174.25,348.99 L178.38,341.97 L182.50,348.99" fill="none" stroke="#2E5BFF" stroke-width="2.41" stroke-linejoin="round"/><path d="M182.50,348.99 L186.62,341.97 L190.75,348.99 L194.88,341.97 L199.00,348.99" fill="none" stroke="#2E5BFF" stroke-width="2.41" stroke-linejoin="round"/><path d="M199.00,348.99 L203.12,341.97 L207.25,348.99 L211.38,341.97 L215.50,348.99" fill="none" stroke="#2E5BFF" stroke-width="2.41" stroke-linejoin="round"/><path d="M1.00,363.03 L5.12,356.01 L9.25,363.03 L13.38,356.01 L17.50,363.03" fill="none" stroke="#2E5BFF" stroke-width="2.41" stroke-linejoin="round"/><path d="M17.50,363.03 L21.62,356.01 L25.75,363.03 L29.88,356.01 L34.00,363.03" fill="none" stroke="#2E5BFF" stroke-width="2.41" stroke-linejoin="round"/><path d="M34.00,363.03 L38.12,356.01 L42.25,363.03 L46.38,356.01 L50.50,363.03" fill="none" stroke="#2E5BFF" stroke-width="2.41" stroke-linejoin="round"/><path d="M50.50,363.03 L54.62,356.01 L58.75,363.03 L62.88,356.01 L67.00,363.03" fill="none" stroke="#2E5BFF" stroke-width="2.41" stroke-linejoin="round"/><path d="M67.00,363.03 L71.12,356.01 L75.25,363.03 L79.38,356.01 L83.50,363.03" fill="none" stroke="#2E5BFF" stroke-width="2.41" stroke-linejoin="round"/><path d="M83.50,363.03 L87.62,356.01 L91.75,363.03 L95.88,356.01 L100.00,363.03" fill="none" stroke="#2E5BFF" stroke-width="2.41" stroke-linejoin="round"/><path d="M100.00,363.03 L104.12,356.01 L108.25,363.03 L112.38,356.01 L116.50,363.03" fill="none" stroke="#2E5BFF" stroke-width="2.41" stroke-linejoin="round"/><path d="M116.50,363.03 L120.62,356.01 L124.75,363.03 L128.88,356.01 L133.00,363.03" fill="none" stroke="#2E5BFF" stroke-width="2.41" stroke-linejoin="round"/><path d="M133.00,363.03 L137.12,356.01 L141.25,363.03 L145.38,356.01 L149.50,363.03" fill="none" stroke="#2E5BFF" stroke-width="2.41" stroke-linejoin="round"/><path d="M149.50,363.03 L153.62,356.01 L157.75,363.03 L161.88,356.01 L166.00,363.03" fill="none" stroke="#2E5BFF" stroke-width="2.41" stroke-linejoin="round"/><path d="M166.00,363.03 L170.12,356.01 L174.25,363.03 L178.38,356.01 L182.50,363.03" fill="none" stroke="#2E5BFF" stroke-width="2.41" stroke-linejoin="round"/><path d="M182.50,363.03 L186.62,356.01 L190.75,363.03 L194.88,356.01 L199.00,363.03" fill="none" stroke="#2E5BFF" stroke-width="2.41" stroke-linejoin="round"/><path d="M199.00,363.03 L203.12,356.01 L207.25,363.03 L211.38,356.01 L215.50,363.03" fill="none" stroke="#2E5BFF" stroke-width="2.41" stroke-linejoin="round"/>
  </g>
  <!-- outer stroke on top -->
  <rect x="1" y="1" width="208" height="361" rx="12" fill="none" stroke="#26211D"/>
  <!-- inner field -->
  <rect x="11" y="11" width="188" height="341" rx="7" fill="#0B0908"/>
  <rect x="11.5" y="11.5" width="187" height="340" rx="7" fill="none" stroke="#F4EEE2" stroke-opacity="0.12"/>
  <!-- numeral (overlay top, tracking ~6) -->
  <text x="105" y="46" text-anchor="middle" font-family="Georgia, 'Times New Roman', serif" font-size="17" letter-spacing="6" fill="#F4EEE2">VII</text>
  <!-- sigil -->
  <g>
    <circle cx="65" cy="118" r="2" fill="#F4EEE2"/>
    <circle cx="85" cy="118" r="2" fill="#F4EEE2"/>
    <circle cx="105" cy="118" r="2" fill="#F4EEE2"/>
    <circle cx="125" cy="118" r="2" fill="#F4EEE2"/>
    <circle cx="145" cy="118" r="2" fill="#F4EEE2"/>
    <polyline points="72,178 105,152 138,178" fill="none" stroke="#2E5BFF" stroke-width="6" stroke-linecap="round" stroke-linejoin="round"/>
    <polyline points="72,214 105,188 138,214" fill="none" stroke="#2E5BFF" stroke-width="6" stroke-linecap="round" stroke-linejoin="round"/>
    <polyline points="72,250 105,224 138,250" fill="none" stroke="#2E5BFF" stroke-width="6" stroke-linecap="round" stroke-linejoin="round"/>
  </g>
  <!-- printed title EN -->
  <text x="105" y="334" text-anchor="middle" font-family="system-ui, Helvetica, sans-serif" font-size="9.5" letter-spacing="3.5" fill="#8E877B">THE CHARIOT</text>
</svg>
