<svg class="arcana-svg" viewBox="0 0 210 363" xmlns="http://www.w3.org/2000/svg" role="img" aria-label="THE SUN">
  <defs>
    <clipPath id="band-19" clipPathUnits="userSpaceOnUse">
      <path d="M1,1 h208 v361 h-208 z M11,11 h188 v341 h-188 z" clip-rule="evenodd" fill-rule="evenodd"/>
    </clipPath>
  </defs>
  <!-- ground -->
  <rect x="1" y="1" width="208" height="361" rx="12" fill="#0B0908" stroke="#26211D"/>
  <!-- border band (clipped) -->
  <g clip-path="url(#band-19)">
    <polygon points="1.00,1.00 7.19,11.00 13.38,1.00" fill="#FFD43A"/><polygon points="13.38,1.00 19.56,11.00 25.75,1.00" fill="#FFD43A"/><polygon points="25.75,1.00 31.94,11.00 38.12,1.00" fill="#FFD43A"/><polygon points="38.12,1.00 44.31,11.00 50.50,1.00" fill="#FFD43A"/><polygon points="50.50,1.00 56.69,11.00 62.88,1.00" fill="#FFD43A"/><polygon points="62.88,1.00 69.06,11.00 75.25,1.00" fill="#FFD43A"/><polygon points="75.25,1.00 81.44,11.00 87.62,1.00" fill="#FFD43A"/><polygon points="87.62,1.00 93.81,11.00 100.00,1.00" fill="#FFD43A"/><polygon points="100.00,1.00 106.19,11.00 112.38,1.00" fill="#FFD43A"/><polygon points="112.38,1.00 118.56,11.00 124.75,1.00" fill="#FFD43A"/><polygon points="124.75,1.00 130.94,11.00 137.12,1.00" fill="#FFD43A"/><polygon points="137.12,1.00 143.31,11.00 149.50,1.00" fill="#FFD43A"/><polygon points="149.50,1.00 155.69,11.00 161.88,1.00" fill="#FFD43A"/><polygon points="161.88,1.00 168.06,11.00 174.25,1.00" fill="#FFD43A"/><polygon points="174.25,1.00 180.44,11.00 186.62,1.00" fill="#FFD43A"/><polygon points="186.62,1.00 192.81,11.00 199.00,1.00" fill="#FFD43A"/><polygon points="199.00,1.00 205.19,11.00 211.38,1.00" fill="#FFD43A"/><polygon points="1.00,14.00 7.19,24.00 13.38,14.00" fill="#FFD43A"/><polygon points="13.38,14.00 19.56,24.00 25.75,14.00" fill="#FFD43A"/><polygon points="25.75,14.00 31.94,24.00 38.12,14.00" fill="#FFD43A"/><polygon points="38.12,14.00 44.31,24.00 50.50,14.00" fill="#FFD43A"/><polygon points="50.50,14.00 56.69,24.00 62.88,14.00" fill="#FFD43A"/><polygon points="62.88,14.00 69.06,24.00 75.25,14.00" fill="#FFD43A"/><polygon points="75.25,14.00 81.44,24.00 87.62,14.00" fill="#FFD43A"/><polygon points="87.62,14.00 93.81,24.00 100.00,14.00" fill="#FFD43A"/><polygon points="100.00,14.00 106.19,24.00 112.38,14.00" fill="#FFD43A"/><polygon points="112.38,14.00 118.56,24.00 124.75,14.00" fill="#FFD43A"/><polygon points="124.75,14.00 130.94,24.00 137.12,14.00" fill="#FFD43A"/><polygon points="137.12,14.00 143.31,24.00 149.50,14.00" fill="#FFD43A"/><polygon points="149.50,14.00 155.69,24.00 161.88,14.00" fill="#FFD43A"/><polygon points="161.88,14.00 168.06,24.00 174.25,14.00" fill="#FFD43A"/><polygon points="174.25,14.00 180.44,24.00 186.62,14.00" fill="#FFD43A"/><polygon points="186.62,14.00 192.81,24.00 199.00,14.00" fill="#FFD43A"/><polygon points="199.00,14.00 205.19,24.00 211.38,14.00" fill="#FFD43A"/><polygon points="1.00,27.00 7.19,37.00 13.38,27.00" fill="#FFD43A"/><polygon points="13.38,27.00 19.56,37.00 25.75,27.00" fill="#FFD43A"/><polygon points="25.75,27.00 31.94,37.00 38.12,27.00" fill="#FFD43A"/><polygon points="38.12,27.00 44.31,37.00 50.50,27.00" fill="#FFD43A"/><polygon points="50.50,27.00 56.69,37.00 62.88,27.00" fill="#FFD43A"/><polygon points="62.88,27.00 69.06,37.00 75.25,27.00" fill="#FFD43A"/><polygon points="75.25,27.00 81.44,37.00 87.62,27.00" fill="#FFD43A"/><polygon points="87.62,27.00 93.81,37.00 100.00,27.00" fill="#FFD43A"/><polygon points="100.00,27.00 106.19,37.00 112.38,27.00" fill="#FFD43A"/><polygon points="112.38,27.00 118.56,37.00 124.75,27.00" fill="#FFD43A"/><polygon points="124.75,27.00 130.94,37.00 137.12,27.00" fill="#FFD43A"/><polygon points="137.12,27.00 143.31,37.00 149.50,27.00" fill="#FFD43A"/><polygon points="149.50,27.00 155.69,37.00 161.88,27.00" fill="#FFD43A"/><polygon points="161.88,27.00 168.06,37.00 174.25,27.00" fill="#FFD43A"/><polygon points="174.25,27.00 180.44,37.00 186.62,27.00" fill="#FFD43A"/><polygon points="186.62,27.00 192.81,37.00 199.00,27.00" fill="#FFD43A"/><polygon points="199.00,27.00 205.19,37.00 211.38,27.00" fill="#FFD43A"/><polygon points="1.00,40.00 7.19,50.00 13.38,40.00" fill="#FFD43A"/><polygon points="13.38,40.00 19.56,50.00 25.75,40.00" fill="#FFD43A"/><polygon points="25.75,40.00 31.94,50.00 38.12,40.00" fill="#FFD43A"/><polygon points="38.12,40.00 44.31,50.00 50.50,40.00" fill="#FFD43A"/><polygon points="50.50,40.00 56.69,50.00 62.88,40.00" fill="#FFD43A"/><polygon points="62.88,40.00 69.06,50.00 75.25,40.00" fill="#FFD43A"/><polygon points="75.25,40.00 81.44,50.00 87.62,40.00" fill="#FFD43A"/><polygon points="87.62,40.00 93.81,50.00 100.00,40.00" fill="#FFD43A"/><polygon points="100.00,40.00 106.19,50.00 112.38,40.00" fill="#FFD43A"/><polygon points="112.38,40.00 118.56,50.00 124.75,40.00" fill="#FFD43A"/><polygon points="124.75,40.00 130.94,50.00 137.12,40.00" fill="#FFD43A"/><polygon points="137.12,40.00 143.31,50.00 149.50,40.00" fill="#FFD43A"/><polygon points="149.50,40.00 155.69,50.00 161.88,40.00" fill="#FFD43A"/><polygon points="161.88,40.00 168.06,50.00 174.25,40.00" fill="#FFD43A"/><polygon points="174.25,40.00 180.44,50.00 186.62,40.00" fill="#FFD43A"/><polygon points="186.62,40.00 192.81,50.00 199.00,40.00" fill="#FFD43A"/><polygon points="199.00,40.00 205.19,50.00 211.38,40.00" fill="#FFD43A"/><polygon points="1.00,53.00 7.19,63.00 13.38,53.00" fill="#FFD43A"/><polygon points="13.38,53.00 19.56,63.00 25.75,53.00" fill="#FFD43A"/><polygon points="25.75,53.00 31.94,63.00 38.12,53.00" fill="#FFD43A"/><polygon points="38.12,53.00 44.31,63.00 50.50,53.00" fill="#FFD43A"/><polygon points="50.50,53.00 56.69,63.00 62.88,53.00" fill="#FFD43A"/><polygon points="62.88,53.00 69.06,63.00 75.25,53.00" fill="#FFD43A"/><polygon points="75.25,53.00 81.44,63.00 87.62,53.00" fill="#FFD43A"/><polygon points="87.62,53.00 93.81,63.00 100.00,53.00" fill="#FFD43A"/><polygon points="100.00,53.00 106.19,63.00 112.38,53.00" fill="#FFD43A"/><polygon points="112.38,53.00 118.56,63.00 124.75,53.00" fill="#FFD43A"/><polygon points="124.75,53.00 130.94,63.00 137.12,53.00" fill="#FFD43A"/><polygon points="137.12,53.00 143.31,63.00 149.50,53.00" fill="#FFD43A"/><polygon points="149.50,53.00 155.69,63.00 161.88,53.00" fill="#FFD43A"/><polygon points="161.88,53.00 168.06,63.00 174.25,53.00" fill="#FFD43A"/><polygon points="174.25,53.00 180.44,63.00 186.62,53.00" fill="#FFD43A"/><polygon points="186.62,53.00 192.81,63.00 199.00,53.00" fill="#FFD43A"/><polygon points="199.00,53.00 205.19,63.00 211.38,53.00" fill="#FFD43A"/><polygon points="1.00,66.00 7.19,76.00 13.38,66.00" fill="#FFD43A"/><polygon points="13.38,66.00 19.56,76.00 25.75,66.00" fill="#FFD43A"/><polygon points="25.75,66.00 31.94,76.00 38.12,66.00" fill="#FFD43A"/><polygon points="38.12,66.00 44.31,76.00 50.50,66.00" fill="#FFD43A"/><polygon points="50.50,66.00 56.69,76.00 62.88,66.00" fill="#FFD43A"/><polygon points="62.88,66.00 69.06,76.00 75.25,66.00" fill="#FFD43A"/><polygon points="75.25,66.00 81.44,76.00 87.62,66.00" fill="#FFD43A"/><polygon points="87.62,66.00 93.81,76.00 100.00,66.00" fill="#FFD43A"/><polygon points="100.00,66.00 106.19,76.00 112.38,66.00" fill="#FFD43A"/><polygon points="112.38,66.00 118.56,76.00 124.75,66.00" fill="#FFD43A"/><polygon points="124.75,66.00 130.94,76.00 137.12,66.00" fill="#FFD43A"/><polygon points="137.12,66.00 143.31,76.00 149.50,66.00" fill="#FFD43A"/><polygon points="149.50,66.00 155.69,76.00 161.88,66.00" fill="#FFD43A"/><polygon points="161.88,66.00 168.06,76.00 174.25,66.00" fill="#FFD43A"/><polygon points="174.25,66.00 180.44,76.00 186.62,66.00" fill="#FFD43A"/><polygon points="186.62,66.00 192.81,76.00 199.00,66.00" fill="#FFD43A"/><polygon points="199.00,66.00 205.19,76.00 211.38,66.00" fill="#FFD43A"/><polygon points="1.00,79.00 7.19,89.00 13.38,79.00" fill="#FFD43A"/><polygon points="13.38,79.00 19.56,89.00 25.75,79.00" fill="#FFD43A"/><polygon points="25.75,79.00 31.94,89.00 38.12,79.00" fill="#FFD43A"/><polygon points="38.12,79.00 44.31,89.00 50.50,79.00" fill="#FFD43A"/><polygon points="50.50,79.00 56.69,89.00 62.88,79.00" fill="#FFD43A"/><polygon points="62.88,79.00 69.06,89.00 75.25,79.00" fill="#FFD43A"/><polygon points="75.25,79.00 81.44,89.00 87.62,79.00" fill="#FFD43A"/><polygon points="87.62,79.00 93.81,89.00 100.00,79.00" fill="#FFD43A"/><polygon points="100.00,79.00 106.19,89.00 112.38,79.00" fill="#FFD43A"/><polygon points="112.38,79.00 118.56,89.00 124.75,79.00" fill="#FFD43A"/><polygon points="124.75,79.00 130.94,89.00 137.12,79.00" fill="#FFD43A"/><polygon points="137.12,79.00 143.31,89.00 149.50,79.00" fill="#FFD43A"/><polygon points="149.50,79.00 155.69,89.00 161.88,79.00" fill="#FFD43A"/><polygon points="161.88,79.00 168.06,89.00 174.25,79.00" fill="#FFD43A"/><polygon points="174.25,79.00 180.44,89.00 186.62,79.00" fill="#FFD43A"/><polygon points="186.62,79.00 192.81,89.00 199.00,79.00" fill="#FFD43A"/><polygon points="199.00,79.00 205.19,89.00 211.38,79.00" fill="#FFD43A"/><polygon points="1.00,92.00 7.19,102.00 13.38,92.00" fill="#FFD43A"/><polygon points="13.38,92.00 19.56,102.00 25.75,92.00" fill="#FFD43A"/><polygon points="25.75,92.00 31.94,102.00 38.12,92.00" fill="#FFD43A"/><polygon points="38.12,92.00 44.31,102.00 50.50,92.00" fill="#FFD43A"/><polygon points="50.50,92.00 56.69,102.00 62.88,92.00" fill="#FFD43A"/><polygon points="62.88,92.00 69.06,102.00 75.25,92.00" fill="#FFD43A"/><polygon points="75.25,92.00 81.44,102.00 87.62,92.00" fill="#FFD43A"/><polygon points="87.62,92.00 93.81,102.00 100.00,92.00" fill="#FFD43A"/><polygon points="100.00,92.00 106.19,102.00 112.38,92.00" fill="#FFD43A"/><polygon points="112.38,92.00 118.56,102.00 124.75,92.00" fill="#FFD43A"/><polygon points="124.75,92.00 130.94,102.00 137.12,92.00" fill="#FFD43A"/><polygon points="137.12,92.00 143.31,102.00 149.50,92.00" fill="#FFD43A"/><polygon points="149.50,92.00 155.69,102.00 161.88,92.00" fill="#FFD43A"/><polygon points="161.88,92.00 168.06,102.00 174.25,92.00" fill="#FFD43A"/><polygon points="174.25,92.00 180.44,102.00 186.62,92.00" fill="#FFD43A"/><polygon points="186.62,92.00 192.81,102.00 199.00,92.00" fill="#FFD43A"/><polygon points="199.00,92.00 205.19,102.00 211.38,92.00" fill="#FFD43A"/><polygon points="1.00,105.00 7.19,115.00 13.38,105.00" fill="#FFD43A"/><polygon points="13.38,105.00 19.56,115.00 25.75,105.00" fill="#FFD43A"/><polygon points="25.75,105.00 31.94,115.00 38.12,105.00" fill="#FFD43A"/><polygon points="38.12,105.00 44.31,115.00 50.50,105.00" fill="#FFD43A"/><polygon points="50.50,105.00 56.69,115.00 62.88,105.00" fill="#FFD43A"/><polygon points="62.88,105.00 69.06,115.00 75.25,105.00" fill="#FFD43A"/><polygon points="75.25,105.00 81.44,115.00 87.62,105.00" fill="#FFD43A"/><polygon points="87.62,105.00 93.81,115.00 100.00,105.00" fill="#FFD43A"/><polygon points="100.00,105.00 106.19,115.00 112.38,105.00" fill="#FFD43A"/><polygon points="112.38,105.00 118.56,115.00 124.75,105.00" fill="#FFD43A"/><polygon points="124.75,105.00 130.94,115.00 137.12,105.00" fill="#FFD43A"/><polygon points="137.12,105.00 143.31,115.00 149.50,105.00" fill="#FFD43A"/><polygon points="149.50,105.00 155.69,115.00 161.88,105.00" fill="#FFD43A"/><polygon points="161.88,105.00 168.06,115.00 174.25,105.00" fill="#FFD43A"/><polygon points="174.25,105.00 180.44,115.00 186.62,105.00" fill="#FFD43A"/><polygon points="186.62,105.00 192.81,115.00 199.00,105.00" fill="#FFD43A"/><polygon points="199.00,105.00 205.19,115.00 211.38,105.00" fill="#FFD43A"/><polygon points="1.00,118.00 7.19,128.00 13.38,118.00" fill="#FFD43A"/><polygon points="13.38,118.00 19.56,128.00 25.75,118.00" fill="#FFD43A"/><polygon points="25.75,118.00 31.94,128.00 38.12,118.00" fill="#FFD43A"/><polygon points="38.12,118.00 44.31,128.00 50.50,118.00" fill="#FFD43A"/><polygon points="50.50,118.00 56.69,128.00 62.88,118.00" fill="#FFD43A"/><polygon points="62.88,118.00 69.06,128.00 75.25,118.00" fill="#FFD43A"/><polygon points="75.25,118.00 81.44,128.00 87.62,118.00" fill="#FFD43A"/><polygon points="87.62,118.00 93.81,128.00 100.00,118.00" fill="#FFD43A"/><polygon points="100.00,118.00 106.19,128.00 112.38,118.00" fill="#FFD43A"/><polygon points="112.38,118.00 118.56,128.00 124.75,118.00" fill="#FFD43A"/><polygon points="124.75,118.00 130.94,128.00 137.12,118.00" fill="#FFD43A"/><polygon points="137.12,118.00 143.31,128.00 149.50,118.00" fill="#FFD43A"/><polygon points="149.50,118.00 155.69,128.00 161.88,118.00" fill="#FFD43A"/><polygon points="161.88,118.00 168.06,128.00 174.25,118.00" fill="#FFD43A"/><polygon points="174.25,118.00 180.44,128.00 186.62,118.00" fill="#FFD43A"/><polygon points="186.62,118.00 192.81,128.00 199.00,118.00" fill="#FFD43A"/><polygon points="199.00,118.00 205.19,128.00 211.38,118.00" fill="#FFD43A"/><polygon points="1.00,131.00 7.19,141.00 13.38,131.00" fill="#FFD43A"/><polygon points="13.38,131.00 19.56,141.00 25.75,131.00" fill="#FFD43A"/><polygon points="25.75,131.00 31.94,141.00 38.12,131.00" fill="#FFD43A"/><polygon points="38.12,131.00 44.31,141.00 50.50,131.00" fill="#FFD43A"/><polygon points="50.50,131.00 56.69,141.00 62.88,131.00" fill="#FFD43A"/><polygon points="62.88,131.00 69.06,141.00 75.25,131.00" fill="#FFD43A"/><polygon points="75.25,131.00 81.44,141.00 87.62,131.00" fill="#FFD43A"/><polygon points="87.62,131.00 93.81,141.00 100.00,131.00" fill="#FFD43A"/><polygon points="100.00,131.00 106.19,141.00 112.38,131.00" fill="#FFD43A"/><polygon points="112.38,131.00 118.56,141.00 124.75,131.00" fill="#FFD43A"/><polygon points="124.75,131.00 130.94,141.00 137.12,131.00" fill="#FFD43A"/><polygon points="137.12,131.00 143.31,141.00 149.50,131.00" fill="#FFD43A"/><polygon points="149.50,131.00 155.69,141.00 161.88,131.00" fill="#FFD43A"/><polygon points="161.88,131.00 168.06,141.00 174.25,131.00" fill="#FFD43A"/><polygon points="174.25,131.00 180.44,141.00 186.62,131.00" fill="#FFD43A"/><polygon points="186.62,131.00 192.81,141.00 199.00,131.00" fill="#FFD43A"/><polygon points="199.00,131.00 205.19,141.00 211.38,131.00" fill="#FFD43A"/><polygon points="1.00,144.00 7.19,154.00 13.38,144.00" fill="#FFD43A"/><polygon points="13.38,144.00 19.56,154.00 25.75,144.00" fill="#FFD43A"/><polygon points="25.75,144.00 31.94,154.00 38.12,144.00" fill="#FFD43A"/><polygon points="38.12,144.00 44.31,154.00 50.50,144.00" fill="#FFD43A"/><polygon points="50.50,144.00 56.69,154.00 62.88,144.00" fill="#FFD43A"/><polygon points="62.88,144.00 69.06,154.00 75.25,144.00" fill="#FFD43A"/><polygon points="75.25,144.00 81.44,154.00 87.62,144.00" fill="#FFD43A"/><polygon points="87.62,144.00 93.81,154.00 100.00,144.00" fill="#FFD43A"/><polygon points="100.00,144.00 106.19,154.00 112.38,144.00" fill="#FFD43A"/><polygon points="112.38,144.00 118.56,154.00 124.75,144.00" fill="#FFD43A"/><polygon points="124.75,144.00 130.94,154.00 137.12,144.00" fill="#FFD43A"/><polygon points="137.12,144.00 143.31,154.00 149.50,144.00" fill="#FFD43A"/><polygon points="149.50,144.00 155.69,154.00 161.88,144.00" fill="#FFD43A"/><polygon points="161.88,144.00 168.06,154.00 174.25,144.00" fill="#FFD43A"/><polygon points="174.25,144.00 180.44,154.00 186.62,144.00" fill="#FFD43A"/><polygon points="186.62,144.00 192.81,154.00 199.00,144.00" fill="#FFD43A"/><polygon points="199.00,144.00 205.19,154.00 211.38,144.00" fill="#FFD43A"/><polygon points="1.00,157.00 7.19,167.00 13.38,157.00" fill="#FFD43A"/><polygon points="13.38,157.00 19.56,167.00 25.75,157.00" fill="#FFD43A"/><polygon points="25.75,157.00 31.94,167.00 38.12,157.00" fill="#FFD43A"/><polygon points="38.12,157.00 44.31,167.00 50.50,157.00" fill="#FFD43A"/><polygon points="50.50,157.00 56.69,167.00 62.88,157.00" fill="#FFD43A"/><polygon points="62.88,157.00 69.06,167.00 75.25,157.00" fill="#FFD43A"/><polygon points="75.25,157.00 81.44,167.00 87.62,157.00" fill="#FFD43A"/><polygon points="87.62,157.00 93.81,167.00 100.00,157.00" fill="#FFD43A"/><polygon points="100.00,157.00 106.19,167.00 112.38,157.00" fill="#FFD43A"/><polygon points="112.38,157.00 118.56,167.00 124.75,157.00" fill="#FFD43A"/><polygon points="124.75,157.00 130.94,167.00 137.12,157.00" fill="#FFD43A"/><polygon points="137.12,157.00 143.31,167.00 149.50,157.00" fill="#FFD43A"/><polygon points="149.50,157.00 155.69,167.00 161.88,157.00" fill="#FFD43A"/><polygon points="161.88,157.00 168.06,167.00 174.25,157.00" fill="#FFD43A"/><polygon points="174.25,157.00 180.44,167.00 186.62,157.00" fill="#FFD43A"/><polygon points="186.62,157.00 192.81,167.00 199.00,157.00" fill="#FFD43A"/><polygon points="199.00,157.00 205.19,167.00 211.38,157.00" fill="#FFD43A"/><polygon points="1.00,170.00 7.19,180.00 13.38,170.00" fill="#FFD43A"/><polygon points="13.38,170.00 19.56,180.00 25.75,170.00" fill="#FFD43A"/><polygon points="25.75,170.00 31.94,180.00 38.12,170.00" fill="#FFD43A"/><polygon points="38.12,170.00 44.31,180.00 50.50,170.00" fill="#FFD43A"/><polygon points="50.50,170.00 56.69,180.00 62.88,170.00" fill="#FFD43A"/><polygon points="62.88,170.00 69.06,180.00 75.25,170.00" fill="#FFD43A"/><polygon points="75.25,170.00 81.44,180.00 87.62,170.00" fill="#FFD43A"/><polygon points="87.62,170.00 93.81,180.00 100.00,170.00" fill="#FFD43A"/><polygon points="100.00,170.00 106.19,180.00 112.38,170.00" fill="#FFD43A"/><polygon points="112.38,170.00 118.56,180.00 124.75,170.00" fill="#FFD43A"/><polygon points="124.75,170.00 130.94,180.00 137.12,170.00" fill="#FFD43A"/><polygon points="137.12,170.00 143.31,180.00 149.50,170.00" fill="#FFD43A"/><polygon points="149.50,170.00 155.69,180.00 161.88,170.00" fill="#FFD43A"/><polygon points="161.88,170.00 168.06,180.00 174.25,170.00" fill="#FFD43A"/><polygon points="174.25,170.00 180.44,180.00 186.62,170.00" fill="#FFD43A"/><polygon points="186.62,170.00 192.81,180.00 199.00,170.00" fill="#FFD43A"/><polygon points="199.00,170.00 205.19,180.00 211.38,170.00" fill="#FFD43A"/><polygon points="1.00,183.00 7.19,193.00 13.38,183.00" fill="#FFD43A"/><polygon points="13.38,183.00 19.56,193.00 25.75,183.00" fill="#FFD43A"/><polygon points="25.75,183.00 31.94,193.00 38.12,183.00" fill="#FFD43A"/><polygon points="38.12,183.00 44.31,193.00 50.50,183.00" fill="#FFD43A"/><polygon points="50.50,183.00 56.69,193.00 62.88,183.00" fill="#FFD43A"/><polygon points="62.88,183.00 69.06,193.00 75.25,183.00" fill="#FFD43A"/><polygon points="75.25,183.00 81.44,193.00 87.62,183.00" fill="#FFD43A"/><polygon points="87.62,183.00 93.81,193.00 100.00,183.00" fill="#FFD43A"/><polygon points="100.00,183.00 106.19,193.00 112.38,183.00" fill="#FFD43A"/><polygon points="112.38,183.00 118.56,193.00 124.75,183.00" fill="#FFD43A"/><polygon points="124.75,183.00 130.94,193.00 137.12,183.00" fill="#FFD43A"/><polygon points="137.12,183.00 143.31,193.00 149.50,183.00" fill="#FFD43A"/><polygon points="149.50,183.00 155.69,193.00 161.88,183.00" fill="#FFD43A"/><polygon points="161.88,183.00 168.06,193.00 174.25,183.00" fill="#FFD43A"/><polygon points="174.25,183.00 180.44,193.00 186.62,183.00" fill="#FFD43A"/><polygon points="186.62,183.00 192.81,193.00 199.00,183.00" fill="#FFD43A"/><polygon points="199.00,183.00 205.19,193.00 211.38,183.00" fill="#FFD43A"/><polygon points="1.00,196.00 7.19,206.00 13.38,196.00" fill="#FFD43A"/><polygon points="13.38,196.00 19.56,206.00 25.75,196.00" fill="#FFD43A"/><polygon points="25.75,196.00 31.94,206.00 38.12,196.00" fill="#FFD43A"/><polygon points="38.12,196.00 44.31,206.00 50.50,196.00" fill="#FFD43A"/><polygon points="50.50,196.00 56.69,206.00 62.88,196.00" fill="#FFD43A"/><polygon points="62.88,196.00 69.06,206.00 75.25,196.00" fill="#FFD43A"/><polygon points="75.25,196.00 81.44,206.00 87.62,196.00" fill="#FFD43A"/><polygon points="87.62,196.00 93.81,206.00 100.00,196.00" fill="#FFD43A"/><polygon points="100.00,196.00 106.19,206.00 112.38,196.00" fill="#FFD43A"/><polygon points="112.38,196.00 118.56,206.00 124.75,196.00" fill="#FFD43A"/><polygon points="124.75,196.00 130.94,206.00 137.12,196.00" fill="#FFD43A"/><polygon points="137.12,196.00 143.31,206.00 149.50,196.00" fill="#FFD43A"/><polygon points="149.50,196.00 155.69,206.00 161.88,196.00" fill="#FFD43A"/><polygon points="161.88,196.00 168.06,206.00 174.25,196.00" fill="#FFD43A"/><polygon points="174.25,196.00 180.44,206.00 186.62,196.00" fill="#FFD43A"/><polygon points="186.62,196.00 192.81,206.00 199.00,196.00" fill="#FFD43A"/><polygon points="199.00,196.00 205.19,206.00 211.38,196.00" fill="#FFD43A"/><polygon points="1.00,209.00 7.19,219.00 13.38,209.00" fill="#FFD43A"/><polygon points="13.38,209.00 19.56,219.00 25.75,209.00" fill="#FFD43A"/><polygon points="25.75,209.00 31.94,219.00 38.12,209.00" fill="#FFD43A"/><polygon points="38.12,209.00 44.31,219.00 50.50,209.00" fill="#FFD43A"/><polygon points="50.50,209.00 56.69,219.00 62.88,209.00" fill="#FFD43A"/><polygon points="62.88,209.00 69.06,219.00 75.25,209.00" fill="#FFD43A"/><polygon points="75.25,209.00 81.44,219.00 87.62,209.00" fill="#FFD43A"/><polygon points="87.62,209.00 93.81,219.00 100.00,209.00" fill="#FFD43A"/><polygon points="100.00,209.00 106.19,219.00 112.38,209.00" fill="#FFD43A"/><polygon points="112.38,209.00 118.56,219.00 124.75,209.00" fill="#FFD43A"/><polygon points="124.75,209.00 130.94,219.00 137.12,209.00" fill="#FFD43A"/><polygon points="137.12,209.00 143.31,219.00 149.50,209.00" fill="#FFD43A"/><polygon points="149.50,209.00 155.69,219.00 161.88,209.00" fill="#FFD43A"/><polygon points="161.88,209.00 168.06,219.00 174.25,209.00" fill="#FFD43A"/><polygon points="174.25,209.00 180.44,219.00 186.62,209.00" fill="#FFD43A"/><polygon points="186.62,209.00 192.81,219.00 199.00,209.00" fill="#FFD43A"/><polygon points="199.00,209.00 205.19,219.00 211.38,209.00" fill="#FFD43A"/><polygon points="1.00,222.00 7.19,232.00 13.38,222.00" fill="#FFD43A"/><polygon points="13.38,222.00 19.56,232.00 25.75,222.00" fill="#FFD43A"/><polygon points="25.75,222.00 31.94,232.00 38.12,222.00" fill="#FFD43A"/><polygon points="38.12,222.00 44.31,232.00 50.50,222.00" fill="#FFD43A"/><polygon points="50.50,222.00 56.69,232.00 62.88,222.00" fill="#FFD43A"/><polygon points="62.88,222.00 69.06,232.00 75.25,222.00" fill="#FFD43A"/><polygon points="75.25,222.00 81.44,232.00 87.62,222.00" fill="#FFD43A"/><polygon points="87.62,222.00 93.81,232.00 100.00,222.00" fill="#FFD43A"/><polygon points="100.00,222.00 106.19,232.00 112.38,222.00" fill="#FFD43A"/><polygon points="112.38,222.00 118.56,232.00 124.75,222.00" fill="#FFD43A"/><polygon points="124.75,222.00 130.94,232.00 137.12,222.00" fill="#FFD43A"/><polygon points="137.12,222.00 143.31,232.00 149.50,222.00" fill="#FFD43A"/><polygon points="149.50,222.00 155.69,232.00 161.88,222.00" fill="#FFD43A"/><polygon points="161.88,222.00 168.06,232.00 174.25,222.00" fill="#FFD43A"/><polygon points="174.25,222.00 180.44,232.00 186.62,222.00" fill="#FFD43A"/><polygon points="186.62,222.00 192.81,232.00 199.00,222.00" fill="#FFD43A"/><polygon points="199.00,222.00 205.19,232.00 211.38,222.00" fill="#FFD43A"/><polygon points="1.00,235.00 7.19,245.00 13.38,235.00" fill="#FFD43A"/><polygon points="13.38,235.00 19.56,245.00 25.75,235.00" fill="#FFD43A"/><polygon points="25.75,235.00 31.94,245.00 38.12,235.00" fill="#FFD43A"/><polygon points="38.12,235.00 44.31,245.00 50.50,235.00" fill="#FFD43A"/><polygon points="50.50,235.00 56.69,245.00 62.88,235.00" fill="#FFD43A"/><polygon points="62.88,235.00 69.06,245.00 75.25,235.00" fill="#FFD43A"/><polygon points="75.25,235.00 81.44,245.00 87.62,235.00" fill="#FFD43A"/><polygon points="87.62,235.00 93.81,245.00 100.00,235.00" fill="#FFD43A"/><polygon points="100.00,235.00 106.19,245.00 112.38,235.00" fill="#FFD43A"/><polygon points="112.38,235.00 118.56,245.00 124.75,235.00" fill="#FFD43A"/><polygon points="124.75,235.00 130.94,245.00 137.12,235.00" fill="#FFD43A"/><polygon points="137.12,235.00 143.31,245.00 149.50,235.00" fill="#FFD43A"/><polygon points="149.50,235.00 155.69,245.00 161.88,235.00" fill="#FFD43A"/><polygon points="161.88,235.00 168.06,245.00 174.25,235.00" fill="#FFD43A"/><polygon points="174.25,235.00 180.44,245.00 186.62,235.00" fill="#FFD43A"/><polygon points="186.62,235.00 192.81,245.00 199.00,235.00" fill="#FFD43A"/><polygon points="199.00,235.00 205.19,245.00 211.38,235.00" fill="#FFD43A"/><polygon points="1.00,248.00 7.19,258.00 13.38,248.00" fill="#FFD43A"/><polygon points="13.38,248.00 19.56,258.00 25.75,248.00" fill="#FFD43A"/><polygon points="25.75,248.00 31.94,258.00 38.12,248.00" fill="#FFD43A"/><polygon points="38.12,248.00 44.31,258.00 50.50,248.00" fill="#FFD43A"/><polygon points="50.50,248.00 56.69,258.00 62.88,248.00" fill="#FFD43A"/><polygon points="62.88,248.00 69.06,258.00 75.25,248.00" fill="#FFD43A"/><polygon points="75.25,248.00 81.44,258.00 87.62,248.00" fill="#FFD43A"/><polygon points="87.62,248.00 93.81,258.00 100.00,248.00" fill="#FFD43A"/><polygon points="100.00,248.00 106.19,258.00 112.38,248.00" fill="#FFD43A"/><polygon points="112.38,248.00 118.56,258.00 124.75,248.00" fill="#FFD43A"/><polygon points="124.75,248.00 130.94,258.00 137.12,248.00" fill="#FFD43A"/><polygon points="137.12,248.00 143.31,258.00 149.50,248.00" fill="#FFD43A"/><polygon points="149.50,248.00 155.69,258.00 161.88,248.00" fill="#FFD43A"/><polygon points="161.88,248.00 168.06,258.00 174.25,248.00" fill="#FFD43A"/><polygon points="174.25,248.00 180.44,258.00 186.62,248.00" fill="#FFD43A"/><polygon points="186.62,248.00 192.81,258.00 199.00,248.00" fill="#FFD43A"/><polygon points="199.00,248.00 205.19,258.00 211.38,248.00" fill="#FFD43A"/><polygon points="1.00,261.00 7.19,271.00 13.38,261.00" fill="#FFD43A"/><polygon points="13.38,261.00 19.56,271.00 25.75,261.00" fill="#FFD43A"/><polygon points="25.75,261.00 31.94,271.00 38.12,261.00" fill="#FFD43A"/><polygon points="38.12,261.00 44.31,271.00 50.50,261.00" fill="#FFD43A"/><polygon points="50.50,261.00 56.69,271.00 62.88,261.00" fill="#FFD43A"/><polygon points="62.88,261.00 69.06,271.00 75.25,261.00" fill="#FFD43A"/><polygon points="75.25,261.00 81.44,271.00 87.62,261.00" fill="#FFD43A"/><polygon points="87.62,261.00 93.81,271.00 100.00,261.00" fill="#FFD43A"/><polygon points="100.00,261.00 106.19,271.00 112.38,261.00" fill="#FFD43A"/><polygon points="112.38,261.00 118.56,271.00 124.75,261.00" fill="#FFD43A"/><polygon points="124.75,261.00 130.94,271.00 137.12,261.00" fill="#FFD43A"/><polygon points="137.12,261.00 143.31,271.00 149.50,261.00" fill="#FFD43A"/><polygon points="149.50,261.00 155.69,271.00 161.88,261.00" fill="#FFD43A"/><polygon points="161.88,261.00 168.06,271.00 174.25,261.00" fill="#FFD43A"/><polygon points="174.25,261.00 180.44,271.00 186.62,261.00" fill="#FFD43A"/><polygon points="186.62,261.00 192.81,271.00 199.00,261.00" fill="#FFD43A"/><polygon points="199.00,261.00 205.19,271.00 211.38,261.00" fill="#FFD43A"/><polygon points="1.00,274.00 7.19,284.00 13.38,274.00" fill="#FFD43A"/><polygon points="13.38,274.00 19.56,284.00 25.75,274.00" fill="#FFD43A"/><polygon points="25.75,274.00 31.94,284.00 38.12,274.00" fill="#FFD43A"/><polygon points="38.12,274.00 44.31,284.00 50.50,274.00" fill="#FFD43A"/><polygon points="50.50,274.00 56.69,284.00 62.88,274.00" fill="#FFD43A"/><polygon points="62.88,274.00 69.06,284.00 75.25,274.00" fill="#FFD43A"/><polygon points="75.25,274.00 81.44,284.00 87.62,274.00" fill="#FFD43A"/><polygon points="87.62,274.00 93.81,284.00 100.00,274.00" fill="#FFD43A"/><polygon points="100.00,274.00 106.19,284.00 112.38,274.00" fill="#FFD43A"/><polygon points="112.38,274.00 118.56,284.00 124.75,274.00" fill="#FFD43A"/><polygon points="124.75,274.00 130.94,284.00 137.12,274.00" fill="#FFD43A"/><polygon points="137.12,274.00 143.31,284.00 149.50,274.00" fill="#FFD43A"/><polygon points="149.50,274.00 155.69,284.00 161.88,274.00" fill="#FFD43A"/><polygon points="161.88,274.00 168.06,284.00 174.25,274.00" fill="#FFD43A"/><polygon points="174.25,274.00 180.44,284.00 186.62,274.00" fill="#FFD43A"/><polygon points="186.62,274.00 192.81,284.00 199.00,274.00" fill="#FFD43A"/><polygon points="199.00,274.00 205.19,284.00 211.38,274.00" fill="#FFD43A"/><polygon points="1.00,287.00 7.19,297.00 13.38,287.00" fill="#FFD43A"/><polygon points="13.38,287.00 19.56,297.00 25.75,287.00" fill="#FFD43A"/><polygon points="25.75,287.00 31.94,297.00 38.12,287.00" fill="#FFD43A"/><polygon points="38.12,287.00 44.31,297.00 50.50,287.00" fill="#FFD43A"/><polygon points="50.50,287.00 56.69,297.00 62.88,287.00" fill="#FFD43A"/><polygon points="62.88,287.00 69.06,297.00 75.25,287.00" fill="#FFD43A"/><polygon points="75.25,287.00 81.44,297.00 87.62,287.00" fill="#FFD43A"/><polygon points="87.62,287.00 93.81,297.00 100.00,287.00" fill="#FFD43A"/><polygon points="100.00,287.00 106.19,297.00 112.38,287.00" fill="#FFD43A"/><polygon points="112.38,287.00 118.56,297.00 124.75,287.00" fill="#FFD43A"/><polygon points="124.75,287.00 130.94,297.00 137.12,287.00" fill="#FFD43A"/><polygon points="137.12,287.00 143.31,297.00 149.50,287.00" fill="#FFD43A"/><polygon points="149.50,287.00 155.69,297.00 161.88,287.00" fill="#FFD43A"/><polygon points="161.88,287.00 168.06,297.00 174.25,287.00" fill="#FFD43A"/><polygon points="174.25,287.00 180.44,297.00 186.62,287.00" fill="#FFD43A"/><polygon points="186.62,287.00 192.81,297.00 199.00,287.00" fill="#FFD43A"/><polygon points="199.00,287.00 205.19,297.00 211.38,287.00" fill="#FFD43A"/><polygon points="1.00,300.00 7.19,310.00 13.38,300.00" fill="#FFD43A"/><polygon points="13.38,300.00 19.56,310.00 25.75,300.00" fill="#FFD43A"/><polygon points="25.75,300.00 31.94,310.00 38.12,300.00" fill="#FFD43A"/><polygon points="38.12,300.00 44.31,310.00 50.50,300.00" fill="#FFD43A"/><polygon points="50.50,300.00 56.69,310.00 62.88,300.00" fill="#FFD43A"/><polygon points="62.88,300.00 69.06,310.00 75.25,300.00" fill="#FFD43A"/><polygon points="75.25,300.00 81.44,310.00 87.62,300.00" fill="#FFD43A"/><polygon points="87.62,300.00 93.81,310.00 100.00,300.00" fill="#FFD43A"/><polygon points="100.00,300.00 106.19,310.00 112.38,300.00" fill="#FFD43A"/><polygon points="112.38,300.00 118.56,310.00 124.75,300.00" fill="#FFD43A"/><polygon points="124.75,300.00 130.94,310.00 137.12,300.00" fill="#FFD43A"/><polygon points="137.12,300.00 143.31,310.00 149.50,300.00" fill="#FFD43A"/><polygon points="149.50,300.00 155.69,310.00 161.88,300.00" fill="#FFD43A"/><polygon points="161.88,300.00 168.06,310.00 174.25,300.00" fill="#FFD43A"/><polygon points="174.25,300.00 180.44,310.00 186.62,300.00" fill="#FFD43A"/><polygon points="186.62,300.00 192.81,310.00 199.00,300.00" fill="#FFD43A"/><polygon points="199.00,300.00 205.19,310.00 211.38,300.00" fill="#FFD43A"/><polygon points="1.00,313.00 7.19,323.00 13.38,313.00" fill="#FFD43A"/><polygon points="13.38,313.00 19.56,323.00 25.75,313.00" fill="#FFD43A"/><polygon points="25.75,313.00 31.94,323.00 38.12,313.00" fill="#FFD43A"/><polygon points="38.12,313.00 44.31,323.00 50.50,313.00" fill="#FFD43A"/><polygon points="50.50,313.00 56.69,323.00 62.88,313.00" fill="#FFD43A"/><polygon points="62.88,313.00 69.06,323.00 75.25,313.00" fill="#FFD43A"/><polygon points="75.25,313.00 81.44,323.00 87.62,313.00" fill="#FFD43A"/><polygon points="87.62,313.00 93.81,323.00 100.00,313.00" fill="#FFD43A"/><polygon points="100.00,313.00 106.19,323.00 112.38,313.00" fill="#FFD43A"/><polygon points="112.38,313.00 118.56,323.00 124.75,313.00" fill="#FFD43A"/><polygon points="124.75,313.00 130.94,323.00 137.12,313.00" fill="#FFD43A"/><polygon points="137.12,313.00 143.31,323.00 149.50,313.00" fill="#FFD43A"/><polygon points="149.50,313.00 155.69,323.00 161.88,313.00" fill="#FFD43A"/><polygon points="161.88,313.00 168.06,323.00 174.25,313.00" fill="#FFD43A"/><polygon points="174.25,313.00 180.44,323.00 186.62,313.00" fill="#FFD43A"/><polygon points="186.62,313.00 192.81,323.00 199.00,313.00" fill="#FFD43A"/><polygon points="199.00,313.00 205.19,323.00 211.38,313.00" fill="#FFD43A"/><polygon points="1.00,326.00 7.19,336.00 13.38,326.00" fill="#FFD43A"/><polygon points="13.38,326.00 19.56,336.00 25.75,326.00" fill="#FFD43A"/><polygon points="25.75,326.00 31.94,336.00 38.12,326.00" fill="#FFD43A"/><polygon points="38.12,326.00 44.31,336.00 50.50,326.00" fill="#FFD43A"/><polygon points="50.50,326.00 56.69,336.00 62.88,326.00" fill="#FFD43A"/><polygon points="62.88,326.00 69.06,336.00 75.25,326.00" fill="#FFD43A"/><polygon points="75.25,326.00 81.44,336.00 87.62,326.00" fill="#FFD43A"/><polygon points="87.62,326.00 93.81,336.00 100.00,326.00" fill="#FFD43A"/><polygon points="100.00,326.00 106.19,336.00 112.38,326.00" fill="#FFD43A"/><polygon points="112.38,326.00 118.56,336.00 124.75,326.00" fill="#FFD43A"/><polygon points="124.75,326.00 130.94,336.00 137.12,326.00" fill="#FFD43A"/><polygon points="137.12,326.00 143.31,336.00 149.50,326.00" fill="#FFD43A"/><polygon points="149.50,326.00 155.69,336.00 161.88,326.00" fill="#FFD43A"/><polygon points="161.88,326.00 168.06,336.00 174.25,326.00" fill="#FFD43A"/><polygon points="174.25,326.00 180.44,336.00 186.62,326.00" fill="#FFD43A"/><polygon points="186.62,326.00 192.81,336.00 199.00,326.00" fill="#FFD43A"/><polygon points="199.00,326.00 205.19,336.00 211.38,326.00" fill="#FFD43A"/><polygon points="1.00,339.00 7.19,349.00 13.38,339.00" fill="#FFD43A"/><polygon points="13.38,339.00 19.56,349.00 25.75,339.00" fill="#FFD43A"/><polygon points="25.75,339.00 31.94,349.00 38.12,339.00" fill="#FFD43A"/><polygon points="38.12,339.00 44.31,349.00 50.50,339.00" fill="#FFD43A"/><polygon points="50.50,339.00 56.69,349.00 62.88,339.00" fill="#FFD43A"/><polygon points="62.88,339.00 69.06,349.00 75.25,339.00" fill="#FFD43A"/><polygon points="75.25,339.00 81.44,349.00 87.62,339.00" fill="#FFD43A"/><polygon points="87.62,339.00 93.81,349.00 100.00,339.00" fill="#FFD43A"/><polygon points="100.00,339.00 106.19,349.00 112.38,339.00" fill="#FFD43A"/><polygon points="112.38,339.00 118.56,349.00 124.75,339.00" fill="#FFD43A"/><polygon points="124.75,339.00 130.94,349.00 137.12,339.00" fill="#FFD43A"/><polygon points="137.12,339.00 143.31,349.00 149.50,339.00" fill="#FFD43A"/><polygon points="149.50,339.00 155.69,349.00 161.88,339.00" fill="#FFD43A"/><polygon points="161.88,339.00 168.06,349.00 174.25,339.00" fill="#FFD43A"/><polygon points="174.25,339.00 180.44,349.00 186.62,339.00" fill="#FFD43A"/><polygon points="186.62,339.00 192.81,349.00 199.00,339.00" fill="#FFD43A"/><polygon points="199.00,339.00 205.19,349.00 211.38,339.00" fill="#FFD43A"/><polygon points="1.00,352.00 7.19,362.00 13.38,352.00" fill="#FFD43A"/><polygon points="13.38,352.00 19.56,362.00 25.75,352.00" fill="#FFD43A"/><polygon points="25.75,352.00 31.94,362.00 38.12,352.00" fill="#FFD43A"/><polygon points="38.12,352.00 44.31,362.00 50.50,352.00" fill="#FFD43A"/><polygon points="50.50,352.00 56.69,362.00 62.88,352.00" fill="#FFD43A"/><polygon points="62.88,352.00 69.06,362.00 75.25,352.00" fill="#FFD43A"/><polygon points="75.25,352.00 81.44,362.00 87.62,352.00" fill="#FFD43A"/><polygon points="87.62,352.00 93.81,362.00 100.00,352.00" fill="#FFD43A"/><polygon points="100.00,352.00 106.19,362.00 112.38,352.00" fill="#FFD43A"/><polygon points="112.38,352.00 118.56,362.00 124.75,352.00" fill="#FFD43A"/><polygon points="124.75,352.00 130.94,362.00 137.12,352.00" fill="#FFD43A"/><polygon points="137.12,352.00 143.31,362.00 149.50,352.00" fill="#FFD43A"/><polygon points="149.50,352.00 155.69,362.00 161.88,352.00" fill="#FFD43A"/><polygon points="161.88,352.00 168.06,362.00 174.25,352.00" fill="#FFD43A"/><polygon points="174.25,352.00 180.44,362.00 186.62,352.00" fill="#FFD43A"/><polygon points="186.62,352.00 192.81,362.00 199.00,352.00" fill="#FFD43A"/><polygon points="199.00,352.00 205.19,362.00 211.38,352.00" fill="#FFD43A"/>
  </g>
  <!-- outer stroke on top -->
  <rect x="1" y="1" width="208" height="361" rx="12" fill="none" stroke="#26211D"/>
  <!-- inner field -->
  <rect x="11" y="11" width="188" height="341" rx="7" fill="#0B0908"/>
  <rect x="11.5" y="11.5" width="187" height="340" rx="7" fill="none" stroke="#F4EEE2" stroke-opacity="0.12"/>
  <!-- numeral (overlay top, tracking ~6) -->
  <text x="105" y="46" text-anchor="middle" font-family="Georgia, 'Times New Roman', serif" font-size="17" letter-spacing="6" fill="#F4EEE2">XIX</text>
  <!-- sigil -->
  <g>
    <line x1="153.0" y1="180.0" x2="183.0" y2="180.0" stroke="#FF4B2E" stroke-width="3.5" stroke-linecap="round"/>
    <line x1="146.56921938165306" y1="204.0" x2="162.15767664977295" y2="213.0" stroke="#FFD43A" stroke-width="2.5" stroke-linecap="round"/>
    <line x1="129.0" y1="221.56921938165306" x2="144.0" y2="247.54998149518622" stroke="#FF4B2E" stroke-width="3.5" stroke-linecap="round"/>
    <line x1="105.0" y1="228.0" x2="105.0" y2="246.0" stroke="#FFD43A" stroke-width="2.5" stroke-linecap="round"/>
    <line x1="81.0" y1="221.56921938165306" x2="66.00000000000001" y2="247.54998149518622" stroke="#FF4B2E" stroke-width="3.5" stroke-linecap="round"/>
    <line x1="63.430780618346944" y1="204.0" x2="47.84232335022705" y2="213.0" stroke="#FFD43A" stroke-width="2.5" stroke-linecap="round"/>
    <line x1="57.0" y1="180.0" x2="27.0" y2="180.0" stroke="#FF4B2E" stroke-width="3.5" stroke-linecap="round"/>
    <line x1="63.430780618346944" y1="156.0" x2="47.842323350227055" y2="147.0" stroke="#FFD43A" stroke-width="2.5" stroke-linecap="round"/>
    <line x1="80.99999999999997" y1="138.43078061834694" x2="65.99999999999997" y2="112.45001850481381" stroke="#FF4B2E" stroke-width="3.5" stroke-linecap="round"/>
    <line x1="104.99999999999999" y1="132.0" x2="104.99999999999999" y2="114.0" stroke="#FFD43A" stroke-width="2.5" stroke-linecap="round"/>
    <line x1="129.0" y1="138.43078061834694" x2="144.0" y2="112.45001850481378" stroke="#FF4B2E" stroke-width="3.5" stroke-linecap="round"/>
    <line x1="146.56921938165306" y1="155.99999999999997" x2="162.15767664977292" y2="146.99999999999997" stroke="#FFD43A" stroke-width="2.5" stroke-linecap="round"/>
    <circle cx="105" cy="180" r="40" fill="#FFD43A"/>
  </g>
  <!-- printed title EN -->
  <text x="105" y="334" text-anchor="middle" font-family="system-ui, Helvetica, sans-serif" font-size="9.5" letter-spacing="3.5" fill="#8E877B">THE SUN</text>
</svg>
