<svg class="arcana-svg" viewBox="0 0 210 363" xmlns="http://www.w3.org/2000/svg" role="img" aria-label="WHEEL OF FORTUNE">
  <defs>
    <clipPath id="band-10" clipPathUnits="userSpaceOnUse">
      <path d="M1,1 h208 v361 h-208 z M11,11 h188 v341 h-188 z" clip-rule="evenodd" fill-rule="evenodd"/>
    </clipPath>
  </defs>
  <!-- ground -->
  <rect x="1" y="1" width="208" height="361" rx="12" fill="#0B0908" stroke="#26211D"/>
  <!-- border band (clipped) -->
  <g clip-path="url(#band-10)">
    <rect x="1.00" y="1.00" width="8.25" height="7.98" fill="#FFD43A"/><rect x="9.25" y="8.98" width="8.25" height="7.98" fill="#FFD43A"/><rect x="17.50" y="1.00" width="8.25" height="7.98" fill="#FFD43A"/><rect x="25.75" y="8.98" width="8.25" height="7.98" fill="#FFD43A"/><rect x="34.00" y="1.00" width="8.25" height="7.98" fill="#FFD43A"/><rect x="42.25" y="8.98" width="8.25" height="7.98" fill="#FFD43A"/><rect x="50.50" y="1.00" width="8.25" height="7.98" fill="#FFD43A"/><rect x="58.75" y="8.98" width="8.25" height="7.98" fill="#FFD43A"/><rect x="67.00" y="1.00" width="8.25" height="7.98" fill="#FFD43A"/><rect x="75.25" y="8.98" width="8.25" height="7.98" fill="#FFD43A"/><rect x="83.50" y="1.00" width="8.25" height="7.98" fill="#FFD43A"/><rect x="91.75" y="8.98" width="8.25" height="7.98" fill="#FFD43A"/><rect x="100.00" y="1.00" width="8.25" height="7.98" fill="#FFD43A"/><rect x="108.25" y="8.98" width="8.25" height="7.98" fill="#FFD43A"/><rect x="116.50" y="1.00" width="8.25" height="7.98" fill="#FFD43A"/><rect x="124.75" y="8.98" width="8.25" height="7.98" fill="#FFD43A"/><rect x="133.00" y="1.00" width="8.25" height="7.98" fill="#FFD43A"/><rect x="141.25" y="8.98" width="8.25" height="7.98" fill="#FFD43A"/><rect x="149.50" y="1.00" width="8.25" height="7.98" fill="#FFD43A"/><rect x="157.75" y="8.98" width="8.25" height="7.98" fill="#FFD43A"/><rect x="166.00" y="1.00" width="8.25" height="7.98" fill="#FFD43A"/><rect x="174.25" y="8.98" width="8.25" height="7.98" fill="#FFD43A"/><rect x="182.50" y="1.00" width="8.25" height="7.98" fill="#FFD43A"/><rect x="190.75" y="8.98" width="8.25" height="7.98" fill="#FFD43A"/><rect x="199.00" y="1.00" width="8.25" height="7.98" fill="#FFD43A"/><rect x="207.25" y="8.98" width="8.25" height="7.98" fill="#FFD43A"/><rect x="1.00" y="16.95" width="8.25" height="7.98" fill="#FFD43A"/><rect x="9.25" y="24.93" width="8.25" height="7.98" fill="#FFD43A"/><rect x="17.50" y="16.95" width="8.25" height="7.98" fill="#FFD43A"/><rect x="25.75" y="24.93" width="8.25" height="7.98" fill="#FFD43A"/><rect x="34.00" y="16.95" width="8.25" height="7.98" fill="#FFD43A"/><rect x="42.25" y="24.93" width="8.25" height="7.98" fill="#FFD43A"/><rect x="50.50" y="16.95" width="8.25" height="7.98" fill="#FFD43A"/><rect x="58.75" y="24.93" width="8.25" height="7.98" fill="#FFD43A"/><rect x="67.00" y="16.95" width="8.25" height="7.98" fill="#FFD43A"/><rect x="75.25" y="24.93" width="8.25" height="7.98" fill="#FFD43A"/><rect x="83.50" y="16.95" width="8.25" height="7.98" fill="#FFD43A"/><rect x="91.75" y="24.93" width="8.25" height="7.98" fill="#FFD43A"/><rect x="100.00" y="16.95" width="8.25" height="7.98" fill="#FFD43A"/><rect x="108.25" y="24.93" width="8.25" height="7.98" fill="#FFD43A"/><rect x="116.50" y="16.95" width="8.25" height="7.98" fill="#FFD43A"/><rect x="124.75" y="24.93" width="8.25" height="7.98" fill="#FFD43A"/><rect x="133.00" y="16.95" width="8.25" height="7.98" fill="#FFD43A"/><rect x="141.25" y="24.93" width="8.25" height="7.98" fill="#FFD43A"/><rect x="149.50" y="16.95" width="8.25" height="7.98" fill="#FFD43A"/><rect x="157.75" y="24.93" width="8.25" height="7.98" fill="#FFD43A"/><rect x="166.00" y="16.95" width="8.25" height="7.98" fill="#FFD43A"/><rect x="174.25" y="24.93" width="8.25" height="7.98" fill="#FFD43A"/><rect x="182.50" y="16.95" width="8.25" height="7.98" fill="#FFD43A"/><rect x="190.75" y="24.93" width="8.25" height="7.98" fill="#FFD43A"/><rect x="199.00" y="16.95" width="8.25" height="7.98" fill="#FFD43A"/><rect x="207.25" y="24.93" width="8.25" height="7.98" fill="#FFD43A"/><rect x="1.00" y="32.91" width="8.25" height="7.98" fill="#FFD43A"/><rect x="9.25" y="40.89" width="8.25" height="7.98" fill="#FFD43A"/><rect x="17.50" y="32.91" width="8.25" height="7.98" fill="#FFD43A"/><rect x="25.75" y="40.89" width="8.25" height="7.98" fill="#FFD43A"/><rect x="34.00" y="32.91" width="8.25" height="7.98" fill="#FFD43A"/><rect x="42.25" y="40.89" width="8.25" height="7.98" fill="#FFD43A"/><rect x="50.50" y="32.91" width="8.25" height="7.98" fill="#FFD43A"/><rect x="58.75" y="40.89" width="8.25" height="7.98" fill="#FFD43A"/><rect x="67.00" y="32.91" width="8.25" height="7.98" fill="#FFD43A"/><rect x="75.25" y="40.89" width="8.25" height="7.98" fill="#FFD43A"/><rect x="83.50" y="32.91" width="8.25" height="7.98" fill="#FFD43A"/><rect x="91.75" y="40.89" width="8.25" height="7.98" fill="#FFD43A"/><rect x="100.00" y="32.91" width="8.25" height="7.98" fill="#FFD43A"/><rect x="108.25" y="40.89" width="8.25" height="7.98" fill="#FFD43A"/><rect x="116.50" y="32.91" width="8.25" height="7.98" fill="#FFD43A"/><rect x="124.75" y="40.89" width="8.25" height="7.98" fill="#FFD43A"/><rect x="133.00" y="32.91" width="8.25" height="7.98" fill="#FFD43A"/><rect x="141.25" y="40.89" width="8.25" height="7.98" fill="#FFD43A"/><rect x="149.50" y="32.91" width="8.25" height="7.98" fill="#FFD43A"/><rect x="157.75" y="40.89" width="8.25" height="7.98" fill="#FFD43A"/><rect x="166.00" y="32.91" width="8.25" height="7.98" fill="#FFD43A"/><rect x="174.25" y="40.89" width="8.25" height="7.98" fill="#FFD43A"/><rect x="182.50" y="32.91" width="8.25" height="7.98" fill="#FFD43A"/><rect x="190.75" y="40.89" width="8.25" height="7.98" fill="#FFD43A"/><rect x="199.00" y="32.91" width="8.25" height="7.98" fill="#FFD43A"/><rect x="207.25" y="40.89" width="8.25" height="7.98" fill="#FFD43A"/><rect x="1.00" y="48.86" width="8.25" height="7.98" fill="#FFD43A"/><rect x="9.25" y="56.84" width="8.25" height="7.98" fill="#FFD43A"/><rect x="17.50" y="48.86" width="8.25" height="7.98" fill="#FFD43A"/><rect x="25.75" y="56.84" width="8.25" height="7.98" fill="#FFD43A"/><rect x="34.00" y="48.86" width="8.25" height="7.98" fill="#FFD43A"/><rect x="42.25" y="56.84" width="8.25" height="7.98" fill="#FFD43A"/><rect x="50.50" y="48.86" width="8.25" height="7.98" fill="#FFD43A"/><rect x="58.75" y="56.84" width="8.25" height="7.98" fill="#FFD43A"/><rect x="67.00" y="48.86" width="8.25" height="7.98" fill="#FFD43A"/><rect x="75.25" y="56.84" width="8.25" height="7.98" fill="#FFD43A"/><rect x="83.50" y="48.86" width="8.25" height="7.98" fill="#FFD43A"/><rect x="91.75" y="56.84" width="8.25" height="7.98" fill="#FFD43A"/><rect x="100.00" y="48.86" width="8.25" height="7.98" fill="#FFD43A"/><rect x="108.25" y="56.84" width="8.25" height="7.98" fill="#FFD43A"/><rect x="116.50" y="48.86" width="8.25" height="7.98" fill="#FFD43A"/><rect x="124.75" y="56.84" width="8.25" height="7.98" fill="#FFD43A"/><rect x="133.00" y="48.86" width="8.25" height="7.98" fill="#FFD43A"/><rect x="141.25" y="56.84" width="8.25" height="7.98" fill="#FFD43A"/><rect x="149.50" y="48.86" width="8.25" height="7.98" fill="#FFD43A"/><rect x="157.75" y="56.84" width="8.25" height="7.98" fill="#FFD43A"/><rect x="166.00" y="48.86" width="8.25" height="7.98" fill="#FFD43A"/><rect x="174.25" y="56.84" width="8.25" height="7.98" fill="#FFD43A"/><rect x="182.50" y="48.86" width="8.25" height="7.98" fill="#FFD43A"/><rect x="190.75" y="56.84" width="8.25" height="7.98" fill="#FFD43A"/><rect x="199.00" y="48.86" width="8.25" height="7.98" fill="#FFD43A"/><rect x="207.25" y="56.84" width="8.25" height="7.98" fill="#FFD43A"/><rect x="1.00" y="64.82" width="8.25" height="7.98" fill="#FFD43A"/><rect x="9.25" y="72.80" width="8.25" height="7.98" fill="#FFD43A"/><rect x="17.50" y="64.82" width="8.25" height="7.98" fill="#FFD43A"/><rect x="25.75" y="72.80" width="8.25" height="7.98" fill="#FFD43A"/><rect x="34.00" y="64.82" width="8.25" height="7.98" fill="#FFD43A"/><rect x="42.25" y="72.80" width="8.25" height="7.98" fill="#FFD43A"/><rect x="50.50" y="64.82" width="8.25" height="7.98" fill="#FFD43A"/><rect x="58.75" y="72.80" width="8.25" height="7.98" fill="#FFD43A"/><rect x="67.00" y="64.82" width="8.25" height="7.98" fill="#FFD43A"/><rect x="75.25" y="72.80" width="8.25" height="7.98" fill="#FFD43A"/><rect x="83.50" y="64.82" width="8.25" height="7.98" fill="#FFD43A"/><rect x="91.75" y="72.80" width="8.25" height="7.98" fill="#FFD43A"/><rect x="100.00" y="64.82" width="8.25" height="7.98" fill="#FFD43A"/><rect x="108.25" y="72.80" width="8.25" height="7.98" fill="#FFD43A"/><rect x="116.50" y="64.82" width="8.25" height="7.98" fill="#FFD43A"/><rect x="124.75" y="72.80" width="8.25" height="7.98" fill="#FFD43A"/><rect x="133.00" y="64.82" width="8.25" height="7.98" fill="#FFD43A"/><rect x="141.25" y="72.80" width="8.25" height="7.98" fill="#FFD43A"/><rect x="149.50" y="64.82" width="8.25" height="7.98" fill="#FFD43A"/><rect x="157.75" y="72.80" width="8.25" height="7.98" fill="#FFD43A"/><rect x="166.00" y="64.82" width="8.25" height="7.98" fill="#FFD43A"/><rect x="174.25" y="72.80" width="8.25" height="7.98" fill="#FFD43A"/><rect x="182.50" y="64.82" width="8.25" height="7.98" fill="#FFD43A"/><rect x="190.75" y="72.80" width="8.25" height="7.98" fill="#FFD43A"/><rect x="199.00" y="64.82" width="8.25" height="7.98" fill="#FFD43A"/><rect x="207.25" y="72.80" width="8.25" height="7.98" fill="#FFD43A"/><rect x="1.00" y="80.77" width="8.25" height="7.98" fill="#FFD43A"/><rect x="9.25" y="88.75" width="8.25" height="7.98" fill="#FFD43A"/><rect x="17.50" y="80.77" width="8.25" height="7.98" fill="#FFD43A"/><rect x="25.75" y="88.75" width="8.25" height="7.98" fill="#FFD43A"/><rect x="34.00" y="80.77" width="8.25" height="7.98" fill="#FFD43A"/><rect x="42.25" y="88.75" width="8.25" height="7.98" fill="#FFD43A"/><rect x="50.50" y="80.77" width="8.25" height="7.98" fill="#FFD43A"/><rect x="58.75" y="88.75" width="8.25" height="7.98" fill="#FFD43A"/><rect x="67.00" y="80.77" width="8.25" height="7.98" fill="#FFD43A"/><rect x="75.25" y="88.75" width="8.25" height="7.98" fill="#FFD43A"/><rect x="83.50" y="80.77" width="8.25" height="7.98" fill="#FFD43A"/><rect x="91.75" y="88.75" width="8.25" height="7.98" fill="#FFD43A"/><rect x="100.00" y="80.77" width="8.25" height="7.98" fill="#FFD43A"/><rect x="108.25" y="88.75" width="8.25" height="7.98" fill="#FFD43A"/><rect x="116.50" y="80.77" width="8.25" height="7.98" fill="#FFD43A"/><rect x="124.75" y="88.75" width="8.25" height="7.98" fill="#FFD43A"/><rect x="133.00" y="80.77" width="8.25" height="7.98" fill="#FFD43A"/><rect x="141.25" y="88.75" width="8.25" height="7.98" fill="#FFD43A"/><rect x="149.50" y="80.77" width="8.25" height="7.98" fill="#FFD43A"/><rect x="157.75" y="88.75" width="8.25" height="7.98" fill="#FFD43A"/><rect x="166.00" y="80.77" width="8.25" height="7.98" fill="#FFD43A"/><rect x="174.25" y="88.75" width="8.25" height="7.98" fill="#FFD43A"/><rect x="182.50" y="80.77" width="8.25" height="7.98" fill="#FFD43A"/><rect x="190.75" y="88.75" width="8.25" height="7.98" fill="#FFD43A"/><rect x="199.00" y="80.77" width="8.25" height="7.98" fill="#FFD43A"/><rect x="207.25" y="88.75" width="8.25" height="7.98" fill="#FFD43A"/><rect x="1.00" y="96.73" width="8.25" height="7.98" fill="#FFD43A"/><rect x="9.25" y="104.70" width="8.25" height="7.98" fill="#FFD43A"/><rect x="17.50" y="96.73" width="8.25" height="7.98" fill="#FFD43A"/><rect x="25.75" y="104.70" width="8.25" height="7.98" fill="#FFD43A"/><rect x="34.00" y="96.73" width="8.25" height="7.98" fill="#FFD43A"/><rect x="42.25" y="104.70" width="8.25" height="7.98" fill="#FFD43A"/><rect x="50.50" y="96.73" width="8.25" height="7.98" fill="#FFD43A"/><rect x="58.75" y="104.70" width="8.25" height="7.98" fill="#FFD43A"/><rect x="67.00" y="96.73" width="8.25" height="7.98" fill="#FFD43A"/><rect x="75.25" y="104.70" width="8.25" height="7.98" fill="#FFD43A"/><rect x="83.50" y="96.73" width="8.25" height="7.98" fill="#FFD43A"/><rect x="91.75" y="104.70" width="8.25" height="7.98" fill="#FFD43A"/><rect x="100.00" y="96.73" width="8.25" height="7.98" fill="#FFD43A"/><rect x="108.25" y="104.70" width="8.25" height="7.98" fill="#FFD43A"/><rect x="116.50" y="96.73" width="8.25" height="7.98" fill="#FFD43A"/><rect x="124.75" y="104.70" width="8.25" height="7.98" fill="#FFD43A"/><rect x="133.00" y="96.73" width="8.25" height="7.98" fill="#FFD43A"/><rect x="141.25" y="104.70" width="8.25" height="7.98" fill="#FFD43A"/><rect x="149.50" y="96.73" width="8.25" height="7.98" fill="#FFD43A"/><rect x="157.75" y="104.70" width="8.25" height="7.98" fill="#FFD43A"/><rect x="166.00" y="96.73" width="8.25" height="7.98" fill="#FFD43A"/><rect x="174.25" y="104.70" width="8.25" height="7.98" fill="#FFD43A"/><rect x="182.50" y="96.73" width="8.25" height="7.98" fill="#FFD43A"/><rect x="190.75" y="104.70" width="8.25" height="7.98" fill="#FFD43A"/><rect x="199.00" y="96.73" width="8.25" height="7.98" fill="#FFD43A"/><rect x="207.25" y="104.70" width="8.25" height="7.98" fill="#FFD43A"/><rect x="1.00" y="112.68" width="8.25" height="7.98" fill="#FFD43A"/><rect x="9.25" y="120.66" width="8.25" height="7.98" fill="#FFD43A"/><rect x="17.50" y="112.68" width="8.25" height="7.98" fill="#FFD43A"/><rect x="25.75" y="120.66" width="8.25" height="7.98" fill="#FFD43A"/><rect x="34.00" y="112.68" width="8.25" height="7.98" fill="#FFD43A"/><rect x="42.25" y="120.66" width="8.25" height="7.98" fill="#FFD43A"/><rect x="50.50" y="112.68" width="8.25" height="7.98" fill="#FFD43A"/><rect x="58.75" y="120.66" width="8.25" height="7.98" fill="#FFD43A"/><rect x="67.00" y="112.68" width="8.25" height="7.98" fill="#FFD43A"/><rect x="75.25" y="120.66" width="8.25" height="7.98" fill="#FFD43A"/><rect x="83.50" y="112.68" width="8.25" height="7.98" fill="#FFD43A"/><rect x="91.75" y="120.66" width="8.25" height="7.98" fill="#FFD43A"/><rect x="100.00" y="112.68" width="8.25" height="7.98" fill="#FFD43A"/><rect x="108.25" y="120.66" width="8.25" height="7.98" fill="#FFD43A"/><rect x="116.50" y="112.68" width="8.25" height="7.98" fill="#FFD43A"/><rect x="124.75" y="120.66" width="8.25" height="7.98" fill="#FFD43A"/><rect x="133.00" y="112.68" width="8.25" height="7.98" fill="#FFD43A"/><rect x="141.25" y="120.66" width="8.25" height="7.98" fill="#FFD43A"/><rect x="149.50" y="112.68" width="8.25" height="7.98" fill="#FFD43A"/><rect x="157.75" y="120.66" width="8.25" height="7.98" fill="#FFD43A"/><rect x="166.00" y="112.68" width="8.25" height="7.98" fill="#FFD43A"/><rect x="174.25" y="120.66" width="8.25" height="7.98" fill="#FFD43A"/><rect x="182.50" y="112.68" width="8.25" height="7.98" fill="#FFD43A"/><rect x="190.75" y="120.66" width="8.25" height="7.98" fill="#FFD43A"/><rect x="199.00" y="112.68" width="8.25" height="7.98" fill="#FFD43A"/><rect x="207.25" y="120.66" width="8.25" height="7.98" fill="#FFD43A"/><rect x="1.00" y="128.64" width="8.25" height="7.98" fill="#FFD43A"/><rect x="9.25" y="136.61" width="8.25" height="7.98" fill="#FFD43A"/><rect x="17.50" y="128.64" width="8.25" height="7.98" fill="#FFD43A"/><rect x="25.75" y="136.61" width="8.25" height="7.98" fill="#FFD43A"/><rect x="34.00" y="128.64" width="8.25" height="7.98" fill="#FFD43A"/><rect x="42.25" y="136.61" width="8.25" height="7.98" fill="#FFD43A"/><rect x="50.50" y="128.64" width="8.25" height="7.98" fill="#FFD43A"/><rect x="58.75" y="136.61" width="8.25" height="7.98" fill="#FFD43A"/><rect x="67.00" y="128.64" width="8.25" height="7.98" fill="#FFD43A"/><rect x="75.25" y="136.61" width="8.25" height="7.98" fill="#FFD43A"/><rect x="83.50" y="128.64" width="8.25" height="7.98" fill="#FFD43A"/><rect x="91.75" y="136.61" width="8.25" height="7.98" fill="#FFD43A"/><rect x="100.00" y="128.64" width="8.25" height="7.98" fill="#FFD43A"/><rect x="108.25" y="136.61" width="8.25" height="7.98" fill="#FFD43A"/><rect x="116.50" y="128.64" width="8.25" height="7.98" fill="#FFD43A"/><rect x="124.75" y="136.61" width="8.25" height="7.98" fill="#FFD43A"/><rect x="133.00" y="128.64" width="8.25" height="7.98" fill="#FFD43A"/><rect x="141.25" y="136.61" width="8.25" height="7.98" fill="#FFD43A"/><rect x="149.50" y="128.64" width="8.25" height="7.98" fill="#FFD43A"/><rect x="157.75" y="136.61" width="8.25" height="7.98" fill="#FFD43A"/><rect x="166.00" y="128.64" width="8.25" height="7.98" fill="#FFD43A"/><rect x="174.25" y="136.61" width="8.25" height="7.98" fill="#FFD43A"/><rect x="182.50" y="128.64" width="8.25" height="7.98" fill="#FFD43A"/><rect x="190.75" y="136.61" width="8.25" height="7.98" fill="#FFD43A"/><rect x="199.00" y="128.64" width="8.25" height="7.98" fill="#FFD43A"/><rect x="207.25" y="136.61" width="8.25" height="7.98" fill="#FFD43A"/><rect x="1.00" y="144.59" width="8.25" height="7.98" fill="#FFD43A"/><rect x="9.25" y="152.57" width="8.25" height="7.98" fill="#FFD43A"/><rect x="17.50" y="144.59" width="8.25" height="7.98" fill="#FFD43A"/><rect x="25.75" y="152.57" width="8.25" height="7.98" fill="#FFD43A"/><rect x="34.00" y="144.59" width="8.25" height="7.98" fill="#FFD43A"/><rect x="42.25" y="152.57" width="8.25" height="7.98" fill="#FFD43A"/><rect x="50.50" y="144.59" width="8.25" height="7.98" fill="#FFD43A"/><rect x="58.75" y="152.57" width="8.25" height="7.98" fill="#FFD43A"/><rect x="67.00" y="144.59" width="8.25" height="7.98" fill="#FFD43A"/><rect x="75.25" y="152.57" width="8.25" height="7.98" fill="#FFD43A"/><rect x="83.50" y="144.59" width="8.25" height="7.98" fill="#FFD43A"/><rect x="91.75" y="152.57" width="8.25" height="7.98" fill="#FFD43A"/><rect x="100.00" y="144.59" width="8.25" height="7.98" fill="#FFD43A"/><rect x="108.25" y="152.57" width="8.25" height="7.98" fill="#FFD43A"/><rect x="116.50" y="144.59" width="8.25" height="7.98" fill="#FFD43A"/><rect x="124.75" y="152.57" width="8.25" height="7.98" fill="#FFD43A"/><rect x="133.00" y="144.59" width="8.25" height="7.98" fill="#FFD43A"/><rect x="141.25" y="152.57" width="8.25" height="7.98" fill="#FFD43A"/><rect x="149.50" y="144.59" width="8.25" height="7.98" fill="#FFD43A"/><rect x="157.75" y="152.57" width="8.25" height="7.98" fill="#FFD43A"/><rect x="166.00" y="144.59" width="8.25" height="7.98" fill="#FFD43A"/><rect x="174.25" y="152.57" width="8.25" height="7.98" fill="#FFD43A"/><rect x="182.50" y="144.59" width="8.25" height="7.98" fill="#FFD43A"/><rect x="190.75" y="152.57" width="8.25" height="7.98" fill="#FFD43A"/><rect x="199.00" y="144.59" width="8.25" height="7.98" fill="#FFD43A"/><rect x="207.25" y="152.57" width="8.25" height="7.98" fill="#FFD43A"/><rect x="1.00" y="160.55" width="8.25" height="7.98" fill="#FFD43A"/><rect x="9.25" y="168.52" width="8.25" height="7.98" fill="#FFD43A"/><rect x="17.50" y="160.55" width="8.25" height="7.98" fill="#FFD43A"/><rect x="25.75" y="168.52" width="8.25" height="7.98" fill="#FFD43A"/><rect x="34.00" y="160.55" width="8.25" height="7.98" fill="#FFD43A"/><rect x="42.25" y="168.52" width="8.25" height="7.98" fill="#FFD43A"/><rect x="50.50" y="160.55" width="8.25" height="7.98" fill="#FFD43A"/><rect x="58.75" y="168.52" width="8.25" height="7.98" fill="#FFD43A"/><rect x="67.00" y="160.55" width="8.25" height="7.98" fill="#FFD43A"/><rect x="75.25" y="168.52" width="8.25" height="7.98" fill="#FFD43A"/><rect x="83.50" y="160.55" width="8.25" height="7.98" fill="#FFD43A"/><rect x="91.75" y="168.52" width="8.25" height="7.98" fill="#FFD43A"/><rect x="100.00" y="160.55" width="8.25" height="7.98" fill="#FFD43A"/><rect x="108.25" y="168.52" width="8.25" height="7.98" fill="#FFD43A"/><rect x="116.50" y="160.55" width="8.25" height="7.98" fill="#FFD43A"/><rect x="124.75" y="168.52" width="8.25" height="7.98" fill="#FFD43A"/><rect x="133.00" y="160.55" width="8.25" height="7.98" fill="#FFD43A"/><rect x="141.25" y="168.52" width="8.25" height="7.98" fill="#FFD43A"/><rect x="149.50" y="160.55" width="8.25" height="7.98" fill="#FFD43A"/><rect x="157.75" y="168.52" width="8.25" height="7.98" fill="#FFD43A"/><rect x="166.00" y="160.55" width="8.25" height="7.98" fill="#FFD43A"/><rect x="174.25" y="168.52" width="8.25" height="7.98" fill="#FFD43A"/><rect x="182.50" y="160.55" width="8.25" height="7.98" fill="#FFD43A"/><rect x="190.75" y="168.52" width="8.25" height="7.98" fill="#FFD43A"/><rect x="199.00" y="160.55" width="8.25" height="7.98" fill="#FFD43A"/><rect x="207.25" y="168.52" width="8.25" height="7.98" fill="#FFD43A"/><rect x="1.00" y="176.50" width="8.25" height="7.98" fill="#FFD43A"/><rect x="9.25" y="184.48" width="8.25" height="7.98" fill="#FFD43A"/><rect x="17.50" y="176.50" width="8.25" height="7.98" fill="#FFD43A"/><rect x="25.75" y="184.48" width="8.25" height="7.98" fill="#FFD43A"/><rect x="34.00" y="176.50" width="8.25" height="7.98" fill="#FFD43A"/><rect x="42.25" y="184.48" width="8.25" height="7.98" fill="#FFD43A"/><rect x="50.50" y="176.50" width="8.25" height="7.98" fill="#FFD43A"/><rect x="58.75" y="184.48" width="8.25" height="7.98" fill="#FFD43A"/><rect x="67.00" y="176.50" width="8.25" height="7.98" fill="#FFD43A"/><rect x="75.25" y="184.48" width="8.25" height="7.98" fill="#FFD43A"/><rect x="83.50" y="176.50" width="8.25" height="7.98" fill="#FFD43A"/><rect x="91.75" y="184.48" width="8.25" height="7.98" fill="#FFD43A"/><rect x="100.00" y="176.50" width="8.25" height="7.98" fill="#FFD43A"/><rect x="108.25" y="184.48" width="8.25" height="7.98" fill="#FFD43A"/><rect x="116.50" y="176.50" width="8.25" height="7.98" fill="#FFD43A"/><rect x="124.75" y="184.48" width="8.25" height="7.98" fill="#FFD43A"/><rect x="133.00" y="176.50" width="8.25" height="7.98" fill="#FFD43A"/><rect x="141.25" y="184.48" width="8.25" height="7.98" fill="#FFD43A"/><rect x="149.50" y="176.50" width="8.25" height="7.98" fill="#FFD43A"/><rect x="157.75" y="184.48" width="8.25" height="7.98" fill="#FFD43A"/><rect x="166.00" y="176.50" width="8.25" height="7.98" fill="#FFD43A"/><rect x="174.25" y="184.48" width="8.25" height="7.98" fill="#FFD43A"/><rect x="182.50" y="176.50" width="8.25" height="7.98" fill="#FFD43A"/><rect x="190.75" y="184.48" width="8.25" height="7.98" fill="#FFD43A"/><rect x="199.00" y="176.50" width="8.25" height="7.98" fill="#FFD43A"/><rect x="207.25" y="184.48" width="8.25" height="7.98" fill="#FFD43A"/><rect x="1.00" y="192.45" width="8.25" height="7.98" fill="#FFD43A"/><rect x="9.25" y="200.43" width="8.25" height="7.98" fill="#FFD43A"/><rect x="17.50" y="192.45" width="8.25" height="7.98" fill="#FFD43A"/><rect x="25.75" y="200.43" width="8.25" height="7.98" fill="#FFD43A"/><rect x="34.00" y="192.45" width="8.25" height="7.98" fill="#FFD43A"/><rect x="42.25" y="200.43" width="8.25" height="7.98" fill="#FFD43A"/><rect x="50.50" y="192.45" width="8.25" height="7.98" fill="#FFD43A"/><rect x="58.75" y="200.43" width="8.25" height="7.98" fill="#FFD43A"/><rect x="67.00" y="192.45" width="8.25" height="7.98" fill="#FFD43A"/><rect x="75.25" y="200.43" width="8.25" height="7.98" fill="#FFD43A"/><rect x="83.50" y="192.45" width="8.25" height="7.98" fill="#FFD43A"/><rect x="91.75" y="200.43" width="8.25" height="7.98" fill="#FFD43A"/><rect x="100.00" y="192.45" width="8.25" height="7.98" fill="#FFD43A"/><rect x="108.25" y="200.43" width="8.25" height="7.98" fill="#FFD43A"/><rect x="116.50" y="192.45" width="8.25" height="7.98" fill="#FFD43A"/><rect x="124.75" y="200.43" width="8.25" height="7.98" fill="#FFD43A"/><rect x="133.00" y="192.45" width="8.25" height="7.98" fill="#FFD43A"/><rect x="141.25" y="200.43" width="8.25" height="7.98" fill="#FFD43A"/><rect x="149.50" y="192.45" width="8.25" height="7.98" fill="#FFD43A"/><rect x="157.75" y="200.43" width="8.25" height="7.98" fill="#FFD43A"/><rect x="166.00" y="192.45" width="8.25" height="7.98" fill="#FFD43A"/><rect x="174.25" y="200.43" width="8.25" height="7.98" fill="#FFD43A"/><rect x="182.50" y="192.45" width="8.25" height="7.98" fill="#FFD43A"/><rect x="190.75" y="200.43" width="8.25" height="7.98" fill="#FFD43A"/><rect x="199.00" y="192.45" width="8.25" height="7.98" fill="#FFD43A"/><rect x="207.25" y="200.43" width="8.25" height="7.98" fill="#FFD43A"/><rect x="1.00" y="208.41" width="8.25" height="7.98" fill="#FFD43A"/><rect x="9.25" y="216.39" width="8.25" height="7.98" fill="#FFD43A"/><rect x="17.50" y="208.41" width="8.25" height="7.98" fill="#FFD43A"/><rect x="25.75" y="216.39" width="8.25" height="7.98" fill="#FFD43A"/><rect x="34.00" y="208.41" width="8.25" height="7.98" fill="#FFD43A"/><rect x="42.25" y="216.39" width="8.25" height="7.98" fill="#FFD43A"/><rect x="50.50" y="208.41" width="8.25" height="7.98" fill="#FFD43A"/><rect x="58.75" y="216.39" width="8.25" height="7.98" fill="#FFD43A"/><rect x="67.00" y="208.41" width="8.25" height="7.98" fill="#FFD43A"/><rect x="75.25" y="216.39" width="8.25" height="7.98" fill="#FFD43A"/><rect x="83.50" y="208.41" width="8.25" height="7.98" fill="#FFD43A"/><rect x="91.75" y="216.39" width="8.25" height="7.98" fill="#FFD43A"/><rect x="100.00" y="208.41" width="8.25" height="7.98" fill="#FFD43A"/><rect x="108.25" y="216.39" width="8.25" height="7.98" fill="#FFD43A"/><rect x="116.50" y="208.41" width="8.25" height="7.98" fill="#FFD43A"/><rect x="124.75" y="216.39" width="8.25" height="7.98" fill="#FFD43A"/><rect x="133.00" y="208.41" width="8.25" height="7.98" fill="#FFD43A"/><rect x="141.25" y="216.39" width="8.25" height="7.98" fill="#FFD43A"/><rect x="149.50" y="208.41" width="8.25" height="7.98" fill="#FFD43A"/><rect x="157.75" y="216.39" width="8.25" height="7.98" fill="#FFD43A"/><rect x="166.00" y="208.41" width="8.25" height="7.98" fill="#FFD43A"/><rect x="174.25" y="216.39" width="8.25" height="7.98" fill="#FFD43A"/><rect x="182.50" y="208.41" width="8.25" height="7.98" fill="#FFD43A"/><rect x="190.75" y="216.39" width="8.25" height="7.98" fill="#FFD43A"/><rect x="199.00" y="208.41" width="8.25" height="7.98" fill="#FFD43A"/><rect x="207.25" y="216.39" width="8.25" height="7.98" fill="#FFD43A"/><rect x="1.00" y="224.36" width="8.25" height="7.98" fill="#FFD43A"/><rect x="9.25" y="232.34" width="8.25" height="7.98" fill="#FFD43A"/><rect x="17.50" y="224.36" width="8.25" height="7.98" fill="#FFD43A"/><rect x="25.75" y="232.34" width="8.25" height="7.98" fill="#FFD43A"/><rect x="34.00" y="224.36" width="8.25" height="7.98" fill="#FFD43A"/><rect x="42.25" y="232.34" width="8.25" height="7.98" fill="#FFD43A"/><rect x="50.50" y="224.36" width="8.25" height="7.98" fill="#FFD43A"/><rect x="58.75" y="232.34" width="8.25" height="7.98" fill="#FFD43A"/><rect x="67.00" y="224.36" width="8.25" height="7.98" fill="#FFD43A"/><rect x="75.25" y="232.34" width="8.25" height="7.98" fill="#FFD43A"/><rect x="83.50" y="224.36" width="8.25" height="7.98" fill="#FFD43A"/><rect x="91.75" y="232.34" width="8.25" height="7.98" fill="#FFD43A"/><rect x="100.00" y="224.36" width="8.25" height="7.98" fill="#FFD43A"/><rect x="108.25" y="232.34" width="8.25" height="7.98" fill="#FFD43A"/><rect x="116.50" y="224.36" width="8.25" height="7.98" fill="#FFD43A"/><rect x="124.75" y="232.34" width="8.25" height="7.98" fill="#FFD43A"/><rect x="133.00" y="224.36" width="8.25" height="7.98" fill="#FFD43A"/><rect x="141.25" y="232.34" width="8.25" height="7.98" fill="#FFD43A"/><rect x="149.50" y="224.36" width="8.25" height="7.98" fill="#FFD43A"/><rect x="157.75" y="232.34" width="8.25" height="7.98" fill="#FFD43A"/><rect x="166.00" y="224.36" width="8.25" height="7.98" fill="#FFD43A"/><rect x="174.25" y="232.34" width="8.25" height="7.98" fill="#FFD43A"/><rect x="182.50" y="224.36" width="8.25" height="7.98" fill="#FFD43A"/><rect x="190.75" y="232.34" width="8.25" height="7.98" fill="#FFD43A"/><rect x="199.00" y="224.36" width="8.25" height="7.98" fill="#FFD43A"/><rect x="207.25" y="232.34" width="8.25" height="7.98" fill="#FFD43A"/><rect x="1.00" y="240.32" width="8.25" height="7.98" fill="#FFD43A"/><rect x="9.25" y="248.30" width="8.25" height="7.98" fill="#FFD43A"/><rect x="17.50" y="240.32" width="8.25" height="7.98" fill="#FFD43A"/><rect x="25.75" y="248.30" width="8.25" height="7.98" fill="#FFD43A"/><rect x="34.00" y="240.32" width="8.25" height="7.98" fill="#FFD43A"/><rect x="42.25" y="248.30" width="8.25" height="7.98" fill="#FFD43A"/><rect x="50.50" y="240.32" width="8.25" height="7.98" fill="#FFD43A"/><rect x="58.75" y="248.30" width="8.25" height="7.98" fill="#FFD43A"/><rect x="67.00" y="240.32" width="8.25" height="7.98" fill="#FFD43A"/><rect x="75.25" y="248.30" width="8.25" height="7.98" fill="#FFD43A"/><rect x="83.50" y="240.32" width="8.25" height="7.98" fill="#FFD43A"/><rect x="91.75" y="248.30" width="8.25" height="7.98" fill="#FFD43A"/><rect x="100.00" y="240.32" width="8.25" height="7.98" fill="#FFD43A"/><rect x="108.25" y="248.30" width="8.25" height="7.98" fill="#FFD43A"/><rect x="116.50" y="240.32" width="8.25" height="7.98" fill="#FFD43A"/><rect x="124.75" y="248.30" width="8.25" height="7.98" fill="#FFD43A"/><rect x="133.00" y="240.32" width="8.25" height="7.98" fill="#FFD43A"/><rect x="141.25" y="248.30" width="8.25" height="7.98" fill="#FFD43A"/><rect x="149.50" y="240.32" width="8.25" height="7.98" fill="#FFD43A"/><rect x="157.75" y="248.30" width="8.25" height="7.98" fill="#FFD43A"/><rect x="166.00" y="240.32" width="8.25" height="7.98" fill="#FFD43A"/><rect x="174.25" y="248.30" width="8.25" height="7.98" fill="#FFD43A"/><rect x="182.50" y="240.32" width="8.25" height="7.98" fill="#FFD43A"/><rect x="190.75" y="248.30" width="8.25" height="7.98" fill="#FFD43A"/><rect x="199.00" y="240.32" width="8.25" height="7.98" fill="#FFD43A"/><rect x="207.25" y="248.30" width="8.25" height="7.98" fill="#FFD43A"/><rect x="1.00" y="256.27" width="8.25" height="7.98" fill="#FFD43A"/><rect x="9.25" y="264.25" width="8.25" height="7.98" fill="#FFD43A"/><rect x="17.50" y="256.27" width="8.25" height="7.98" fill="#FFD43A"/><rect x="25.75" y="264.25" width="8.25" height="7.98" fill="#FFD43A"/><rect x="34.00" y="256.27" width="8.25" height="7.98" fill="#FFD43A"/><rect x="42.25" y="264.25" width="8.25" height="7.98" fill="#FFD43A"/><rect x="50.50" y="256.27" width="8.25" height="7.98" fill="#FFD43A"/><rect x="58.75" y="264.25" width="8.25" height="7.98" fill="#FFD43A"/><rect x="67.00" y="256.27" width="8.25" height="7.98" fill="#FFD43A"/><rect x="75.25" y="264.25" width="8.25" height="7.98" fill="#FFD43A"/><rect x="83.50" y="256.27" width="8.25" height="7.98" fill="#FFD43A"/><rect x="91.75" y="264.25" width="8.25" height="7.98" fill="#FFD43A"/><rect x="100.00" y="256.27" width="8.25" height="7.98" fill="#FFD43A"/><rect x="108.25" y="264.25" width="8.25" height="7.98" fill="#FFD43A"/><rect x="116.50" y="256.27" width="8.25" height="7.98" fill="#FFD43A"/><rect x="124.75" y="264.25" width="8.25" height="7.98" fill="#FFD43A"/><rect x="133.00" y="256.27" width="8.25" height="7.98" fill="#FFD43A"/><rect x="141.25" y="264.25" width="8.25" height="7.98" fill="#FFD43A"/><rect x="149.50" y="256.27" width="8.25" height="7.98" fill="#FFD43A"/><rect x="157.75" y="264.25" width="8.25" height="7.98" fill="#FFD43A"/><rect x="166.00" y="256.27" width="8.25" height="7.98" fill="#FFD43A"/><rect x="174.25" y="264.25" width="8.25" height="7.98" fill="#FFD43A"/><rect x="182.50" y="256.27" width="8.25" height="7.98" fill="#FFD43A"/><rect x="190.75" y="264.25" width="8.25" height="7.98" fill="#FFD43A"/><rect x="199.00" y="256.27" width="8.25" height="7.98" fill="#FFD43A"/><rect x="207.25" y="264.25" width="8.25" height="7.98" fill="#FFD43A"/><rect x="1.00" y="272.23" width="8.25" height="7.98" fill="#FFD43A"/><rect x="9.25" y="280.20" width="8.25" height="7.98" fill="#FFD43A"/><rect x="17.50" y="272.23" width="8.25" height="7.98" fill="#FFD43A"/><rect x="25.75" y="280.20" width="8.25" height="7.98" fill="#FFD43A"/><rect x="34.00" y="272.23" width="8.25" height="7.98" fill="#FFD43A"/><rect x="42.25" y="280.20" width="8.25" height="7.98" fill="#FFD43A"/><rect x="50.50" y="272.23" width="8.25" height="7.98" fill="#FFD43A"/><rect x="58.75" y="280.20" width="8.25" height="7.98" fill="#FFD43A"/><rect x="67.00" y="272.23" width="8.25" height="7.98" fill="#FFD43A"/><rect x="75.25" y="280.20" width="8.25" height="7.98" fill="#FFD43A"/><rect x="83.50" y="272.23" width="8.25" height="7.98" fill="#FFD43A"/><rect x="91.75" y="280.20" width="8.25" height="7.98" fill="#FFD43A"/><rect x="100.00" y="272.23" width="8.25" height="7.98" fill="#FFD43A"/><rect x="108.25" y="280.20" width="8.25" height="7.98" fill="#FFD43A"/><rect x="116.50" y="272.23" width="8.25" height="7.98" fill="#FFD43A"/><rect x="124.75" y="280.20" width="8.25" height="7.98" fill="#FFD43A"/><rect x="133.00" y="272.23" width="8.25" height="7.98" fill="#FFD43A"/><rect x="141.25" y="280.20" width="8.25" height="7.98" fill="#FFD43A"/><rect x="149.50" y="272.23" width="8.25" height="7.98" fill="#FFD43A"/><rect x="157.75" y="280.20" width="8.25" height="7.98" fill="#FFD43A"/><rect x="166.00" y="272.23" width="8.25" height="7.98" fill="#FFD43A"/><rect x="174.25" y="280.20" width="8.25" height="7.98" fill="#FFD43A"/><rect x="182.50" y="272.23" width="8.25" height="7.98" fill="#FFD43A"/><rect x="190.75" y="280.20" width="8.25" height="7.98" fill="#FFD43A"/><rect x="199.00" y="272.23" width="8.25" height="7.98" fill="#FFD43A"/><rect x="207.25" y="280.20" width="8.25" height="7.98" fill="#FFD43A"/><rect x="1.00" y="288.18" width="8.25" height="7.98" fill="#FFD43A"/><rect x="9.25" y="296.16" width="8.25" height="7.98" fill="#FFD43A"/><rect x="17.50" y="288.18" width="8.25" height="7.98" fill="#FFD43A"/><rect x="25.75" y="296.16" width="8.25" height="7.98" fill="#FFD43A"/><rect x="34.00" y="288.18" width="8.25" height="7.98" fill="#FFD43A"/><rect x="42.25" y="296.16" width="8.25" height="7.98" fill="#FFD43A"/><rect x="50.50" y="288.18" width="8.25" height="7.98" fill="#FFD43A"/><rect x="58.75" y="296.16" width="8.25" height="7.98" fill="#FFD43A"/><rect x="67.00" y="288.18" width="8.25" height="7.98" fill="#FFD43A"/><rect x="75.25" y="296.16" width="8.25" height="7.98" fill="#FFD43A"/><rect x="83.50" y="288.18" width="8.25" height="7.98" fill="#FFD43A"/><rect x="91.75" y="296.16" width="8.25" height="7.98" fill="#FFD43A"/><rect x="100.00" y="288.18" width="8.25" height="7.98" fill="#FFD43A"/><rect x="108.25" y="296.16" width="8.25" height="7.98" fill="#FFD43A"/><rect x="116.50" y="288.18" width="8.25" height="7.98" fill="#FFD43A"/><rect x="124.75" y="296.16" width="8.25" height="7.98" fill="#FFD43A"/><rect x="133.00" y="288.18" width="8.25" height="7.98" fill="#FFD43A"/><rect x="141.25" y="296.16" width="8.25" height="7.98" fill="#FFD43A"/><rect x="149.50" y="288.18" width="8.25" height="7.98" fill="#FFD43A"/><rect x="157.75" y="296.16" width="8.25" height="7.98" fill="#FFD43A"/><rect x="166.00" y="288.18" width="8.25" height="7.98" fill="#FFD43A"/><rect x="174.25" y="296.16" width="8.25" height="7.98" fill="#FFD43A"/><rect x="182.50" y="288.18" width="8.25" height="7.98" fill="#FFD43A"/><rect x="190.75" y="296.16" width="8.25" height="7.98" fill="#FFD43A"/><rect x="199.00" y="288.18" width="8.25" height="7.98" fill="#FFD43A"/><rect x="207.25" y="296.16" width="8.25" height="7.98" fill="#FFD43A"/><rect x="1.00" y="304.14" width="8.25" height="7.98" fill="#FFD43A"/><rect x="9.25" y="312.11" width="8.25" height="7.98" fill="#FFD43A"/><rect x="17.50" y="304.14" width="8.25" height="7.98" fill="#FFD43A"/><rect x="25.75" y="312.11" width="8.25" height="7.98" fill="#FFD43A"/><rect x="34.00" y="304.14" width="8.25" height="7.98" fill="#FFD43A"/><rect x="42.25" y="312.11" width="8.25" height="7.98" fill="#FFD43A"/><rect x="50.50" y="304.14" width="8.25" height="7.98" fill="#FFD43A"/><rect x="58.75" y="312.11" width="8.25" height="7.98" fill="#FFD43A"/><rect x="67.00" y="304.14" width="8.25" height="7.98" fill="#FFD43A"/><rect x="75.25" y="312.11" width="8.25" height="7.98" fill="#FFD43A"/><rect x="83.50" y="304.14" width="8.25" height="7.98" fill="#FFD43A"/><rect x="91.75" y="312.11" width="8.25" height="7.98" fill="#FFD43A"/><rect x="100.00" y="304.14" width="8.25" height="7.98" fill="#FFD43A"/><rect x="108.25" y="312.11" width="8.25" height="7.98" fill="#FFD43A"/><rect x="116.50" y="304.14" width="8.25" height="7.98" fill="#FFD43A"/><rect x="124.75" y="312.11" width="8.25" height="7.98" fill="#FFD43A"/><rect x="133.00" y="304.14" width="8.25" height="7.98" fill="#FFD43A"/><rect x="141.25" y="312.11" width="8.25" height="7.98" fill="#FFD43A"/><rect x="149.50" y="304.14" width="8.25" height="7.98" fill="#FFD43A"/><rect x="157.75" y="312.11" width="8.25" height="7.98" fill="#FFD43A"/><rect x="166.00" y="304.14" width="8.25" height="7.98" fill="#FFD43A"/><rect x="174.25" y="312.11" width="8.25" height="7.98" fill="#FFD43A"/><rect x="182.50" y="304.14" width="8.25" height="7.98" fill="#FFD43A"/><rect x="190.75" y="312.11" width="8.25" height="7.98" fill="#FFD43A"/><rect x="199.00" y="304.14" width="8.25" height="7.98" fill="#FFD43A"/><rect x="207.25" y="312.11" width="8.25" height="7.98" fill="#FFD43A"/><rect x="1.00" y="320.09" width="8.25" height="7.98" fill="#FFD43A"/><rect x="9.25" y="328.07" width="8.25" height="7.98" fill="#FFD43A"/><rect x="17.50" y="320.09" width="8.25" height="7.98" fill="#FFD43A"/><rect x="25.75" y="328.07" width="8.25" height="7.98" fill="#FFD43A"/><rect x="34.00" y="320.09" width="8.25" height="7.98" fill="#FFD43A"/><rect x="42.25" y="328.07" width="8.25" height="7.98" fill="#FFD43A"/><rect x="50.50" y="320.09" width="8.25" height="7.98" fill="#FFD43A"/><rect x="58.75" y="328.07" width="8.25" height="7.98" fill="#FFD43A"/><rect x="67.00" y="320.09" width="8.25" height="7.98" fill="#FFD43A"/><rect x="75.25" y="328.07" width="8.25" height="7.98" fill="#FFD43A"/><rect x="83.50" y="320.09" width="8.25" height="7.98" fill="#FFD43A"/><rect x="91.75" y="328.07" width="8.25" height="7.98" fill="#FFD43A"/><rect x="100.00" y="320.09" width="8.25" height="7.98" fill="#FFD43A"/><rect x="108.25" y="328.07" width="8.25" height="7.98" fill="#FFD43A"/><rect x="116.50" y="320.09" width="8.25" height="7.98" fill="#FFD43A"/><rect x="124.75" y="328.07" width="8.25" height="7.98" fill="#FFD43A"/><rect x="133.00" y="320.09" width="8.25" height="7.98" fill="#FFD43A"/><rect x="141.25" y="328.07" width="8.25" height="7.98" fill="#FFD43A"/><rect x="149.50" y="320.09" width="8.25" height="7.98" fill="#FFD43A"/><rect x="157.75" y="328.07" width="8.25" height="7.98" fill="#FFD43A"/><rect x="166.00" y="320.09" width="8.25" height="7.98" fill="#FFD43A"/><rect x="174.25" y="328.07" width="8.25" height="7.98" fill="#FFD43A"/><rect x="182.50" y="320.09" width="8.25" height="7.98" fill="#FFD43A"/><rect x="190.75" y="328.07" width="8.25" height="7.98" fill="#FFD43A"/><rect x="199.00" y="320.09" width="8.25" height="7.98" fill="#FFD43A"/><rect x="207.25" y="328.07" width="8.25" height="7.98" fill="#FFD43A"/><rect x="1.00" y="336.05" width="8.25" height="7.98" fill="#FFD43A"/><rect x="9.25" y="344.02" width="8.25" height="7.98" fill="#FFD43A"/><rect x="17.50" y="336.05" width="8.25" height="7.98" fill="#FFD43A"/><rect x="25.75" y="344.02" width="8.25" height="7.98" fill="#FFD43A"/><rect x="34.00" y="336.05" width="8.25" height="7.98" fill="#FFD43A"/><rect x="42.25" y="344.02" width="8.25" height="7.98" fill="#FFD43A"/><rect x="50.50" y="336.05" width="8.25" height="7.98" fill="#FFD43A"/><rect x="58.75" y="344.02" width="8.25" height="7.98" fill="#FFD43A"/><rect x="67.00" y="336.05" width="8.25" height="7.98" fill="#FFD43A"/><rect x="75.25" y="344.02" width="8.25" height="7.98" fill="#FFD43A"/><rect x="83.50" y="336.05" width="8.25" height="7.98" fill="#FFD43A"/><rect x="91.75" y="344.02" width="8.25" height="7.98" fill="#FFD43A"/><rect x="100.00" y="336.05" width="8.25" height="7.98" fill="#FFD43A"/><rect x="108.25" y="344.02" width="8.25" height="7.98" fill="#FFD43A"/><rect x="116.50" y="336.05" width="8.25" height="7.98" fill="#FFD43A"/><rect x="124.75" y="344.02" width="8.25" height="7.98" fill="#FFD43A"/><rect x="133.00" y="336.05" width="8.25" height="7.98" fill="#FFD43A"/><rect x="141.25" y="344.02" width="8.25" height="7.98" fill="#FFD43A"/><rect x="149.50" y="336.05" width="8.25" height="7.98" fill="#FFD43A"/><rect x="157.75" y="344.02" width="8.25" height="7.98" fill="#FFD43A"/><rect x="166.00" y="336.05" width="8.25" height="7.98" fill="#FFD43A"/><rect x="174.25" y="344.02" width="8.25" height="7.98" fill="#FFD43A"/><rect x="182.50" y="336.05" width="8.25" height="7.98" fill="#FFD43A"/><rect x="190.75" y="344.02" width="8.25" height="7.98" fill="#FFD43A"/><rect x="199.00" y="336.05" width="8.25" height="7.98" fill="#FFD43A"/><rect x="207.25" y="344.02" width="8.25" height="7.98" fill="#FFD43A"/><rect x="1.00" y="352.00" width="8.25" height="7.98" fill="#FFD43A"/><rect x="9.25" y="359.98" width="8.25" height="7.98" fill="#FFD43A"/><rect x="17.50" y="352.00" width="8.25" height="7.98" fill="#FFD43A"/><rect x="25.75" y="359.98" width="8.25" height="7.98" fill="#FFD43A"/><rect x="34.00" y="352.00" width="8.25" height="7.98" fill="#FFD43A"/><rect x="42.25" y="359.98" width="8.25" height="7.98" fill="#FFD43A"/><rect x="50.50" y="352.00" width="8.25" height="7.98" fill="#FFD43A"/><rect x="58.75" y="359.98" width="8.25" height="7.98" fill="#FFD43A"/><rect x="67.00" y="352.00" width="8.25" height="7.98" fill="#FFD43A"/><rect x="75.25" y="359.98" width="8.25" height="7.98" fill="#FFD43A"/><rect x="83.50" y="352.00" width="8.25" height="7.98" fill="#FFD43A"/><rect x="91.75" y="359.98" width="8.25" height="7.98" fill="#FFD43A"/><rect x="100.00" y="352.00" width="8.25" height="7.98" fill="#FFD43A"/><rect x="108.25" y="359.98" width="8.25" height="7.98" fill="#FFD43A"/><rect x="116.50" y="352.00" width="8.25" height="7.98" fill="#FFD43A"/><rect x="124.75" y="359.98" width="8.25" height="7.98" fill="#FFD43A"/><rect x="133.00" y="352.00" width="8.25" height="7.98" fill="#FFD43A"/><rect x="141.25" y="359.98" width="8.25" height="7.98" fill="#FFD43A"/><rect x="149.50" y="352.00" width="8.25" height="7.98" fill="#FFD43A"/><rect x="157.75" y="359.98" width="8.25" height="7.98" fill="#FFD43A"/><rect x="166.00" y="352.00" width="8.25" height="7.98" fill="#FFD43A"/><rect x="174.25" y="359.98" width="8.25" height="7.98" fill="#FFD43A"/><rect x="182.50" y="352.00" width="8.25" height="7.98" fill="#FFD43A"/><rect x="190.75" y="359.98" width="8.25" height="7.98" fill="#FFD43A"/><rect x="199.00" y="352.00" width="8.25" height="7.98" fill="#FFD43A"/><rect x="207.25" y="359.98" width="8.25" height="7.98" fill="#FFD43A"/>
  </g>
  <!-- outer stroke on top -->
  <rect x="1" y="1" width="208" height="361" rx="12" fill="none" stroke="#26211D"/>
  <!-- inner field -->
  <rect x="11" y="11" width="188" height="341" rx="7" fill="#0B0908"/>
  <rect x="11.5" y="11.5" width="187" height="340" rx="7" fill="none" stroke="#F4EEE2" stroke-opacity="0.12"/>
  <!-- numeral (overlay top, tracking ~6) -->
  <text x="105" y="46" text-anchor="middle" font-family="Georgia, 'Times New Roman', serif" font-size="17" letter-spacing="6" fill="#F4EEE2">X</text>
  <!-- sigil -->
  <g>
    <path d="M105,185 L105.00,127.00 A58,58 0 0 1 146.01,143.99 Z" fill="#FF4B2E"/>
    <path d="M105,185 L146.01,143.99 A58,58 0 0 1 163.00,185.00 Z" fill="#FFD43A"/>
    <path d="M105,185 L163.00,185.00 A58,58 0 0 1 146.01,226.01 Z" fill="#2E5BFF"/>
    <path d="M105,185 L146.01,226.01 A58,58 0 0 1 105.00,243.00 Z" fill="#FF7AC0"/>
    <path d="M105,185 L105.00,243.00 A58,58 0 0 1 63.99,226.01 Z" fill="#29A35C"/>
    <path d="M105,185 L63.99,226.01 A58,58 0 0 1 47.00,185.00 Z" fill="#FFD43A"/>
    <path d="M105,185 L47.00,185.00 A58,58 0 0 1 63.99,143.99 Z" fill="#FF4B2E"/>
    <path d="M105,185 L63.99,143.99 A58,58 0 0 1 105.00,127.00 Z" fill="#2E5BFF"/>
    <circle cx="105" cy="185" r="17" fill="#0B0908"/>
    <circle cx="105" cy="185" r="4" fill="#F4EEE2"/>
    <polygon points="105,112 97,97 113,97" fill="#F4EEE2"/>
  </g>
  <!-- printed title EN -->
  <text x="105" y="334" text-anchor="middle" font-family="system-ui, Helvetica, sans-serif" font-size="9.5" letter-spacing="3.5" fill="#8E877B">WHEEL OF FORTUNE</text>
</svg>
